%FSLAX34Y34*%
%MOMM*%
%LNCOPPER_TOP*%
G71*
G01*
%ADD10C, 5.00*%
%ADD11C, 2.00*%
%ADD12C, 3.00*%
%ADD13C, 1.60*%
%ADD14C, 2.00*%
%ADD15C, 1.00*%
%ADD16C, 0.80*%
%ADD17C, 2.00*%
%ADD18C, 1.30*%
%LPD*%
X278610Y-287730D02*
G54D10*
D03*
X999132Y-269676D02*
G54D11*
D03*
X999132Y-328017D02*
G54D11*
D03*
X874313Y-176613D02*
G54D12*
D03*
X691748Y-131370D02*
G54D12*
D03*
X74220Y-581810D02*
G54D10*
D03*
X342990Y-701184D02*
G54D13*
D03*
X342990Y-781352D02*
G54D13*
D03*
X475943Y-701977D02*
G54D13*
D03*
X475943Y-782146D02*
G54D13*
D03*
X500946Y-701183D02*
G54D13*
D03*
X500946Y-781352D02*
G54D13*
D03*
X633899Y-701183D02*
G54D13*
D03*
X633899Y-781352D02*
G54D13*
D03*
G36*
X130396Y-303466D02*
X125130Y-308732D01*
X117660Y-308732D01*
X112396Y-303466D01*
X112396Y-295996D01*
X117660Y-290732D01*
X125130Y-290732D01*
X130396Y-295996D01*
X130396Y-303466D01*
G37*
G36*
X130396Y-278066D02*
X125131Y-283332D01*
X117661Y-283332D01*
X112396Y-278066D01*
X112396Y-270596D01*
X117661Y-265332D01*
X125131Y-265332D01*
X130396Y-270596D01*
X130396Y-278066D01*
G37*
G36*
X130396Y-252667D02*
X125130Y-257932D01*
X117660Y-257932D01*
X112396Y-252667D01*
X112396Y-245197D01*
X117660Y-239932D01*
X125130Y-239932D01*
X130396Y-245197D01*
X130396Y-252667D01*
G37*
G36*
X130396Y-227266D02*
X125130Y-232532D01*
X117660Y-232532D01*
X112396Y-227266D01*
X112396Y-219796D01*
X117660Y-214532D01*
X125130Y-214532D01*
X130396Y-219796D01*
X130396Y-227266D01*
G37*
G36*
X54196Y-303467D02*
X48931Y-308732D01*
X41461Y-308732D01*
X36196Y-303467D01*
X36196Y-295997D01*
X41461Y-290732D01*
X48931Y-290732D01*
X54196Y-295997D01*
X54196Y-303467D01*
G37*
G36*
X54196Y-278066D02*
X48930Y-283332D01*
X41460Y-283332D01*
X36196Y-278066D01*
X36196Y-270596D01*
X41460Y-265332D01*
X48930Y-265332D01*
X54196Y-270596D01*
X54196Y-278066D01*
G37*
G36*
X54196Y-252667D02*
X48930Y-257932D01*
X41460Y-257932D01*
X36196Y-252667D01*
X36196Y-245197D01*
X41460Y-239932D01*
X48930Y-239932D01*
X54196Y-245197D01*
X54196Y-252667D01*
G37*
G36*
X54196Y-227266D02*
X48930Y-232532D01*
X41460Y-232532D01*
X36196Y-227266D01*
X36196Y-219796D01*
X41460Y-214532D01*
X48930Y-214532D01*
X54196Y-219796D01*
X54196Y-227266D01*
G37*
G36*
X130396Y-201866D02*
X125131Y-207132D01*
X117661Y-207132D01*
X112396Y-201866D01*
X112396Y-194396D01*
X117661Y-189132D01*
X125131Y-189132D01*
X130396Y-194396D01*
X130396Y-201866D01*
G37*
G36*
X54196Y-201866D02*
X48930Y-207132D01*
X41460Y-207132D01*
X36196Y-201866D01*
X36196Y-194396D01*
X41460Y-189132D01*
X48930Y-189132D01*
X54196Y-194396D01*
X54196Y-201866D01*
G37*
G36*
X130396Y-176466D02*
X125131Y-181732D01*
X117661Y-181732D01*
X112396Y-176466D01*
X112396Y-168996D01*
X117661Y-163732D01*
X125131Y-163732D01*
X130396Y-168996D01*
X130396Y-176466D01*
G37*
G36*
X130396Y-151066D02*
X125130Y-156332D01*
X117660Y-156332D01*
X112396Y-151066D01*
X112396Y-143596D01*
X117660Y-138332D01*
X125130Y-138332D01*
X130396Y-143596D01*
X130396Y-151066D01*
G37*
G36*
X54196Y-176466D02*
X48930Y-181732D01*
X41460Y-181732D01*
X36196Y-176466D01*
X36196Y-168996D01*
X41460Y-163732D01*
X48930Y-163732D01*
X54196Y-168996D01*
X54196Y-176466D01*
G37*
G36*
X54196Y-151066D02*
X48931Y-156332D01*
X41461Y-156332D01*
X36196Y-151066D01*
X36196Y-143596D01*
X41461Y-138332D01*
X48931Y-138332D01*
X54196Y-143596D01*
X54196Y-151066D01*
G37*
G36*
X130396Y-125666D02*
X125131Y-130932D01*
X117661Y-130932D01*
X112396Y-125666D01*
X112396Y-118196D01*
X117661Y-112932D01*
X125131Y-112932D01*
X130396Y-118196D01*
X130396Y-125666D01*
G37*
G36*
X54196Y-125666D02*
X48931Y-130932D01*
X41461Y-130932D01*
X36196Y-125666D01*
X36196Y-118196D01*
X41461Y-112932D01*
X48931Y-112932D01*
X54196Y-118196D01*
X54196Y-125666D01*
G37*
X100193Y-39438D02*
G54D14*
D03*
X127134Y-12498D02*
G54D14*
D03*
G54D15*
X100806Y-39688D02*
X100806Y-63500D01*
X89694Y-74612D01*
X89694Y-194469D01*
X60325Y-223838D01*
X45640Y-223838D01*
G54D16*
X45244Y-172244D02*
X13494Y-172244D01*
X6350Y-179388D01*
X6350Y-704453D01*
X26590Y-724694D01*
X155972Y-724694D01*
X155972Y-801290D01*
X501253Y-801290D01*
X501253Y-781447D01*
G54D16*
X501253Y-781447D02*
X634206Y-781447D01*
G54D16*
X45244Y-248840D02*
X30956Y-248840D01*
X21034Y-258762D01*
X21034Y-671910D01*
X55166Y-706040D01*
X179784Y-706040D01*
X179784Y-775494D01*
X185738Y-781447D01*
X475853Y-781447D01*
X707560Y-206972D02*
G54D13*
D03*
X787730Y-206972D02*
G54D13*
D03*
X292252Y-36886D02*
G54D17*
D03*
X292252Y-62286D02*
G54D17*
D03*
G36*
X864400Y-762400D02*
X864400Y-782400D01*
X844400Y-782400D01*
X844400Y-762400D01*
X864400Y-762400D01*
G37*
G36*
X839002Y-762399D02*
X839002Y-782399D01*
X819002Y-782399D01*
X819002Y-762399D01*
X839002Y-762399D01*
G37*
G36*
X813602Y-762399D02*
X813602Y-782399D01*
X793602Y-782399D01*
X793602Y-762399D01*
X813602Y-762399D01*
G37*
G36*
X788200Y-762400D02*
X788200Y-782400D01*
X768200Y-782400D01*
X768200Y-762400D01*
X788200Y-762400D01*
G37*
G54D18*
X999331Y-328216D02*
X983853Y-328216D01*
X967184Y-344884D01*
X967184Y-600472D01*
X953690Y-613966D01*
X863997Y-613966D01*
X856456Y-621506D01*
X856456Y-769144D01*
X854075Y-771525D01*
G54D18*
X829072Y-772716D02*
X829072Y-248047D01*
X788194Y-207169D01*
M02*
