G04*
G04 #@! TF.GenerationSoftware,Altium Limited,Altium Designer,20.2.6 (244)*
G04*
G04 Layer_Color=128*
%FSTAX25Y25*%
%MOIN*%
G70*
G04*
G04 #@! TF.SameCoordinates,D37F4820-9CCB-4A9C-A827-6EB3CEA44CBB*
G04*
G04*
G04 #@! TF.FilePolarity,Positive*
G04*
G01*
G75*
%ADD15C,0.00500*%
D15*
X11373Y0949533D02*
X11425D01*
X11399Y0946933D02*
Y0952133D01*
X11223Y0949533D02*
X11275D01*
X11249Y0946933D02*
Y0952133D01*
X11673Y0949533D02*
X11725D01*
X11699Y0946933D02*
Y0952133D01*
X11523Y0949533D02*
X11575D01*
X11549Y0946933D02*
Y0952133D01*
X10924Y09721D02*
X10956D01*
X1094Y09705D02*
Y09737D01*
X10924Y09621D02*
X10956D01*
X1094Y09605D02*
Y09637D01*
X1206028Y08286D02*
X1209572D01*
X12078Y0826828D02*
Y0830372D01*
X1216028Y08286D02*
X1219572D01*
X12178Y0826828D02*
Y0830372D01*
X1226028Y08286D02*
X1229572D01*
X12278Y0826828D02*
Y0830372D01*
X1236028Y08286D02*
X1239572D01*
X12378Y0826828D02*
Y0830372D01*
X1246028Y08286D02*
X1249572D01*
X12478Y0826828D02*
Y0830372D01*
X1088731Y09103D02*
X1092669D01*
X10907Y0908331D02*
Y0912269D01*
X1088731Y08493D02*
X1092669D01*
X10907Y0847332D02*
Y0851268D01*
X0972731Y08698D02*
X0976668D01*
X09747Y0867832D02*
Y0871768D01*
X0972731Y08898D02*
X0976668D01*
X09747Y0887831D02*
Y0891768D01*
X1015444Y09323D02*
X1020956D01*
X10182Y0929544D02*
Y0935056D01*
X1035444Y09323D02*
X1040956D01*
X10382Y0929544D02*
Y0935056D01*
X122985Y0688D02*
X123435D01*
X12321Y068575D02*
Y069025D01*
X1214624Y06765D02*
X1217576D01*
X12161Y0675024D02*
Y0677976D01*
X12071Y06566D02*
X12121D01*
X12096Y06541D02*
Y06591D01*
X127785Y0688D02*
X128235D01*
X12801Y068575D02*
Y069025D01*
X1213828Y07445D02*
X1217372D01*
X12156Y0742728D02*
Y0746272D01*
X1247362Y0656862D02*
X1252362D01*
X1249862Y0654362D02*
Y0659362D01*
X1254228Y0743905D02*
X1258728D01*
X1256478Y0741655D02*
Y0746156D01*
X1227362Y0656862D02*
X1232362D01*
X1229862Y0654362D02*
Y0659362D01*
X1213828Y07145D02*
X1217372D01*
X12156Y0712728D02*
Y0716272D01*
X1214624Y07065D02*
X1217576D01*
X12161Y0705024D02*
Y0707976D01*
X114885Y06878D02*
X115335D01*
X11511Y068555D02*
Y069005D01*
X1133224Y0677D02*
X1136176D01*
X11347Y0675524D02*
Y0678476D01*
X11448Y06563D02*
X11498D01*
X11473Y06538D02*
Y06588D01*
X119685Y06878D02*
X120135D01*
X11991Y068555D02*
Y069005D01*
X1133428Y07443D02*
X1136972D01*
X11352Y0742528D02*
Y0746072D01*
X1185062Y0656562D02*
X1190062D01*
X1187562Y0654062D02*
Y0659062D01*
X1173228Y0743706D02*
X1177728D01*
X1175478Y0741456D02*
Y0745956D01*
X1165062Y0656562D02*
X1170062D01*
X1167562Y0654062D02*
Y0659062D01*
X1133428Y07143D02*
X1136972D01*
X11352Y0712528D02*
Y0716072D01*
X1133224Y0707D02*
X1136176D01*
X11347Y0705524D02*
Y0708476D01*
X1083199Y06563D02*
X1088199D01*
X1085699Y06538D02*
Y06588D01*
X1056324Y06895D02*
X1059276D01*
X10578Y0688024D02*
Y0690976D01*
X107005Y06879D02*
X107455D01*
X10723Y068565D02*
Y069015D01*
X1123461Y0656562D02*
X1128461D01*
X1125961Y0654062D02*
Y0659062D01*
X1056228Y07495D02*
X1059772D01*
X1058Y0747728D02*
Y0751272D01*
X111805Y06879D02*
X112255D01*
X11203Y068565D02*
Y069015D01*
X1094428Y0743806D02*
X1098928D01*
X1096678Y0741556D02*
Y0746056D01*
X1103461Y0656562D02*
X1108461D01*
X1105961Y0654062D02*
Y0659062D01*
X1055047Y07195D02*
X1060953D01*
X1058Y0716547D02*
Y0722453D01*
X1054847Y07195D02*
X1060753D01*
X10578Y0716547D02*
Y0722453D01*
X1021038Y0656338D02*
X1026038D01*
X1023538Y0653838D02*
Y0658838D01*
X099015Y06882D02*
X099465D01*
X09924Y068595D02*
Y069045D01*
X0976824Y06781D02*
X0979776D01*
X09783Y0676624D02*
Y0679576D01*
X10613Y06566D02*
X10663D01*
X10638Y06541D02*
Y06591D01*
X0976828Y07457D02*
X0980372D01*
X09786Y0743928D02*
Y0747472D01*
X103815Y06882D02*
X104265D01*
X10404Y068595D02*
Y069045D01*
X10413Y06566D02*
X10463D01*
X10438Y06541D02*
Y06591D01*
X1014528Y0744105D02*
X1019028D01*
X1016778Y0741855D02*
Y0746355D01*
X0976828Y07157D02*
X0980372D01*
X09786Y0713928D02*
Y0717472D01*
X0976824Y07081D02*
X0979776D01*
X09783Y0706624D02*
Y0709576D01*
X113845Y08512D02*
X114195D01*
X11402Y084945D02*
Y085295D01*
X110845Y08512D02*
X111195D01*
X11102Y084945D02*
Y085295D01*
X113845Y08394D02*
X114195D01*
X11402Y083765D02*
Y084115D01*
X110845Y08394D02*
X111195D01*
X11102Y083765D02*
Y084115D01*
X1306428Y09196D02*
X1309972D01*
X13082Y0917828D02*
Y0921372D01*
X1306428Y09096D02*
X1309972D01*
X13082Y0907828D02*
Y0911372D01*
X1306428Y08996D02*
X1309972D01*
X13082Y0897828D02*
Y0901372D01*
X1306428Y08896D02*
X1309972D01*
X13082Y0887828D02*
Y0891372D01*
X1306428Y08796D02*
X1309972D01*
X13082Y0877828D02*
Y0881372D01*
X1306428Y08696D02*
X1309972D01*
X13082Y0867828D02*
Y0871372D01*
X1306428Y08596D02*
X1309972D01*
X13082Y0857828D02*
Y0861372D01*
X1306428Y08496D02*
X1309972D01*
X13082Y0847828D02*
Y0851372D01*
X1272715Y06482D02*
X1312085D01*
X12924Y0628515D02*
Y0667885D01*
X1230606Y0736031D02*
X1235106D01*
X1232856Y0733781D02*
Y0738281D01*
X127785Y0736031D02*
X128235D01*
X12801Y0733781D02*
Y0738281D01*
X1149606Y0735831D02*
X1154106D01*
X1151856Y0733581D02*
Y0738082D01*
X119685Y0735831D02*
X120135D01*
X11991Y0733581D02*
Y0738082D01*
X1070806Y0735931D02*
X1075306D01*
X1073056Y0733681D02*
Y0738181D01*
X111805Y0735931D02*
X112255D01*
X11203Y0733681D02*
Y0738181D01*
X0990906Y0736232D02*
X0995406D01*
X0993156Y0733982D02*
Y0738482D01*
X103815Y0736232D02*
X104265D01*
X10404Y0733982D02*
Y0738482D01*
X1139124Y09144D02*
X1142076D01*
X11406Y0912924D02*
Y0915876D01*
X1129124Y09144D02*
X1132076D01*
X11306Y0912924D02*
Y0915876D01*
X1119124Y09144D02*
X1122076D01*
X11206Y0912924D02*
Y0915876D01*
X1109124Y09144D02*
X1112076D01*
X11106Y0912924D02*
Y0915876D01*
X1150324Y09621D02*
X1153276D01*
X11518Y0960624D02*
Y0963576D01*
X1140324Y09621D02*
X1143276D01*
X11418Y0960624D02*
Y0963576D01*
X1130324Y09621D02*
X1133276D01*
X11318Y0960624D02*
Y0963576D01*
X1120324Y09621D02*
X1123276D01*
X11218Y0960624D02*
Y0963576D01*
X1110324Y09621D02*
X1113276D01*
X11118Y0960624D02*
Y0963576D01*
X1144225Y0873095D02*
X1147177D01*
X1145701Y0871618D02*
Y0874571D01*
X1144225Y0863095D02*
X1147177D01*
X1145701Y0861618D02*
Y0864571D01*
X1108522Y0873095D02*
X1111474D01*
X1109998Y0871618D02*
Y0874571D01*
X1108522Y0863095D02*
X1111474D01*
X1109998Y0861618D02*
Y0864571D01*
X1120423Y0873095D02*
X1123375D01*
X1121899Y0871618D02*
Y0874571D01*
X1120423Y0863095D02*
X1123375D01*
X1121899Y0861618D02*
Y0864571D01*
X1132324Y0863095D02*
X1135276D01*
X11338Y0861618D02*
Y0864571D01*
X1132324Y0873095D02*
X1135276D01*
X11338Y0871618D02*
Y0874571D01*
X1139324Y09254D02*
X1142276D01*
X11408Y0923924D02*
Y0926876D01*
X1129324Y09254D02*
X1132276D01*
X11308Y0923924D02*
Y0926876D01*
X1119324Y09254D02*
X1122276D01*
X11208Y0923924D02*
Y0926876D01*
X1109324Y09254D02*
X1112276D01*
X11108Y0923924D02*
Y0926876D01*
X1026132Y0945678D02*
X1030068D01*
X10281Y0943709D02*
Y0947647D01*
X1026132Y09693D02*
X1030068D01*
X10281Y0967332D02*
Y0971268D01*
X1004675Y0957489D02*
X1014517D01*
X1009596Y0952568D02*
Y096241D01*
X11073Y0949533D02*
X11125D01*
X11099Y0946933D02*
Y0952133D01*
X10923Y0949533D02*
X10975D01*
X10949Y0946933D02*
Y0952133D01*
X11373Y0949533D02*
X11425D01*
X11399Y0946933D02*
Y0952133D01*
X11223Y0949533D02*
X11275D01*
X11249Y0946933D02*
Y0952133D01*
X1236501Y0949533D02*
X1241701D01*
X1239101Y0946933D02*
Y0952133D01*
X1221501Y0949533D02*
X1226701D01*
X1224101Y0946933D02*
Y0952133D01*
X1206501Y0949533D02*
X1211701D01*
X1209101Y0946933D02*
Y0952133D01*
X1191501Y0949533D02*
X1196701D01*
X1194101Y0946933D02*
Y0952133D01*
X1199524Y09684D02*
X1202476D01*
X1201Y0966924D02*
Y0969876D01*
X1209524Y09684D02*
X1212476D01*
X1211Y0966924D02*
Y0969876D01*
X1219524Y09684D02*
X1222476D01*
X1221Y0966924D02*
Y0969876D01*
X1229524Y09684D02*
X1232476D01*
X1231Y0966924D02*
Y0969876D01*
X1114124Y09722D02*
X1117076D01*
X11156Y0970724D02*
Y0973676D01*
X1124124Y09722D02*
X1127076D01*
X11256Y0970724D02*
Y0973676D01*
X1134124Y09722D02*
X1137076D01*
X11356Y0970724D02*
Y0973676D01*
X1144124Y09722D02*
X1147076D01*
X11456Y0970724D02*
Y0973676D01*
X1108724Y09024D02*
X1111676D01*
X11102Y0900924D02*
Y0903876D01*
X1118724Y09024D02*
X1121676D01*
X11202Y0900924D02*
Y0903876D01*
X1128724Y09024D02*
X1131676D01*
X11302Y0900924D02*
Y0903876D01*
X1138724Y09024D02*
X1141676D01*
X11402Y0900924D02*
Y0903876D01*
X1148724Y09024D02*
X1151676D01*
X11502Y0900924D02*
Y0903876D01*
X1306924Y08315D02*
X1309876D01*
X13084Y0830024D02*
Y0832976D01*
X1306924Y08215D02*
X1309876D01*
X13084Y0820024D02*
Y0822976D01*
X1306924Y08115D02*
X1309876D01*
X13084Y0810024D02*
Y0812976D01*
X1306924Y08015D02*
X1309876D01*
X13084Y0800024D02*
Y0802976D01*
X0961626Y06482D02*
X0977374D01*
X09695Y0640326D02*
Y0656074D01*
X0961626Y09631D02*
X0977374D01*
X09695Y0955226D02*
Y0970974D01*
X1296326Y09634D02*
X1312074D01*
X13042Y0955526D02*
Y0971274D01*
X110155Y081965D02*
X110305D01*
X11023Y08189D02*
Y08204D01*
X1121259Y0838582D02*
X1122834D01*
X1122047Y0837795D02*
Y083937D01*
X107385Y08206D02*
X107535D01*
X10746Y081985D02*
Y082135D01*
X1070959Y0874016D02*
X1072534D01*
X1071746Y0873228D02*
Y0874803D01*
X1274803Y0791338D02*
X1276378D01*
X127559Y0790551D02*
Y0792126D01*
X1280708Y0779527D02*
X1282283D01*
X1281496Y077874D02*
Y0780315D01*
X1262992Y0791338D02*
X1264567D01*
X1263779Y0790551D02*
Y0792126D01*
X1251181Y0956693D02*
X1252756D01*
X1251968Y0955905D02*
Y095748D01*
X1251181Y081496D02*
X1252756D01*
X1251968Y0814173D02*
Y0815748D01*
X1251181Y0767716D02*
X1252756D01*
X1251968Y0766929D02*
Y0768504D01*
X1245275Y0968504D02*
X124685D01*
X1246063Y0967716D02*
Y0969291D01*
X1233464Y0803149D02*
X1235039D01*
X1234252Y0802362D02*
Y0803937D01*
X1227559Y0767716D02*
X1229134D01*
X1228346Y0766929D02*
Y0768504D01*
X1209842Y0803149D02*
X1211417D01*
X121063Y0802362D02*
Y0803937D01*
X1203937Y0791338D02*
X1205511D01*
X1204724Y0790551D02*
Y0792126D01*
X1209842Y0779527D02*
X1211417D01*
X121063Y077874D02*
Y0780315D01*
X1192126Y0791338D02*
X11937D01*
X1192913Y0790551D02*
Y0792126D01*
X1198031Y0779527D02*
X1199606D01*
X1198818Y077874D02*
Y0780315D01*
X1180315Y0956693D02*
X1181889D01*
X1181102Y0955905D02*
Y095748D01*
X118622Y0944882D02*
X1187795D01*
X1187008Y0944094D02*
Y0945669D01*
X118622Y0803149D02*
X1187795D01*
X1187008Y0802362D02*
Y0803937D01*
X1180315Y0767716D02*
X1181889D01*
X1181102Y0766929D02*
Y0768504D01*
X1174409Y0803149D02*
X1175984D01*
X1175196Y0802362D02*
Y0803937D01*
X1168504Y0767716D02*
X1170078D01*
X1169291Y0766929D02*
Y0768504D01*
X1162598Y0944882D02*
X1164173D01*
X1163385Y0944094D02*
Y0945669D01*
X1162598Y092126D02*
X1164173D01*
X1163385Y0920472D02*
Y0922047D01*
X1162598Y0897637D02*
X1164173D01*
X1163385Y089685D02*
Y0898425D01*
X1156693Y0885826D02*
X1158267D01*
X115748Y0885039D02*
Y0886614D01*
X1162598Y0874016D02*
X1164173D01*
X1163385Y0873228D02*
Y0874803D01*
X1156693Y0838582D02*
X1158267D01*
X115748Y0837795D02*
Y083937D01*
X1156693Y081496D02*
X1158267D01*
X115748Y0814173D02*
Y0815748D01*
X1162598Y0803149D02*
X1164173D01*
X1163385Y0802362D02*
Y0803937D01*
X1144882Y0885826D02*
X1146456D01*
X1145669Y0885039D02*
Y0886614D01*
X1150787Y0874016D02*
X1152362D01*
X1151575Y0873228D02*
Y0874803D01*
X1150787Y0803149D02*
X1152362D01*
X1151575Y0802362D02*
Y0803937D01*
X1144882Y0767716D02*
X1146456D01*
X1145669Y0766929D02*
Y0768504D01*
X113307Y0909449D02*
X1134645D01*
X1133858Y0908661D02*
Y0910236D01*
X1138976Y0803149D02*
X1140551D01*
X1139763Y0802362D02*
Y0803937D01*
X1138976Y0779527D02*
X1140551D01*
X1139763Y077874D02*
Y0780315D01*
X1127165Y0850393D02*
X112874D01*
X1127952Y0849606D02*
Y0851181D01*
X1127165Y0803149D02*
X112874D01*
X1127952Y0802362D02*
Y0803937D01*
X1121259Y0791338D02*
X1122834D01*
X1122047Y0790551D02*
Y0792126D01*
X1127165Y0779527D02*
X112874D01*
X1127952Y077874D02*
Y0780315D01*
X1115354Y0944882D02*
X1116929D01*
X1116141Y0944094D02*
Y0945669D01*
X1109449Y0933071D02*
X1111023D01*
X1110236Y0932283D02*
Y0933858D01*
X1115354Y092126D02*
X1116929D01*
X1116141Y0920472D02*
Y0922047D01*
X1115354Y0897637D02*
X1116929D01*
X1116141Y089685D02*
Y0898425D01*
X1109449Y0885826D02*
X1111023D01*
X1110236Y0885039D02*
Y0886614D01*
X1115354Y0803149D02*
X1116929D01*
X1116141Y0802362D02*
Y0803937D01*
X1109449Y0791338D02*
X1111023D01*
X1110236Y0790551D02*
Y0792126D01*
X1115354Y0779527D02*
X1116929D01*
X1116141Y077874D02*
Y0780315D01*
X1097637Y0933071D02*
X1099212D01*
X1098425Y0932283D02*
Y0933858D01*
X1103543Y092126D02*
X1105118D01*
X110433Y0920472D02*
Y0922047D01*
X1097637Y0909449D02*
X1099212D01*
X1098425Y0908661D02*
Y0910236D01*
X1103543Y0897637D02*
X1105118D01*
X110433Y089685D02*
Y0898425D01*
X1097637Y0885826D02*
X1099212D01*
X1098425Y0885039D02*
Y0886614D01*
X1097637Y0862204D02*
X1099212D01*
X1098425Y0861417D02*
Y0862992D01*
X1103543Y0803149D02*
X1105118D01*
X110433Y0802362D02*
Y0803937D01*
X1097637Y0767716D02*
X1099212D01*
X1098425Y0766929D02*
Y0768504D01*
X1091732Y092126D02*
X1093307D01*
X1092519Y0920472D02*
Y0922047D01*
X1091732Y0897637D02*
X1093307D01*
X1092519Y089685D02*
Y0898425D01*
X1091732Y0874016D02*
X1093307D01*
X1092519Y0873228D02*
Y0874803D01*
X1091732Y0803149D02*
X1093307D01*
X1092519Y0802362D02*
Y0803937D01*
X1085826Y0767716D02*
X1087401D01*
X1086614Y0766929D02*
Y0768504D01*
X1079921Y0897637D02*
X1081496D01*
X1080708Y089685D02*
Y0898425D01*
X1074015Y0862204D02*
X107559D01*
X1074803Y0861417D02*
Y0862992D01*
X1079921Y0803149D02*
X1081496D01*
X1080708Y0802362D02*
Y0803937D01*
X106811Y0803149D02*
X1069685D01*
X1068897Y0802362D02*
Y0803937D01*
X1062204Y0791338D02*
X1063779D01*
X1062992Y0790551D02*
Y0792126D01*
X1050393Y0791338D02*
X1051968D01*
X1051181Y0790551D02*
Y0792126D01*
X1050393Y0767716D02*
X1051968D01*
X1051181Y0766929D02*
Y0768504D01*
X1044488Y0897637D02*
X1046063D01*
X1045275Y089685D02*
Y0898425D01*
X1044488Y0874016D02*
X1046063D01*
X1045275Y0873228D02*
Y0874803D01*
X1038582Y0862204D02*
X1040157D01*
X103937Y0861417D02*
Y0862992D01*
X1038582Y0791338D02*
X1040157D01*
X103937Y0790551D02*
Y0792126D01*
X1044488Y0779527D02*
X1046063D01*
X1045275Y077874D02*
Y0780315D01*
X1026771Y0862204D02*
X1028346D01*
X1027559Y0861417D02*
Y0862992D01*
X1032677Y0803149D02*
X1034252D01*
X1033464Y0802362D02*
Y0803937D01*
X1032677Y0779527D02*
X1034252D01*
X1033464Y077874D02*
Y0780315D01*
X101496Y0862204D02*
X1016535D01*
X1015748Y0861417D02*
Y0862992D01*
X1020866Y0803149D02*
X1022441D01*
X1021653Y0802362D02*
Y0803937D01*
X101496Y0767716D02*
X1016535D01*
X1015748Y0766929D02*
Y0768504D01*
X1003149Y0909449D02*
X1004724D01*
X1003937Y0908661D02*
Y0910236D01*
X1003149Y0862204D02*
X1004724D01*
X1003937Y0861417D02*
Y0862992D01*
X1003149Y081496D02*
X1004724D01*
X1003937Y0814173D02*
Y0815748D01*
X0991338Y0909449D02*
X0992913D01*
X0992126Y0908661D02*
Y0910236D01*
X0997244Y0897637D02*
X0998819D01*
X0998031Y089685D02*
Y0898425D01*
X0991338Y0862204D02*
X0992913D01*
X0992126Y0861417D02*
Y0862992D01*
X0991338Y081496D02*
X0992913D01*
X0992126Y0814173D02*
Y0815748D01*
X0997244Y0803149D02*
X0998819D01*
X0998031Y0802362D02*
Y0803937D01*
X0991338Y0767716D02*
X0992913D01*
X0992126Y0766929D02*
Y0768504D01*
X0985433Y0897637D02*
X0987008D01*
X098622Y089685D02*
Y0898425D01*
X0979527Y081496D02*
X0981102D01*
X0980315Y0814173D02*
Y0815748D01*
X0979527Y0791338D02*
X0981102D01*
X0980315Y0790551D02*
Y0792126D01*
X0979527Y0767716D02*
X0981102D01*
X0980315Y0766929D02*
Y0768504D01*
X117715Y08901D02*
X117865D01*
X11779Y088935D02*
Y089085D01*
X124305Y08112D02*
X124455D01*
X12438Y081045D02*
Y081195D01*
X126475Y08232D02*
X126625D01*
X12655Y082245D02*
Y082395D01*
X123295Y08943D02*
X123445D01*
X12337Y089355D02*
Y089505D01*
X122255Y09054D02*
X122405D01*
X12233Y090465D02*
Y090615D01*
X119415Y08451D02*
X119565D01*
X11949Y084435D02*
Y084585D01*
X122615Y07976D02*
X122765D01*
X12269Y079685D02*
Y079835D01*
X114645Y07967D02*
X114795D01*
X11472Y079595D02*
Y079745D01*
X106685Y07953D02*
X106835D01*
X10676Y079455D02*
Y079605D01*
X099255Y07972D02*
X099405D01*
X09933Y079645D02*
Y079795D01*
X119095Y09211D02*
X119245D01*
X11917Y092035D02*
Y092185D01*
X1154745Y0877094D02*
X1156244D01*
X1155494Y0876344D02*
Y0877845D01*
X117855Y08158D02*
X118005D01*
X11793Y081505D02*
Y081655D01*
X100955Y08194D02*
X101105D01*
X10103Y081865D02*
Y082015D01*
X113905Y09566D02*
X114055D01*
X11398Y095585D02*
Y095735D01*
X102995Y08257D02*
X103145D01*
X10307Y082495D02*
Y082645D01*
X113645Y09386D02*
X113795D01*
X11372Y093785D02*
Y093935D01*
X115005Y08204D02*
X115155D01*
X11508Y081965D02*
Y082115D01*
X123425Y09229D02*
X123575D01*
X1235Y092215D02*
Y092365D01*
X122335Y09311D02*
X122485D01*
X12241Y093035D02*
Y093185D01*
X119555Y09244D02*
X119705D01*
X11963Y092365D02*
Y092515D01*
X119075Y09245D02*
X119225D01*
X11915Y092375D02*
Y092525D01*
X118445Y09026D02*
X118595D01*
X11852Y090185D02*
Y090335D01*
X118405Y0897D02*
X118555D01*
X11848Y089625D02*
Y089775D01*
X123885Y09289D02*
X124035D01*
X12396Y092815D02*
Y092965D01*
X124415Y09329D02*
X124565D01*
X12449Y093215D02*
Y093365D01*
X125895Y09325D02*
X126045D01*
X12597Y093175D02*
Y093325D01*
X1249542Y0936992D02*
X1251042D01*
X1250292Y0936242D02*
Y0937742D01*
X120595Y08979D02*
X120745D01*
X12067Y089715D02*
Y089865D01*
X122235Y08678D02*
X122385D01*
X12231Y086705D02*
Y086855D01*
X121405Y09056D02*
X121555D01*
X12148Y090485D02*
Y090635D01*
X126425Y09547D02*
X126575D01*
X1265Y095395D02*
Y095545D01*
M02*
