G04*
G04 #@! TF.GenerationSoftware,Altium Limited,Altium Designer,20.2.6 (244)*
G04*
G04 Layer_Color=255*
%FSTAX25Y25*%
%MOIN*%
G70*
G04*
G04 #@! TF.SameCoordinates,D37F4820-9CCB-4A9C-A827-6EB3CEA44CBB*
G04*
G04*
G04 #@! TF.FilePolarity,Positive*
G04*
G01*
G75*
%ADD75C,0.10000*%
%ADD76O,0.10000X0.06500*%
%ADD77R,0.10000X0.06500*%
%ADD78C,0.05906*%
%ADD79R,0.05906X0.05906*%
%ADD80C,0.09000*%
%ADD81R,0.09000X0.09000*%
%ADD82R,0.07874X0.09843*%
%ADD83C,0.12000*%
%ADD84R,0.07087X0.07087*%
%ADD85C,0.11000*%
%ADD86C,0.09843*%
%ADD87C,0.08500*%
%ADD88R,0.05906X0.05906*%
%ADD89C,0.05984*%
%ADD90R,0.05984X0.05984*%
%ADD91C,0.07000*%
G04:AMPARAMS|DCode=92|XSize=137.8mil|YSize=78.74mil|CornerRadius=19.68mil|HoleSize=0mil|Usage=FLASHONLY|Rotation=0.000|XOffset=0mil|YOffset=0mil|HoleType=Round|Shape=RoundedRectangle|*
%AMROUNDEDRECTD92*
21,1,0.13780,0.03937,0,0,0.0*
21,1,0.09843,0.07874,0,0,0.0*
1,1,0.03937,0.04921,-0.01968*
1,1,0.03937,-0.04921,-0.01968*
1,1,0.03937,-0.04921,0.01968*
1,1,0.03937,0.04921,0.01968*
%
%ADD92ROUNDEDRECTD92*%
%ADD93R,0.13780X0.09843*%
%ADD94R,0.09843X0.13780*%
G04:AMPARAMS|DCode=95|XSize=100mil|YSize=100mil|CornerRadius=25mil|HoleSize=0mil|Usage=FLASHONLY|Rotation=90.000|XOffset=0mil|YOffset=0mil|HoleType=Round|Shape=RoundedRectangle|*
%AMROUNDEDRECTD95*
21,1,0.10000,0.05000,0,0,90.0*
21,1,0.05000,0.10000,0,0,90.0*
1,1,0.05000,0.02500,0.02500*
1,1,0.05000,0.02500,-0.02500*
1,1,0.05000,-0.02500,-0.02500*
1,1,0.05000,-0.02500,0.02500*
%
%ADD95ROUNDEDRECTD95*%
G04:AMPARAMS|DCode=96|XSize=100mil|YSize=100mil|CornerRadius=12.5mil|HoleSize=0mil|Usage=FLASHONLY|Rotation=90.000|XOffset=0mil|YOffset=0mil|HoleType=Round|Shape=RoundedRectangle|*
%AMROUNDEDRECTD96*
21,1,0.10000,0.07500,0,0,90.0*
21,1,0.07500,0.10000,0,0,90.0*
1,1,0.02500,0.03750,0.03750*
1,1,0.02500,0.03750,-0.03750*
1,1,0.02500,-0.03750,-0.03750*
1,1,0.02500,-0.03750,0.03750*
%
%ADD96ROUNDEDRECTD96*%
%ADD97R,0.05984X0.05984*%
G04:AMPARAMS|DCode=100|XSize=50mil|YSize=100mil|CornerRadius=6.25mil|HoleSize=0mil|Usage=FLASHONLY|Rotation=270.000|XOffset=0mil|YOffset=0mil|HoleType=Round|Shape=RoundedRectangle|*
%AMROUNDEDRECTD100*
21,1,0.05000,0.08750,0,0,270.0*
21,1,0.03750,0.10000,0,0,270.0*
1,1,0.01250,-0.04375,-0.01875*
1,1,0.01250,-0.04375,0.01875*
1,1,0.01250,0.04375,0.01875*
1,1,0.01250,0.04375,-0.01875*
%
%ADD100ROUNDEDRECTD100*%
G04:AMPARAMS|DCode=101|XSize=80mil|YSize=100mil|CornerRadius=10mil|HoleSize=0mil|Usage=FLASHONLY|Rotation=270.000|XOffset=0mil|YOffset=0mil|HoleType=Round|Shape=RoundedRectangle|*
%AMROUNDEDRECTD101*
21,1,0.08000,0.08000,0,0,270.0*
21,1,0.06000,0.10000,0,0,270.0*
1,1,0.02000,-0.04000,-0.03000*
1,1,0.02000,-0.04000,0.03000*
1,1,0.02000,0.04000,0.03000*
1,1,0.02000,0.04000,-0.03000*
%
%ADD101ROUNDEDRECTD101*%
D75*
X11399Y0949533D02*
D03*
X11249D02*
D03*
X11699D02*
D03*
X11549D02*
D03*
X11099D02*
D03*
X11399D02*
D03*
X11249D02*
D03*
X1224101D02*
D03*
X1209101D02*
D03*
X1194101D02*
D03*
D76*
X1094Y09721D02*
D03*
D77*
Y09621D02*
D03*
D78*
X12078Y08286D02*
D03*
X12178D02*
D03*
X12278D02*
D03*
X12378D02*
D03*
X13082Y09096D02*
D03*
Y08996D02*
D03*
Y08896D02*
D03*
Y08796D02*
D03*
Y08696D02*
D03*
Y08596D02*
D03*
Y08496D02*
D03*
X11518Y09621D02*
D03*
X11418D02*
D03*
X11318D02*
D03*
X11218D02*
D03*
X11202Y09024D02*
D03*
X11302D02*
D03*
X11402D02*
D03*
X11502D02*
D03*
D79*
X12478Y08286D02*
D03*
X11118Y09621D02*
D03*
X11102Y09024D02*
D03*
D80*
X10907Y09103D02*
D03*
Y08493D02*
D03*
X09747Y08698D02*
D03*
D81*
Y08898D02*
D03*
D82*
X10182Y09323D02*
D03*
X10382D02*
D03*
D83*
X12321Y0688D02*
D03*
X12801D02*
D03*
X1256478Y0743905D02*
D03*
X11511Y06878D02*
D03*
X11991D02*
D03*
X1175478Y0743706D02*
D03*
X10723Y06879D02*
D03*
X11203D02*
D03*
X1096678Y0743806D02*
D03*
X09924Y06882D02*
D03*
X10404D02*
D03*
X1016778Y0744105D02*
D03*
X1232856Y0736031D02*
D03*
X12801D02*
D03*
X1151856Y0735831D02*
D03*
X11991D02*
D03*
X1073056Y0735931D02*
D03*
X11203D02*
D03*
X0993156Y0736232D02*
D03*
X10404D02*
D03*
D84*
X12161Y06765D02*
D03*
X12156Y07445D02*
D03*
Y07145D02*
D03*
X12161Y07065D02*
D03*
X11347Y0677D02*
D03*
X11352Y07443D02*
D03*
Y07143D02*
D03*
X11347Y0707D02*
D03*
X10578Y06895D02*
D03*
X1058Y07495D02*
D03*
X09783Y06781D02*
D03*
X09786Y07457D02*
D03*
Y07157D02*
D03*
X09783Y07081D02*
D03*
D85*
X12096Y06566D02*
D03*
X1249862Y0656862D02*
D03*
X1229862D02*
D03*
X11473Y06563D02*
D03*
X1187562Y0656562D02*
D03*
X1167562D02*
D03*
X1085699Y06563D02*
D03*
X1125961Y0656562D02*
D03*
X1105961D02*
D03*
X1023538Y0656338D02*
D03*
X10638Y06566D02*
D03*
X10438D02*
D03*
D86*
X1058Y07195D02*
D03*
X10578Y07195D02*
D03*
D87*
X11402Y08512D02*
D03*
X11102D02*
D03*
X11402Y08394D02*
D03*
X11102D02*
D03*
D88*
X13082Y09196D02*
D03*
D89*
X11406Y09144D02*
D03*
X11306D02*
D03*
X11206D02*
D03*
X11408Y09254D02*
D03*
X11308D02*
D03*
X11208D02*
D03*
X1211Y09684D02*
D03*
X1221D02*
D03*
X1231D02*
D03*
X11256Y09722D02*
D03*
X11356D02*
D03*
X11456D02*
D03*
X13084Y08315D02*
D03*
Y08215D02*
D03*
Y08115D02*
D03*
D90*
X11106Y09144D02*
D03*
X11108Y09254D02*
D03*
X1201Y09684D02*
D03*
X11156Y09722D02*
D03*
D91*
X1145701Y0873095D02*
D03*
X1145701Y0863095D02*
D03*
X1109998Y0873095D02*
D03*
X1109998Y0863095D02*
D03*
X1121899Y0873095D02*
D03*
X1121899Y0863095D02*
D03*
X11338D02*
D03*
X11338Y0873095D02*
D03*
D92*
X10281Y0945678D02*
D03*
D93*
Y09693D02*
D03*
D94*
X1009596Y0957489D02*
D03*
D95*
X10949Y0949533D02*
D03*
D96*
X1239101D02*
D03*
D97*
X13084Y08015D02*
D03*
D100*
X10635Y09533D02*
D03*
Y09693D02*
D03*
X0993Y09501D02*
D03*
Y09661D02*
D03*
D101*
X10635Y09613D02*
D03*
X0993Y09581D02*
D03*
M02*
