G04*
G04 #@! TF.GenerationSoftware,Altium Limited,Altium Designer,20.2.6 (244)*
G04*
G04 Layer_Color=2752767*
%FSTAX25Y25*%
%MOIN*%
G70*
G04*
G04 #@! TF.SameCoordinates,D37F4820-9CCB-4A9C-A827-6EB3CEA44CBB*
G04*
G04*
G04 #@! TF.FilePolarity,Positive*
G04*
G01*
G75*
%ADD15C,0.00500*%
%ADD16C,0.00400*%
%ADD108C,0.00667*%
D15*
X11379Y0947533D02*
Y0951533D01*
X11419D01*
Y0947533D01*
X11379D01*
X11229D02*
Y0951533D01*
X11269D01*
Y0947533D01*
X11229D01*
X11679D02*
Y0951533D01*
X11719D01*
Y0947533D01*
X11679D01*
X11529D02*
Y0951533D01*
X11569D01*
Y0947533D01*
X11529D01*
X12078Y08266D02*
X12058Y08306D01*
X12098D01*
X12078Y08266D01*
X12178D02*
X12158Y08306D01*
X12198D01*
X12178Y08266D01*
X12278D02*
X12258Y08306D01*
X12298D01*
X12278Y08266D01*
X12378D02*
X12358Y08306D01*
X12398D01*
X12378Y08266D01*
X12478D02*
X12458Y08306D01*
X12498D01*
X12478Y08266D01*
X10907Y09083D02*
X10917Y09093D01*
X10927D01*
X10917Y09103D01*
X10927Y09113D01*
X10917D01*
X10907Y09123D01*
X10897Y09113D01*
X10887D01*
X10897Y09103D01*
X10887Y09093D01*
X10897D01*
X10907Y09083D01*
Y08473D02*
X10917Y08483D01*
X10927D01*
X10917Y08493D01*
X10927Y08503D01*
X10917D01*
X10907Y08513D01*
X10897Y08503D01*
X10887D01*
X10897Y08493D01*
X10887Y08483D01*
X10897D01*
X10907Y08473D01*
X09747Y08678D02*
X09757Y08688D01*
X09767D01*
X09757Y08698D01*
X09767Y08708D01*
X09757D01*
X09747Y08718D01*
X09737Y08708D01*
X09727D01*
X09737Y08698D01*
X09727Y08688D01*
X09737D01*
X09747Y08678D01*
Y08878D02*
X09757Y08888D01*
X09767D01*
X09757Y08898D01*
X09767Y08908D01*
X09757D01*
X09747Y08918D01*
X09737Y08908D01*
X09727D01*
X09737Y08898D01*
X09727Y08888D01*
X09737D01*
X09747Y08878D01*
X10162Y09303D02*
X10172Y09323D01*
X10162Y09343D01*
X10182Y09333D01*
X10202Y09343D01*
X10192Y09323D01*
X10202Y09303D01*
X10182Y09313D01*
X10162Y09303D01*
X10362D02*
X10372Y09323D01*
X10362Y09343D01*
X10382Y09333D01*
X10402Y09343D01*
X10392Y09323D01*
X10402Y09303D01*
X10382Y09313D01*
X10362Y09303D01*
X12311Y0687D02*
Y0686D01*
X12331D01*
Y0687D01*
X12341D01*
Y0689D01*
X12331D01*
Y069D01*
X12311D01*
Y0689D01*
X12301D01*
Y0687D01*
X12311D01*
X12141Y06745D02*
X12151D01*
X12161Y06755D01*
X12171Y06745D01*
X12181D01*
Y06755D01*
X12171Y06765D01*
X12181Y06775D01*
Y06785D01*
X12171D01*
X12161Y06775D01*
X12151Y06785D01*
X12141D01*
Y06775D01*
X12151Y06765D01*
X12141Y06755D01*
Y06745D01*
X12076Y06566D02*
X12096Y06586D01*
X12116Y06566D01*
X12096Y06546D01*
X12076Y06566D01*
X12791Y0687D02*
Y0686D01*
X12811D01*
Y0687D01*
X12821D01*
Y0689D01*
X12811D01*
Y069D01*
X12791D01*
Y0689D01*
X12781D01*
Y0687D01*
X12791D01*
X12156Y07425D02*
X12136Y07465D01*
X12176D01*
X12156Y07425D01*
X1247862Y0656862D02*
X1249862Y0658862D01*
X1251862Y0656862D01*
X1249862Y0654862D01*
X1247862Y0656862D01*
X1255478Y0742906D02*
Y0741905D01*
X1257478D01*
Y0742906D01*
X1258478D01*
Y0744906D01*
X1257478D01*
Y0745905D01*
X1255478D01*
Y0744906D01*
X1254478D01*
Y0742906D01*
X1255478D01*
X1227862Y0656862D02*
X1229862Y0658862D01*
X1231862Y0656862D01*
X1229862Y0654862D01*
X1227862Y0656862D01*
X12156Y07125D02*
X12136Y07165D01*
X12176D01*
X12156Y07125D01*
X12141Y07045D02*
X12151D01*
X12161Y07055D01*
X12171Y07045D01*
X12181D01*
Y07055D01*
X12171Y07065D01*
X12181Y07075D01*
Y07085D01*
X12171D01*
X12161Y07075D01*
X12151Y07085D01*
X12141D01*
Y07075D01*
X12151Y07065D01*
X12141Y07055D01*
Y07045D01*
X11501Y06868D02*
Y06858D01*
X11521D01*
Y06868D01*
X11531D01*
Y06888D01*
X11521D01*
Y06898D01*
X11501D01*
Y06888D01*
X11491D01*
Y06868D01*
X11501D01*
X11327Y0675D02*
X11337D01*
X11347Y0676D01*
X11357Y0675D01*
X11367D01*
Y0676D01*
X11357Y0677D01*
X11367Y0678D01*
Y0679D01*
X11357D01*
X11347Y0678D01*
X11337Y0679D01*
X11327D01*
Y0678D01*
X11337Y0677D01*
X11327Y0676D01*
Y0675D01*
X11453Y06563D02*
X11473Y06583D01*
X11493Y06563D01*
X11473Y06543D01*
X11453Y06563D01*
X11981Y06868D02*
Y06858D01*
X12001D01*
Y06868D01*
X12011D01*
Y06888D01*
X12001D01*
Y06898D01*
X11981D01*
Y06888D01*
X11971D01*
Y06868D01*
X11981D01*
X11352Y07423D02*
X11332Y07463D01*
X11372D01*
X11352Y07423D01*
X1185562Y0656562D02*
X1187562Y0658562D01*
X1189562Y0656562D01*
X1187562Y0654562D01*
X1185562Y0656562D01*
X1174478Y0742705D02*
Y0741706D01*
X1176478D01*
Y0742705D01*
X1177478D01*
Y0744705D01*
X1176478D01*
Y0745706D01*
X1174478D01*
Y0744705D01*
X1173478D01*
Y0742705D01*
X1174478D01*
X1165562Y0656562D02*
X1167562Y0658562D01*
X1169562Y0656562D01*
X1167562Y0654562D01*
X1165562Y0656562D01*
X11352Y07123D02*
X11332Y07163D01*
X11372D01*
X11352Y07123D01*
X11327Y0705D02*
X11337D01*
X11347Y0706D01*
X11357Y0705D01*
X11367D01*
Y0706D01*
X11357Y0707D01*
X11367Y0708D01*
Y0709D01*
X11357D01*
X11347Y0708D01*
X11337Y0709D01*
X11327D01*
Y0708D01*
X11337Y0707D01*
X11327Y0706D01*
Y0705D01*
X1083699Y06563D02*
X1085699Y06583D01*
X1087699Y06563D01*
X1085699Y06543D01*
X1083699Y06563D01*
X10558Y06875D02*
X10568D01*
X10578Y06885D01*
X10588Y06875D01*
X10598D01*
Y06885D01*
X10588Y06895D01*
X10598Y06905D01*
Y06915D01*
X10588D01*
X10578Y06905D01*
X10568Y06915D01*
X10558D01*
Y06905D01*
X10568Y06895D01*
X10558Y06885D01*
Y06875D01*
X10713Y06869D02*
Y06859D01*
X10733D01*
Y06869D01*
X10743D01*
Y06889D01*
X10733D01*
Y06899D01*
X10713D01*
Y06889D01*
X10703D01*
Y06869D01*
X10713D01*
X1123961Y0656562D02*
X1125961Y0658562D01*
X1127961Y0656562D01*
X1125961Y0654562D01*
X1123961Y0656562D01*
X1058Y07475D02*
X1056Y07515D01*
X106D01*
X1058Y07475D01*
X11193Y06869D02*
Y06859D01*
X11213D01*
Y06869D01*
X11223D01*
Y06889D01*
X11213D01*
Y06899D01*
X11193D01*
Y06889D01*
X11183D01*
Y06869D01*
X11193D01*
X1095678Y0742805D02*
Y0741806D01*
X1097678D01*
Y0742805D01*
X1098678D01*
Y0744805D01*
X1097678D01*
Y0745806D01*
X1095678D01*
Y0744805D01*
X1094678D01*
Y0742805D01*
X1095678D01*
X1103961Y0656562D02*
X1105961Y0658562D01*
X1107961Y0656562D01*
X1105961Y0654562D01*
X1103961Y0656562D01*
X1056Y07175D02*
Y07215D01*
X106D01*
Y07175D01*
X1056D01*
X10568Y07183D02*
Y07207D01*
X10592D01*
Y07183D01*
X10568D01*
X10558Y07175D02*
Y07215D01*
X10598D01*
Y07175D01*
X10558D01*
X10566Y07183D02*
Y07207D01*
X1059D01*
Y07183D01*
X10566D01*
X1021538Y0656338D02*
X1023538Y0658338D01*
X1025538Y0656338D01*
X1023538Y0654338D01*
X1021538Y0656338D01*
X09914Y06872D02*
Y06862D01*
X09934D01*
Y06872D01*
X09944D01*
Y06892D01*
X09934D01*
Y06902D01*
X09914D01*
Y06892D01*
X09904D01*
Y06872D01*
X09914D01*
X09763Y06761D02*
X09773D01*
X09783Y06771D01*
X09793Y06761D01*
X09803D01*
Y06771D01*
X09793Y06781D01*
X09803Y06791D01*
Y06801D01*
X09793D01*
X09783Y06791D01*
X09773Y06801D01*
X09763D01*
Y06791D01*
X09773Y06781D01*
X09763Y06771D01*
Y06761D01*
X10618Y06566D02*
X10638Y06586D01*
X10658Y06566D01*
X10638Y06546D01*
X10618Y06566D01*
X09786Y07437D02*
X09766Y07477D01*
X09806D01*
X09786Y07437D01*
X10394Y06872D02*
Y06862D01*
X10414D01*
Y06872D01*
X10424D01*
Y06892D01*
X10414D01*
Y06902D01*
X10394D01*
Y06892D01*
X10384D01*
Y06872D01*
X10394D01*
X10418Y06566D02*
X10438Y06586D01*
X10458Y06566D01*
X10438Y06546D01*
X10418Y06566D01*
X1015778Y0743106D02*
Y0742105D01*
X1017778D01*
Y0743106D01*
X1018778D01*
Y0745106D01*
X1017778D01*
Y0746105D01*
X1015778D01*
Y0745106D01*
X1014778D01*
Y0743106D01*
X1015778D01*
X09786Y07137D02*
X09766Y07177D01*
X09806D01*
X09786Y07137D01*
X09763Y07061D02*
X09773D01*
X09783Y07071D01*
X09793Y07061D01*
X09803D01*
Y07071D01*
X09793Y07081D01*
X09803Y07091D01*
Y07101D01*
X09793D01*
X09783Y07091D01*
X09773Y07101D01*
X09763D01*
Y07091D01*
X09773Y07081D01*
X09763Y07071D01*
Y07061D01*
X13082Y09176D02*
X13062Y09216D01*
X13102D01*
X13082Y09176D01*
Y09076D02*
X13062Y09116D01*
X13102D01*
X13082Y09076D01*
Y08976D02*
X13062Y09016D01*
X13102D01*
X13082Y08976D01*
Y08876D02*
X13062Y08916D01*
X13102D01*
X13082Y08876D01*
Y08776D02*
X13062Y08816D01*
X13102D01*
X13082Y08776D01*
Y08676D02*
X13062Y08716D01*
X13102D01*
X13082Y08676D01*
Y08576D02*
X13062Y08616D01*
X13102D01*
X13082Y08576D01*
Y08476D02*
X13062Y08516D01*
X13102D01*
X13082Y08476D01*
X12924Y06462D02*
X12904Y06502D01*
X12944D01*
X12924Y06462D01*
Y0647D02*
X12912Y06494D01*
X12936D01*
X12924Y0647D01*
X1231856Y0735032D02*
Y0734031D01*
X1233856D01*
Y0735032D01*
X1234856D01*
Y0737032D01*
X1233856D01*
Y0738031D01*
X1231856D01*
Y0737032D01*
X1230856D01*
Y0735032D01*
X1231856D01*
X12791D02*
Y0734031D01*
X12811D01*
Y0735032D01*
X12821D01*
Y0737032D01*
X12811D01*
Y0738031D01*
X12791D01*
Y0737032D01*
X12781D01*
Y0735032D01*
X12791D01*
X1150856Y0734831D02*
Y0733832D01*
X1152856D01*
Y0734831D01*
X1153856D01*
Y0736832D01*
X1152856D01*
Y0737831D01*
X1150856D01*
Y0736832D01*
X1149856D01*
Y0734831D01*
X1150856D01*
X11981D02*
Y0733832D01*
X12001D01*
Y0734831D01*
X12011D01*
Y0736832D01*
X12001D01*
Y0737831D01*
X11981D01*
Y0736832D01*
X11971D01*
Y0734831D01*
X11981D01*
X1072056Y0734932D02*
Y0733931D01*
X1074056D01*
Y0734932D01*
X1075056D01*
Y0736932D01*
X1074056D01*
Y0737931D01*
X1072056D01*
Y0736932D01*
X1071056D01*
Y0734932D01*
X1072056D01*
X11193D02*
Y0733931D01*
X11213D01*
Y0734932D01*
X11223D01*
Y0736932D01*
X11213D01*
Y0737931D01*
X11193D01*
Y0736932D01*
X11183D01*
Y0734932D01*
X11193D01*
X0992156Y0735231D02*
Y0734232D01*
X0994156D01*
Y0735231D01*
X0995156D01*
Y0737231D01*
X0994156D01*
Y0738232D01*
X0992156D01*
Y0737231D01*
X0991156D01*
Y0735231D01*
X0992156D01*
X10394D02*
Y0734232D01*
X10414D01*
Y0735231D01*
X10424D01*
Y0737231D01*
X10414D01*
Y0738232D01*
X10394D01*
Y0737231D01*
X10384D01*
Y0735231D01*
X10394D01*
X11386Y09124D02*
X11396D01*
X11406Y09134D01*
X11416Y09124D01*
X11426D01*
Y09134D01*
X11416Y09144D01*
X11426Y09154D01*
Y09164D01*
X11416D01*
X11406Y09154D01*
X11396Y09164D01*
X11386D01*
Y09154D01*
X11396Y09144D01*
X11386Y09134D01*
Y09124D01*
X11286D02*
X11296D01*
X11306Y09134D01*
X11316Y09124D01*
X11326D01*
Y09134D01*
X11316Y09144D01*
X11326Y09154D01*
Y09164D01*
X11316D01*
X11306Y09154D01*
X11296Y09164D01*
X11286D01*
Y09154D01*
X11296Y09144D01*
X11286Y09134D01*
Y09124D01*
X11186D02*
X11196D01*
X11206Y09134D01*
X11216Y09124D01*
X11226D01*
Y09134D01*
X11216Y09144D01*
X11226Y09154D01*
Y09164D01*
X11216D01*
X11206Y09154D01*
X11196Y09164D01*
X11186D01*
Y09154D01*
X11196Y09144D01*
X11186Y09134D01*
Y09124D01*
X11086D02*
X11096D01*
X11106Y09134D01*
X11116Y09124D01*
X11126D01*
Y09134D01*
X11116Y09144D01*
X11126Y09154D01*
Y09164D01*
X11116D01*
X11106Y09154D01*
X11096Y09164D01*
X11086D01*
Y09154D01*
X11096Y09144D01*
X11086Y09134D01*
Y09124D01*
X11498Y09601D02*
X11508D01*
X11518Y09611D01*
X11528Y09601D01*
X11538D01*
Y09611D01*
X11528Y09621D01*
X11538Y09631D01*
Y09641D01*
X11528D01*
X11518Y09631D01*
X11508Y09641D01*
X11498D01*
Y09631D01*
X11508Y09621D01*
X11498Y09611D01*
Y09601D01*
X11398D02*
X11408D01*
X11418Y09611D01*
X11428Y09601D01*
X11438D01*
Y09611D01*
X11428Y09621D01*
X11438Y09631D01*
Y09641D01*
X11428D01*
X11418Y09631D01*
X11408Y09641D01*
X11398D01*
Y09631D01*
X11408Y09621D01*
X11398Y09611D01*
Y09601D01*
X11298D02*
X11308D01*
X11318Y09611D01*
X11328Y09601D01*
X11338D01*
Y09611D01*
X11328Y09621D01*
X11338Y09631D01*
Y09641D01*
X11328D01*
X11318Y09631D01*
X11308Y09641D01*
X11298D01*
Y09631D01*
X11308Y09621D01*
X11298Y09611D01*
Y09601D01*
X11198D02*
X11208D01*
X11218Y09611D01*
X11228Y09601D01*
X11238D01*
Y09611D01*
X11228Y09621D01*
X11238Y09631D01*
Y09641D01*
X11228D01*
X11218Y09631D01*
X11208Y09641D01*
X11198D01*
Y09631D01*
X11208Y09621D01*
X11198Y09611D01*
Y09601D01*
X11098D02*
X11108D01*
X11118Y09611D01*
X11128Y09601D01*
X11138D01*
Y09611D01*
X11128Y09621D01*
X11138Y09631D01*
Y09641D01*
X11128D01*
X11118Y09631D01*
X11108Y09641D01*
X11098D01*
Y09631D01*
X11108Y09621D01*
X11098Y09611D01*
Y09601D01*
X1143701Y0871095D02*
X1144701D01*
X1145701Y0872095D01*
X1146701Y0871095D01*
X1147701D01*
Y0872095D01*
X1146701Y0873095D01*
X1147701Y0874095D01*
Y0875095D01*
X1146701D01*
X1145701Y0874095D01*
X1144701Y0875095D01*
X1143701D01*
Y0874095D01*
X1144701Y0873095D01*
X1143701Y0872095D01*
Y0871095D01*
X1143701Y0861095D02*
X1144701D01*
X1145701Y0862095D01*
X1146701Y0861095D01*
X1147701D01*
Y0862095D01*
X1146701Y0863095D01*
X1147701Y0864095D01*
Y0865095D01*
X1146701D01*
X1145701Y0864095D01*
X1144701Y0865095D01*
X1143701D01*
Y0864095D01*
X1144701Y0863095D01*
X1143701Y0862095D01*
Y0861095D01*
X1107998Y0871095D02*
X1108998D01*
X1109998Y0872095D01*
X1110998Y0871095D01*
X1111998D01*
Y0872095D01*
X1110998Y0873095D01*
X1111998Y0874095D01*
Y0875095D01*
X1110998D01*
X1109998Y0874095D01*
X1108998Y0875095D01*
X1107998D01*
Y0874095D01*
X1108998Y0873095D01*
X1107998Y0872095D01*
Y0871095D01*
X1107998Y0861095D02*
X1108998D01*
X1109998Y0862095D01*
X1110998Y0861095D01*
X1111998D01*
Y0862095D01*
X1110998Y0863095D01*
X1111998Y0864095D01*
Y0865095D01*
X1110998D01*
X1109998Y0864095D01*
X1108998Y0865095D01*
X1107998D01*
Y0864095D01*
X1108998Y0863095D01*
X1107998Y0862095D01*
Y0861095D01*
X1119899Y0871095D02*
X1120899D01*
X1121899Y0872095D01*
X1122899Y0871095D01*
X1123899D01*
Y0872095D01*
X1122899Y0873095D01*
X1123899Y0874095D01*
Y0875095D01*
X1122899D01*
X1121899Y0874095D01*
X1120899Y0875095D01*
X1119899D01*
Y0874095D01*
X1120899Y0873095D01*
X1119899Y0872095D01*
Y0871095D01*
X1119899Y0861095D02*
X1120899D01*
X1121899Y0862095D01*
X1122899Y0861095D01*
X1123899D01*
Y0862095D01*
X1122899Y0863095D01*
X1123899Y0864095D01*
Y0865095D01*
X1122899D01*
X1121899Y0864095D01*
X1120899Y0865095D01*
X1119899D01*
Y0864095D01*
X1120899Y0863095D01*
X1119899Y0862095D01*
Y0861095D01*
X11318D02*
X11328D01*
X11338Y0862095D01*
X11348Y0861095D01*
X11358D01*
Y0862095D01*
X11348Y0863095D01*
X11358Y0864095D01*
Y0865095D01*
X11348D01*
X11338Y0864095D01*
X11328Y0865095D01*
X11318D01*
Y0864095D01*
X11328Y0863095D01*
X11318Y0862095D01*
Y0861095D01*
X11318Y0871095D02*
X11328D01*
X11338Y0872095D01*
X11348Y0871095D01*
X11358D01*
Y0872095D01*
X11348Y0873095D01*
X11358Y0874095D01*
Y0875095D01*
X11348D01*
X11338Y0874095D01*
X11328Y0875095D01*
X11318D01*
Y0874095D01*
X11328Y0873095D01*
X11318Y0872095D01*
Y0871095D01*
X11388Y09234D02*
X11398D01*
X11408Y09244D01*
X11418Y09234D01*
X11428D01*
Y09244D01*
X11418Y09254D01*
X11428Y09264D01*
Y09274D01*
X11418D01*
X11408Y09264D01*
X11398Y09274D01*
X11388D01*
Y09264D01*
X11398Y09254D01*
X11388Y09244D01*
Y09234D01*
X11288D02*
X11298D01*
X11308Y09244D01*
X11318Y09234D01*
X11328D01*
Y09244D01*
X11318Y09254D01*
X11328Y09264D01*
Y09274D01*
X11318D01*
X11308Y09264D01*
X11298Y09274D01*
X11288D01*
Y09264D01*
X11298Y09254D01*
X11288Y09244D01*
Y09234D01*
X11188D02*
X11198D01*
X11208Y09244D01*
X11218Y09234D01*
X11228D01*
Y09244D01*
X11218Y09254D01*
X11228Y09264D01*
Y09274D01*
X11218D01*
X11208Y09264D01*
X11198Y09274D01*
X11188D01*
Y09264D01*
X11198Y09254D01*
X11188Y09244D01*
Y09234D01*
X11088D02*
X11098D01*
X11108Y09244D01*
X11118Y09234D01*
X11128D01*
Y09244D01*
X11118Y09254D01*
X11128Y09264D01*
Y09274D01*
X11118D01*
X11108Y09264D01*
X11098Y09274D01*
X11088D01*
Y09264D01*
X11098Y09254D01*
X11088Y09244D01*
Y09234D01*
X10281Y0943678D02*
X10291Y0944678D01*
X10301D01*
X10291Y0945678D01*
X10301Y0946678D01*
X10291D01*
X10281Y0947678D01*
X10271Y0946678D01*
X10261D01*
X10271Y0945678D01*
X10261Y0944678D01*
X10271D01*
X10281Y0943678D01*
Y0944478D02*
X10287Y0945078D01*
X10293D01*
X10287Y0945678D01*
X10293Y0946278D01*
X10287D01*
X10281Y0946878D01*
X10275Y0946278D01*
X10269D01*
X10275Y0945678D01*
X10269Y0945078D01*
X10275D01*
X10281Y0944478D01*
X10261Y09673D02*
X10271Y09693D01*
X10261Y09713D01*
X10281Y09703D01*
X10301Y09713D01*
X10291Y09693D01*
X10301Y09673D01*
X10281Y09683D01*
X10261Y09673D01*
X10269Y09681D02*
X10275Y09693D01*
X10269Y09705D01*
X10281Y09699D01*
X10293Y09705D01*
X10287Y09693D01*
X10293Y09681D01*
X10281Y09687D01*
X10269Y09681D01*
X1008596Y0956489D02*
Y0955489D01*
X1010596D01*
Y0956489D01*
X1011596D01*
Y0958489D01*
X1010596D01*
Y0959489D01*
X1008596D01*
Y0958489D01*
X1007596D01*
Y0956489D01*
X1008596D01*
X1008996Y0956889D02*
Y0956289D01*
X1010196D01*
Y0956889D01*
X1010796D01*
Y0958089D01*
X1010196D01*
Y0958689D01*
X1008996D01*
Y0958089D01*
X1008396D01*
Y0956889D01*
X1008996D01*
X11079Y0947533D02*
Y0951533D01*
X11119D01*
Y0947533D01*
X11079D01*
X10929D02*
Y0951533D01*
X10969D01*
Y0947533D01*
X10929D01*
X11379D02*
Y0951533D01*
X11419D01*
Y0947533D01*
X11379D01*
X11229D02*
Y0951533D01*
X11269D01*
Y0947533D01*
X11229D01*
X1237101D02*
Y0951533D01*
X1241101D01*
Y0947533D01*
X1237101D01*
X1222101D02*
Y0951533D01*
X1226101D01*
Y0947533D01*
X1222101D01*
X1207101D02*
Y0951533D01*
X1211101D01*
Y0947533D01*
X1207101D01*
X1192101D02*
Y0951533D01*
X1196101D01*
Y0947533D01*
X1192101D01*
X1199Y09664D02*
X12D01*
X1201Y09674D01*
X1202Y09664D01*
X1203D01*
Y09674D01*
X1202Y09684D01*
X1203Y09694D01*
Y09704D01*
X1202D01*
X1201Y09694D01*
X12Y09704D01*
X1199D01*
Y09694D01*
X12Y09684D01*
X1199Y09674D01*
Y09664D01*
X1209D02*
X121D01*
X1211Y09674D01*
X1212Y09664D01*
X1213D01*
Y09674D01*
X1212Y09684D01*
X1213Y09694D01*
Y09704D01*
X1212D01*
X1211Y09694D01*
X121Y09704D01*
X1209D01*
Y09694D01*
X121Y09684D01*
X1209Y09674D01*
Y09664D01*
X1219D02*
X122D01*
X1221Y09674D01*
X1222Y09664D01*
X1223D01*
Y09674D01*
X1222Y09684D01*
X1223Y09694D01*
Y09704D01*
X1222D01*
X1221Y09694D01*
X122Y09704D01*
X1219D01*
Y09694D01*
X122Y09684D01*
X1219Y09674D01*
Y09664D01*
X1229D02*
X123D01*
X1231Y09674D01*
X1232Y09664D01*
X1233D01*
Y09674D01*
X1232Y09684D01*
X1233Y09694D01*
Y09704D01*
X1232D01*
X1231Y09694D01*
X123Y09704D01*
X1229D01*
Y09694D01*
X123Y09684D01*
X1229Y09674D01*
Y09664D01*
X11136Y09702D02*
X11146D01*
X11156Y09712D01*
X11166Y09702D01*
X11176D01*
Y09712D01*
X11166Y09722D01*
X11176Y09732D01*
Y09742D01*
X11166D01*
X11156Y09732D01*
X11146Y09742D01*
X11136D01*
Y09732D01*
X11146Y09722D01*
X11136Y09712D01*
Y09702D01*
X11236D02*
X11246D01*
X11256Y09712D01*
X11266Y09702D01*
X11276D01*
Y09712D01*
X11266Y09722D01*
X11276Y09732D01*
Y09742D01*
X11266D01*
X11256Y09732D01*
X11246Y09742D01*
X11236D01*
Y09732D01*
X11246Y09722D01*
X11236Y09712D01*
Y09702D01*
X11336D02*
X11346D01*
X11356Y09712D01*
X11366Y09702D01*
X11376D01*
Y09712D01*
X11366Y09722D01*
X11376Y09732D01*
Y09742D01*
X11366D01*
X11356Y09732D01*
X11346Y09742D01*
X11336D01*
Y09732D01*
X11346Y09722D01*
X11336Y09712D01*
Y09702D01*
X11436D02*
X11446D01*
X11456Y09712D01*
X11466Y09702D01*
X11476D01*
Y09712D01*
X11466Y09722D01*
X11476Y09732D01*
Y09742D01*
X11466D01*
X11456Y09732D01*
X11446Y09742D01*
X11436D01*
Y09732D01*
X11446Y09722D01*
X11436Y09712D01*
Y09702D01*
X11082Y09004D02*
X11092D01*
X11102Y09014D01*
X11112Y09004D01*
X11122D01*
Y09014D01*
X11112Y09024D01*
X11122Y09034D01*
Y09044D01*
X11112D01*
X11102Y09034D01*
X11092Y09044D01*
X11082D01*
Y09034D01*
X11092Y09024D01*
X11082Y09014D01*
Y09004D01*
X11182D02*
X11192D01*
X11202Y09014D01*
X11212Y09004D01*
X11222D01*
Y09014D01*
X11212Y09024D01*
X11222Y09034D01*
Y09044D01*
X11212D01*
X11202Y09034D01*
X11192Y09044D01*
X11182D01*
Y09034D01*
X11192Y09024D01*
X11182Y09014D01*
Y09004D01*
X11282D02*
X11292D01*
X11302Y09014D01*
X11312Y09004D01*
X11322D01*
Y09014D01*
X11312Y09024D01*
X11322Y09034D01*
Y09044D01*
X11312D01*
X11302Y09034D01*
X11292Y09044D01*
X11282D01*
Y09034D01*
X11292Y09024D01*
X11282Y09014D01*
Y09004D01*
X11382D02*
X11392D01*
X11402Y09014D01*
X11412Y09004D01*
X11422D01*
Y09014D01*
X11412Y09024D01*
X11422Y09034D01*
Y09044D01*
X11412D01*
X11402Y09034D01*
X11392Y09044D01*
X11382D01*
Y09034D01*
X11392Y09024D01*
X11382Y09014D01*
Y09004D01*
X11482D02*
X11492D01*
X11502Y09014D01*
X11512Y09004D01*
X11522D01*
Y09014D01*
X11512Y09024D01*
X11522Y09034D01*
Y09044D01*
X11512D01*
X11502Y09034D01*
X11492Y09044D01*
X11482D01*
Y09034D01*
X11492Y09024D01*
X11482Y09014D01*
Y09004D01*
X13064Y08295D02*
X13074D01*
X13084Y08305D01*
X13094Y08295D01*
X13104D01*
Y08305D01*
X13094Y08315D01*
X13104Y08325D01*
Y08335D01*
X13094D01*
X13084Y08325D01*
X13074Y08335D01*
X13064D01*
Y08325D01*
X13074Y08315D01*
X13064Y08305D01*
Y08295D01*
Y08195D02*
X13074D01*
X13084Y08205D01*
X13094Y08195D01*
X13104D01*
Y08205D01*
X13094Y08215D01*
X13104Y08225D01*
Y08235D01*
X13094D01*
X13084Y08225D01*
X13074Y08235D01*
X13064D01*
Y08225D01*
X13074Y08215D01*
X13064Y08205D01*
Y08195D01*
Y08095D02*
X13074D01*
X13084Y08105D01*
X13094Y08095D01*
X13104D01*
Y08105D01*
X13094Y08115D01*
X13104Y08125D01*
Y08135D01*
X13094D01*
X13084Y08125D01*
X13074Y08135D01*
X13064D01*
Y08125D01*
X13074Y08115D01*
X13064Y08105D01*
Y08095D01*
Y07995D02*
X13074D01*
X13084Y08005D01*
X13094Y07995D01*
X13104D01*
Y08005D01*
X13094Y08015D01*
X13104Y08025D01*
Y08035D01*
X13094D01*
X13084Y08025D01*
X13074Y08035D01*
X13064D01*
Y08025D01*
X13074Y08015D01*
X13064Y08005D01*
Y07995D01*
X09675Y06462D02*
X09685D01*
X09695Y06472D01*
X09705Y06462D01*
X09715D01*
Y06472D01*
X09705Y06482D01*
X09715Y06492D01*
Y06502D01*
X09705D01*
X09695Y06492D01*
X09685Y06502D01*
X09675D01*
Y06492D01*
X09685Y06482D01*
X09675Y06472D01*
Y06462D01*
X09683Y0647D02*
X09689D01*
X09695Y06476D01*
X09701Y0647D01*
X09707D01*
Y06476D01*
X09701Y06482D01*
X09707Y06488D01*
Y06494D01*
X09701D01*
X09695Y06488D01*
X09689Y06494D01*
X09683D01*
Y06488D01*
X09689Y06482D01*
X09683Y06476D01*
Y0647D01*
X09695Y09631D02*
Y0966432D01*
X0971166Y0968098D01*
X0972832Y0966432D01*
Y09631D01*
Y0965599D01*
X09695D01*
X13022Y09614D02*
X13032D01*
X13042Y09624D01*
X13052Y09614D01*
X13062D01*
Y09624D01*
X13052Y09634D01*
X13062Y09644D01*
Y09654D01*
X13052D01*
X13042Y09644D01*
X13032Y09654D01*
X13022D01*
Y09644D01*
X13032Y09634D01*
X13022Y09624D01*
Y09614D01*
X1303Y09622D02*
X13036D01*
X13042Y09628D01*
X13048Y09622D01*
X13054D01*
Y09628D01*
X13048Y09634D01*
X13054Y0964D01*
Y09646D01*
X13048D01*
X13042Y0964D01*
X13036Y09646D01*
X1303D01*
Y0964D01*
X13036Y09634D01*
X1303Y09628D01*
Y09622D01*
X11023Y0824648D02*
Y081965D01*
X1104799D01*
X1105632Y0820483D01*
Y0821316D01*
X1104799Y0822149D01*
X11023D01*
X1104799D01*
X1105632Y0822982D01*
Y0823815D01*
X1104799Y0824648D01*
X11023D01*
X1125379Y0842748D02*
X1124546Y0843581D01*
X112288D01*
X1122047Y0842748D01*
Y0839415D01*
X112288Y0838582D01*
X1124546D01*
X1125379Y0839415D01*
X10746Y0825598D02*
Y08206D01*
X1077099D01*
X1077932Y0821433D01*
Y0822266D01*
X1077099Y0823099D01*
X10746D01*
X1077099D01*
X1077932Y0823932D01*
Y0824765D01*
X1077099Y0825598D01*
X10746D01*
X1075078Y0878181D02*
X1074245Y0879014D01*
X1072579D01*
X1071746Y0878181D01*
Y0874848D01*
X1072579Y0874016D01*
X1074245D01*
X1075078Y0874848D01*
X1278922Y0795504D02*
X1278089Y0796337D01*
X1276423D01*
X127559Y0795504D01*
Y0792171D01*
X1276423Y0791338D01*
X1278089D01*
X1278922Y0792171D01*
X1284828Y0783693D02*
X1283995Y0784526D01*
X1282329D01*
X1281496Y0783693D01*
Y078036D01*
X1282329Y0779527D01*
X1283995D01*
X1284828Y078036D01*
X1267111Y0795504D02*
X1266278Y0796337D01*
X1264612D01*
X1263779Y0795504D01*
Y0792171D01*
X1264612Y0791338D01*
X1266278D01*
X1267111Y0792171D01*
X12553Y0960858D02*
X1254467Y0961691D01*
X1252801D01*
X1251968Y0960858D01*
Y0957526D01*
X1252801Y0956693D01*
X1254467D01*
X12553Y0957526D01*
Y0819126D02*
X1254467Y0819959D01*
X1252801D01*
X1251968Y0819126D01*
Y0815793D01*
X1252801Y081496D01*
X1254467D01*
X12553Y0815793D01*
Y0771882D02*
X1254467Y0772715D01*
X1252801D01*
X1251968Y0771882D01*
Y0768549D01*
X1252801Y0767716D01*
X1254467D01*
X12553Y0768549D01*
X1249395Y0972669D02*
X1248562Y0973502D01*
X1246896D01*
X1246063Y0972669D01*
Y0969337D01*
X1246896Y0968504D01*
X1248562D01*
X1249395Y0969337D01*
X1237584Y0807315D02*
X1236751Y0808148D01*
X1235085D01*
X1234252Y0807315D01*
Y0803982D01*
X1235085Y0803149D01*
X1236751D01*
X1237584Y0803982D01*
X1231678Y0771882D02*
X1230845Y0772715D01*
X1229179D01*
X1228346Y0771882D01*
Y0768549D01*
X1229179Y0767716D01*
X1230845D01*
X1231678Y0768549D01*
X1213962Y0807315D02*
X1213129Y0808148D01*
X1211463D01*
X121063Y0807315D01*
Y0803982D01*
X1211463Y0803149D01*
X1213129D01*
X1213962Y0803982D01*
X1208056Y0795504D02*
X1207223Y0796337D01*
X1205557D01*
X1204724Y0795504D01*
Y0792171D01*
X1205557Y0791338D01*
X1207223D01*
X1208056Y0792171D01*
X1213962Y0783693D02*
X1213129Y0784526D01*
X1211463D01*
X121063Y0783693D01*
Y078036D01*
X1211463Y0779527D01*
X1213129D01*
X1213962Y078036D01*
X1196245Y0795504D02*
X1195412Y0796337D01*
X1193746D01*
X1192913Y0795504D01*
Y0792171D01*
X1193746Y0791338D01*
X1195412D01*
X1196245Y0792171D01*
X1202151Y0783693D02*
X1201318Y0784526D01*
X1199652D01*
X1198818Y0783693D01*
Y078036D01*
X1199652Y0779527D01*
X1201318D01*
X1202151Y078036D01*
X1184434Y0960858D02*
X1183601Y0961691D01*
X1181935D01*
X1181102Y0960858D01*
Y0957526D01*
X1181935Y0956693D01*
X1183601D01*
X1184434Y0957526D01*
X119034Y0949047D02*
X1189507Y094988D01*
X1187841D01*
X1187008Y0949047D01*
Y0945715D01*
X1187841Y0944882D01*
X1189507D01*
X119034Y0945715D01*
Y0807315D02*
X1189507Y0808148D01*
X1187841D01*
X1187008Y0807315D01*
Y0803982D01*
X1187841Y0803149D01*
X1189507D01*
X119034Y0803982D01*
X1184434Y0771882D02*
X1183601Y0772715D01*
X1181935D01*
X1181102Y0771882D01*
Y0768549D01*
X1181935Y0767716D01*
X1183601D01*
X1184434Y0768549D01*
X1178529Y0807315D02*
X1177696Y0808148D01*
X117603D01*
X1175196Y0807315D01*
Y0803982D01*
X117603Y0803149D01*
X1177696D01*
X1178529Y0803982D01*
X1172623Y0771882D02*
X117179Y0772715D01*
X1170124D01*
X1169291Y0771882D01*
Y0768549D01*
X1170124Y0767716D01*
X117179D01*
X1172623Y0768549D01*
X1166718Y0949047D02*
X1165885Y094988D01*
X1164219D01*
X1163385Y0949047D01*
Y0945715D01*
X1164219Y0944882D01*
X1165885D01*
X1166718Y0945715D01*
Y0925425D02*
X1165885Y0926258D01*
X1164219D01*
X1163385Y0925425D01*
Y0922093D01*
X1164219Y092126D01*
X1165885D01*
X1166718Y0922093D01*
Y0901803D02*
X1165885Y0902636D01*
X1164219D01*
X1163385Y0901803D01*
Y0898471D01*
X1164219Y0897637D01*
X1165885D01*
X1166718Y0898471D01*
X1160812Y0889992D02*
X1159979Y0890825D01*
X1158313D01*
X115748Y0889992D01*
Y088666D01*
X1158313Y0885826D01*
X1159979D01*
X1160812Y088666D01*
X1166718Y0878181D02*
X1165885Y0879014D01*
X1164219D01*
X1163385Y0878181D01*
Y0874848D01*
X1164219Y0874016D01*
X1165885D01*
X1166718Y0874848D01*
X1160812Y0842748D02*
X1159979Y0843581D01*
X1158313D01*
X115748Y0842748D01*
Y0839415D01*
X1158313Y0838582D01*
X1159979D01*
X1160812Y0839415D01*
Y0819126D02*
X1159979Y0819959D01*
X1158313D01*
X115748Y0819126D01*
Y0815793D01*
X1158313Y081496D01*
X1159979D01*
X1160812Y0815793D01*
X1166718Y0807315D02*
X1165885Y0808148D01*
X1164219D01*
X1163385Y0807315D01*
Y0803982D01*
X1164219Y0803149D01*
X1165885D01*
X1166718Y0803982D01*
X1149001Y0889992D02*
X1148168Y0890825D01*
X1146502D01*
X1145669Y0889992D01*
Y088666D01*
X1146502Y0885826D01*
X1148168D01*
X1149001Y088666D01*
X1154907Y0878181D02*
X1154074Y0879014D01*
X1152407D01*
X1151575Y0878181D01*
Y0874848D01*
X1152407Y0874016D01*
X1154074D01*
X1154907Y0874848D01*
Y0807315D02*
X1154074Y0808148D01*
X1152407D01*
X1151575Y0807315D01*
Y0803982D01*
X1152407Y0803149D01*
X1154074D01*
X1154907Y0803982D01*
X1149001Y0771882D02*
X1148168Y0772715D01*
X1146502D01*
X1145669Y0771882D01*
Y0768549D01*
X1146502Y0767716D01*
X1148168D01*
X1149001Y0768549D01*
X113719Y0913614D02*
X1136357Y0914447D01*
X1134691D01*
X1133858Y0913614D01*
Y0910282D01*
X1134691Y0909449D01*
X1136357D01*
X113719Y0910282D01*
X1143096Y0807315D02*
X1142263Y0808148D01*
X1140596D01*
X1139763Y0807315D01*
Y0803982D01*
X1140596Y0803149D01*
X1142263D01*
X1143096Y0803982D01*
Y0783693D02*
X1142263Y0784526D01*
X1140596D01*
X1139763Y0783693D01*
Y078036D01*
X1140596Y0779527D01*
X1142263D01*
X1143096Y078036D01*
X1131285Y0854559D02*
X1130452Y0855392D01*
X1128786D01*
X1127952Y0854559D01*
Y0851227D01*
X1128786Y0850393D01*
X1130452D01*
X1131285Y0851227D01*
Y0807315D02*
X1130452Y0808148D01*
X1128786D01*
X1127952Y0807315D01*
Y0803982D01*
X1128786Y0803149D01*
X1130452D01*
X1131285Y0803982D01*
X1125379Y0795504D02*
X1124546Y0796337D01*
X112288D01*
X1122047Y0795504D01*
Y0792171D01*
X112288Y0791338D01*
X1124546D01*
X1125379Y0792171D01*
X1131285Y0783693D02*
X1130452Y0784526D01*
X1128786D01*
X1127952Y0783693D01*
Y078036D01*
X1128786Y0779527D01*
X1130452D01*
X1131285Y078036D01*
X1119474Y0949047D02*
X1118641Y094988D01*
X1116975D01*
X1116141Y0949047D01*
Y0945715D01*
X1116975Y0944882D01*
X1118641D01*
X1119474Y0945715D01*
X1113568Y0937236D02*
X1112735Y0938069D01*
X1111069D01*
X1110236Y0937236D01*
Y0933904D01*
X1111069Y0933071D01*
X1112735D01*
X1113568Y0933904D01*
X1119474Y0925425D02*
X1118641Y0926258D01*
X1116975D01*
X1116141Y0925425D01*
Y0922093D01*
X1116975Y092126D01*
X1118641D01*
X1119474Y0922093D01*
Y0901803D02*
X1118641Y0902636D01*
X1116975D01*
X1116141Y0901803D01*
Y0898471D01*
X1116975Y0897637D01*
X1118641D01*
X1119474Y0898471D01*
X1113568Y0889992D02*
X1112735Y0890825D01*
X1111069D01*
X1110236Y0889992D01*
Y088666D01*
X1111069Y0885826D01*
X1112735D01*
X1113568Y088666D01*
X1119474Y0807315D02*
X1118641Y0808148D01*
X1116975D01*
X1116141Y0807315D01*
Y0803982D01*
X1116975Y0803149D01*
X1118641D01*
X1119474Y0803982D01*
X1113568Y0795504D02*
X1112735Y0796337D01*
X1111069D01*
X1110236Y0795504D01*
Y0792171D01*
X1111069Y0791338D01*
X1112735D01*
X1113568Y0792171D01*
X1119474Y0783693D02*
X1118641Y0784526D01*
X1116975D01*
X1116141Y0783693D01*
Y078036D01*
X1116975Y0779527D01*
X1118641D01*
X1119474Y078036D01*
X1101757Y0937236D02*
X1100924Y0938069D01*
X1099258D01*
X1098425Y0937236D01*
Y0933904D01*
X1099258Y0933071D01*
X1100924D01*
X1101757Y0933904D01*
X1107663Y0925425D02*
X110683Y0926258D01*
X1105163D01*
X110433Y0925425D01*
Y0922093D01*
X1105163Y092126D01*
X110683D01*
X1107663Y0922093D01*
X1101757Y0913614D02*
X1100924Y0914447D01*
X1099258D01*
X1098425Y0913614D01*
Y0910282D01*
X1099258Y0909449D01*
X1100924D01*
X1101757Y0910282D01*
X1107663Y0901803D02*
X110683Y0902636D01*
X1105163D01*
X110433Y0901803D01*
Y0898471D01*
X1105163Y0897637D01*
X110683D01*
X1107663Y0898471D01*
X1101757Y0889992D02*
X1100924Y0890825D01*
X1099258D01*
X1098425Y0889992D01*
Y088666D01*
X1099258Y0885826D01*
X1100924D01*
X1101757Y088666D01*
Y086637D02*
X1100924Y0867203D01*
X1099258D01*
X1098425Y086637D01*
Y0863037D01*
X1099258Y0862204D01*
X1100924D01*
X1101757Y0863037D01*
X1107663Y0807315D02*
X110683Y0808148D01*
X1105163D01*
X110433Y0807315D01*
Y0803982D01*
X1105163Y0803149D01*
X110683D01*
X1107663Y0803982D01*
X1101757Y0771882D02*
X1100924Y0772715D01*
X1099258D01*
X1098425Y0771882D01*
Y0768549D01*
X1099258Y0767716D01*
X1100924D01*
X1101757Y0768549D01*
X1095852Y0925425D02*
X1095018Y0926258D01*
X1093352D01*
X1092519Y0925425D01*
Y0922093D01*
X1093352Y092126D01*
X1095018D01*
X1095852Y0922093D01*
Y0901803D02*
X1095018Y0902636D01*
X1093352D01*
X1092519Y0901803D01*
Y0898471D01*
X1093352Y0897637D01*
X1095018D01*
X1095852Y0898471D01*
Y0878181D02*
X1095018Y0879014D01*
X1093352D01*
X1092519Y0878181D01*
Y0874848D01*
X1093352Y0874016D01*
X1095018D01*
X1095852Y0874848D01*
Y0807315D02*
X1095018Y0808148D01*
X1093352D01*
X1092519Y0807315D01*
Y0803982D01*
X1093352Y0803149D01*
X1095018D01*
X1095852Y0803982D01*
X1089946Y0771882D02*
X1089113Y0772715D01*
X1087447D01*
X1086614Y0771882D01*
Y0768549D01*
X1087447Y0767716D01*
X1089113D01*
X1089946Y0768549D01*
X1084041Y0901803D02*
X1083208Y0902636D01*
X1081541D01*
X1080708Y0901803D01*
Y0898471D01*
X1081541Y0897637D01*
X1083208D01*
X1084041Y0898471D01*
X1078135Y086637D02*
X1077302Y0867203D01*
X1075636D01*
X1074803Y086637D01*
Y0863037D01*
X1075636Y0862204D01*
X1077302D01*
X1078135Y0863037D01*
X1084041Y0807315D02*
X1083208Y0808148D01*
X1081541D01*
X1080708Y0807315D01*
Y0803982D01*
X1081541Y0803149D01*
X1083208D01*
X1084041Y0803982D01*
X107223Y0807315D02*
X1071397Y0808148D01*
X106973D01*
X1068897Y0807315D01*
Y0803982D01*
X106973Y0803149D01*
X1071397D01*
X107223Y0803982D01*
X1066324Y0795504D02*
X1065491Y0796337D01*
X1063825D01*
X1062992Y0795504D01*
Y0792171D01*
X1063825Y0791338D01*
X1065491D01*
X1066324Y0792171D01*
X1054513Y0795504D02*
X105368Y0796337D01*
X1052014D01*
X1051181Y0795504D01*
Y0792171D01*
X1052014Y0791338D01*
X105368D01*
X1054513Y0792171D01*
Y0771882D02*
X105368Y0772715D01*
X1052014D01*
X1051181Y0771882D01*
Y0768549D01*
X1052014Y0767716D01*
X105368D01*
X1054513Y0768549D01*
X1048608Y0901803D02*
X1047775Y0902636D01*
X1046108D01*
X1045275Y0901803D01*
Y0898471D01*
X1046108Y0897637D01*
X1047775D01*
X1048608Y0898471D01*
Y0878181D02*
X1047775Y0879014D01*
X1046108D01*
X1045275Y0878181D01*
Y0874848D01*
X1046108Y0874016D01*
X1047775D01*
X1048608Y0874848D01*
X1042702Y086637D02*
X1041869Y0867203D01*
X1040203D01*
X103937Y086637D01*
Y0863037D01*
X1040203Y0862204D01*
X1041869D01*
X1042702Y0863037D01*
Y0795504D02*
X1041869Y0796337D01*
X1040203D01*
X103937Y0795504D01*
Y0792171D01*
X1040203Y0791338D01*
X1041869D01*
X1042702Y0792171D01*
X1048608Y0783693D02*
X1047775Y0784526D01*
X1046108D01*
X1045275Y0783693D01*
Y078036D01*
X1046108Y0779527D01*
X1047775D01*
X1048608Y078036D01*
X1030891Y086637D02*
X1030058Y0867203D01*
X1028392D01*
X1027559Y086637D01*
Y0863037D01*
X1028392Y0862204D01*
X1030058D01*
X1030891Y0863037D01*
X1036796Y0807315D02*
X1035963Y0808148D01*
X1034297D01*
X1033464Y0807315D01*
Y0803982D01*
X1034297Y0803149D01*
X1035963D01*
X1036796Y0803982D01*
Y0783693D02*
X1035963Y0784526D01*
X1034297D01*
X1033464Y0783693D01*
Y078036D01*
X1034297Y0779527D01*
X1035963D01*
X1036796Y078036D01*
X101908Y086637D02*
X1018247Y0867203D01*
X1016581D01*
X1015748Y086637D01*
Y0863037D01*
X1016581Y0862204D01*
X1018247D01*
X101908Y0863037D01*
X1024986Y0807315D02*
X1024152Y0808148D01*
X1022486D01*
X1021653Y0807315D01*
Y0803982D01*
X1022486Y0803149D01*
X1024152D01*
X1024986Y0803982D01*
X101908Y0771882D02*
X1018247Y0772715D01*
X1016581D01*
X1015748Y0771882D01*
Y0768549D01*
X1016581Y0767716D01*
X1018247D01*
X101908Y0768549D01*
X1007269Y0913614D02*
X1006436Y0914447D01*
X100477D01*
X1003937Y0913614D01*
Y0910282D01*
X100477Y0909449D01*
X1006436D01*
X1007269Y0910282D01*
Y086637D02*
X1006436Y0867203D01*
X100477D01*
X1003937Y086637D01*
Y0863037D01*
X100477Y0862204D01*
X1006436D01*
X1007269Y0863037D01*
Y0819126D02*
X1006436Y0819959D01*
X100477D01*
X1003937Y0819126D01*
Y0815793D01*
X100477Y081496D01*
X1006436D01*
X1007269Y0815793D01*
X0995458Y0913614D02*
X0994625Y0914447D01*
X0992959D01*
X0992126Y0913614D01*
Y0910282D01*
X0992959Y0909449D01*
X0994625D01*
X0995458Y0910282D01*
X1001363Y0901803D02*
X100053Y0902636D01*
X0998864D01*
X0998031Y0901803D01*
Y0898471D01*
X0998864Y0897637D01*
X100053D01*
X1001363Y0898471D01*
X0995458Y086637D02*
X0994625Y0867203D01*
X0992959D01*
X0992126Y086637D01*
Y0863037D01*
X0992959Y0862204D01*
X0994625D01*
X0995458Y0863037D01*
Y0819126D02*
X0994625Y0819959D01*
X0992959D01*
X0992126Y0819126D01*
Y0815793D01*
X0992959Y081496D01*
X0994625D01*
X0995458Y0815793D01*
X1001363Y0807315D02*
X100053Y0808148D01*
X0998864D01*
X0998031Y0807315D01*
Y0803982D01*
X0998864Y0803149D01*
X100053D01*
X1001363Y0803982D01*
X0995458Y0771882D02*
X0994625Y0772715D01*
X0992959D01*
X0992126Y0771882D01*
Y0768549D01*
X0992959Y0767716D01*
X0994625D01*
X0995458Y0768549D01*
X0989552Y0901803D02*
X0988719Y0902636D01*
X0987053D01*
X098622Y0901803D01*
Y0898471D01*
X0987053Y0897637D01*
X0988719D01*
X0989552Y0898471D01*
X0983647Y0819126D02*
X0982814Y0819959D01*
X0981148D01*
X0980315Y0819126D01*
Y0815793D01*
X0981148Y081496D01*
X0982814D01*
X0983647Y0815793D01*
Y0795504D02*
X0982814Y0796337D01*
X0981148D01*
X0980315Y0795504D01*
Y0792171D01*
X0981148Y0791338D01*
X0982814D01*
X0983647Y0792171D01*
Y0771882D02*
X0982814Y0772715D01*
X0981148D01*
X0980315Y0771882D01*
Y0768549D01*
X0981148Y0767716D01*
X0982814D01*
X0983647Y0768549D01*
X11779Y0895098D02*
Y08901D01*
X1180399D01*
X1181232Y0890933D01*
Y0891766D01*
X1180399Y0892599D01*
X11779D01*
X1180399D01*
X1181232Y0893432D01*
Y0894265D01*
X1180399Y0895098D01*
X11779D01*
X12438Y0816198D02*
Y08112D01*
X1246299D01*
X1247132Y0812033D01*
Y0812866D01*
X1246299Y0813699D01*
X12438D01*
X1246299D01*
X1247132Y0814532D01*
Y0815365D01*
X1246299Y0816198D01*
X12438D01*
X12655Y0828198D02*
Y08232D01*
X1267999D01*
X1268832Y0824033D01*
Y0824866D01*
X1267999Y0825699D01*
X12655D01*
X1267999D01*
X1268832Y0826532D01*
Y0827365D01*
X1267999Y0828198D01*
X12655D01*
X12337Y0899298D02*
Y08943D01*
X1236199D01*
X1237032Y0895133D01*
Y0895966D01*
X1236199Y0896799D01*
X12337D01*
X1236199D01*
X1237032Y0897632D01*
Y0898465D01*
X1236199Y0899298D01*
X12337D01*
X12233Y0910398D02*
Y09054D01*
X1225799D01*
X1226632Y0906233D01*
Y0907066D01*
X1225799Y0907899D01*
X12233D01*
X1225799D01*
X1226632Y0908732D01*
Y0909565D01*
X1225799Y0910398D01*
X12233D01*
X11949Y0850098D02*
Y08451D01*
X1197399D01*
X1198232Y0845933D01*
Y0846766D01*
X1197399Y0847599D01*
X11949D01*
X1197399D01*
X1198232Y0848432D01*
Y0849265D01*
X1197399Y0850098D01*
X11949D01*
X12269Y0802598D02*
Y07976D01*
X1229399D01*
X1230232Y0798433D01*
Y0799266D01*
X1229399Y0800099D01*
X12269D01*
X1229399D01*
X1230232Y0800932D01*
Y0801765D01*
X1229399Y0802598D01*
X12269D01*
X11472Y0801698D02*
Y07967D01*
X1149699D01*
X1150532Y0797533D01*
Y0798366D01*
X1149699Y0799199D01*
X11472D01*
X1149699D01*
X1150532Y0800032D01*
Y0800865D01*
X1149699Y0801698D01*
X11472D01*
X10676Y0800298D02*
Y07953D01*
X1070099D01*
X1070932Y0796133D01*
Y0796966D01*
X1070099Y0797799D01*
X10676D01*
X1070099D01*
X1070932Y0798632D01*
Y0799465D01*
X1070099Y0800298D01*
X10676D01*
X09933Y0802198D02*
Y07972D01*
X0995799D01*
X0996632Y0798033D01*
Y0798866D01*
X0995799Y0799699D01*
X09933D01*
X0995799D01*
X0996632Y0800532D01*
Y0801365D01*
X0995799Y0802198D01*
X09933D01*
X11917Y0926098D02*
Y09211D01*
X1194199D01*
X1195032Y0921933D01*
Y0922766D01*
X1194199Y0923599D01*
X11917D01*
X1194199D01*
X1195032Y0924432D01*
Y0925265D01*
X1194199Y0926098D01*
X11917D01*
X1155494Y0882093D02*
Y0877094D01*
X1157994D01*
X1158827Y0877927D01*
Y0878761D01*
X1157994Y0879594D01*
X1155494D01*
X1157994D01*
X1158827Y0880427D01*
Y088126D01*
X1157994Y0882093D01*
X1155494D01*
X11793Y0820798D02*
Y08158D01*
X1181799D01*
X1182632Y0816633D01*
Y0817466D01*
X1181799Y0818299D01*
X11793D01*
X1181799D01*
X1182632Y0819132D01*
Y0819965D01*
X1181799Y0820798D01*
X11793D01*
X10103Y0824398D02*
Y08194D01*
X1012799D01*
X1013632Y0820233D01*
Y0821066D01*
X1012799Y0821899D01*
X10103D01*
X1012799D01*
X1013632Y0822732D01*
Y0823565D01*
X1012799Y0824398D01*
X10103D01*
X11398Y0961598D02*
Y09566D01*
X1142299D01*
X1143132Y0957433D01*
Y0958266D01*
X1142299Y0959099D01*
X11398D01*
X1142299D01*
X1143132Y0959932D01*
Y0960765D01*
X1142299Y0961598D01*
X11398D01*
X10307Y0830698D02*
Y08257D01*
X1033199D01*
X1034032Y0826533D01*
Y0827366D01*
X1033199Y0828199D01*
X10307D01*
X1033199D01*
X1034032Y0829032D01*
Y0829865D01*
X1033199Y0830698D01*
X10307D01*
X11372Y0943598D02*
Y09386D01*
X1139699D01*
X1140532Y0939433D01*
Y0940266D01*
X1139699Y0941099D01*
X11372D01*
X1139699D01*
X1140532Y0941932D01*
Y0942765D01*
X1139699Y0943598D01*
X11372D01*
X11508Y0825398D02*
Y08204D01*
X1153299D01*
X1154132Y0821233D01*
Y0822066D01*
X1153299Y0822899D01*
X11508D01*
X1153299D01*
X1154132Y0823732D01*
Y0824565D01*
X1153299Y0825398D01*
X11508D01*
X1235Y0927898D02*
Y09229D01*
X1237499D01*
X1238332Y0923733D01*
Y0924566D01*
X1237499Y0925399D01*
X1235D01*
X1237499D01*
X1238332Y0926232D01*
Y0927065D01*
X1237499Y0927898D01*
X1235D01*
X12241Y0936098D02*
Y09311D01*
X1226599D01*
X1227432Y0931933D01*
Y0932766D01*
X1226599Y0933599D01*
X12241D01*
X1226599D01*
X1227432Y0934432D01*
Y0935265D01*
X1226599Y0936098D01*
X12241D01*
X11963Y0929398D02*
Y09244D01*
X1198799D01*
X1199632Y0925233D01*
Y0926066D01*
X1198799Y0926899D01*
X11963D01*
X1198799D01*
X1199632Y0927732D01*
Y0928565D01*
X1198799Y0929398D01*
X11963D01*
X11915Y0929498D02*
Y09245D01*
X1193999D01*
X1194832Y0925333D01*
Y0926166D01*
X1193999Y0926999D01*
X11915D01*
X1193999D01*
X1194832Y0927832D01*
Y0928665D01*
X1193999Y0929498D01*
X11915D01*
X11852Y0907598D02*
Y09026D01*
X1187699D01*
X1188532Y0903433D01*
Y0904266D01*
X1187699Y0905099D01*
X11852D01*
X1187699D01*
X1188532Y0905932D01*
Y0906765D01*
X1187699Y0907598D01*
X11852D01*
X11848Y0901998D02*
Y0897D01*
X1187299D01*
X1188132Y0897833D01*
Y0898666D01*
X1187299Y0899499D01*
X11848D01*
X1187299D01*
X1188132Y0900332D01*
Y0901165D01*
X1187299Y0901998D01*
X11848D01*
X12396Y0933898D02*
Y09289D01*
X1242099D01*
X1242932Y0929733D01*
Y0930566D01*
X1242099Y0931399D01*
X12396D01*
X1242099D01*
X1242932Y0932232D01*
Y0933065D01*
X1242099Y0933898D01*
X12396D01*
X12449Y0937898D02*
Y09329D01*
X1247399D01*
X1248232Y0933733D01*
Y0934566D01*
X1247399Y0935399D01*
X12449D01*
X1247399D01*
X1248232Y0936232D01*
Y0937065D01*
X1247399Y0937898D01*
X12449D01*
X12597Y0937498D02*
Y09325D01*
X1262199D01*
X1263032Y0933333D01*
Y0934166D01*
X1262199Y0934999D01*
X12597D01*
X1262199D01*
X1263032Y0935832D01*
Y0936665D01*
X1262199Y0937498D01*
X12597D01*
X1250292Y094199D02*
Y0936992D01*
X1252791D01*
X1253624Y0937825D01*
Y0938658D01*
X1252791Y0939491D01*
X1250292D01*
X1252791D01*
X1253624Y0940324D01*
Y0941157D01*
X1252791Y094199D01*
X1250292D01*
X12067Y0902898D02*
Y08979D01*
X1209199D01*
X1210032Y0898733D01*
Y0899566D01*
X1209199Y0900399D01*
X12067D01*
X1209199D01*
X1210032Y0901232D01*
Y0902065D01*
X1209199Y0902898D01*
X12067D01*
X12231Y0872798D02*
Y08678D01*
X1225599D01*
X1226432Y0868633D01*
Y0869466D01*
X1225599Y0870299D01*
X12231D01*
X1225599D01*
X1226432Y0871132D01*
Y0871965D01*
X1225599Y0872798D01*
X12231D01*
X12148Y0910598D02*
Y09056D01*
X1217299D01*
X1218132Y0906433D01*
Y0907266D01*
X1217299Y0908099D01*
X12148D01*
X1217299D01*
X1218132Y0908932D01*
Y0909765D01*
X1217299Y0910598D01*
X12148D01*
X1265Y0959698D02*
Y09547D01*
X1267499D01*
X1268332Y0955533D01*
Y0956366D01*
X1267499Y0957199D01*
X1265D01*
X1267499D01*
X1268332Y0958032D01*
Y0958865D01*
X1267499Y0959698D01*
X1265D01*
D16*
X11414Y08512D02*
G03*
X11414Y08512I-00012J0D01*
G01*
X11114D02*
G03*
X11114Y08512I-00012J0D01*
G01*
X11414Y08394D02*
G03*
X11414Y08394I-00012J0D01*
G01*
X11114D02*
G03*
X11114Y08394I-00012J0D01*
G01*
D108*
X1096Y09721D02*
G03*
X1096Y09721I-0002J0D01*
G01*
Y09621D02*
G03*
X1096Y09621I-0002J0D01*
G01*
X11422Y08512D02*
G03*
X11422Y08512I-0002J0D01*
G01*
X11122D02*
G03*
X11122Y08512I-0002J0D01*
G01*
X11422Y08394D02*
G03*
X11422Y08394I-0002J0D01*
G01*
X11122D02*
G03*
X11122Y08394I-0002J0D01*
G01*
M02*
