G04*
G04 #@! TF.GenerationSoftware,Altium Limited,Altium Designer,20.2.6 (244)*
G04*
G04 Layer_Physical_Order=2*
G04 Layer_Color=16711680*
%FSTAX25Y25*%
%MOIN*%
G70*
G04*
G04 #@! TF.SameCoordinates,D37F4820-9CCB-4A9C-A827-6EB3CEA44CBB*
G04*
G04*
G04 #@! TF.FilePolarity,Positive*
G04*
G01*
G75*
%ADD18C,0.01500*%
%ADD71C,0.03000*%
%ADD72C,0.07000*%
%ADD75C,0.10000*%
%ADD76O,0.10000X0.06500*%
%ADD77R,0.10000X0.06500*%
%ADD78C,0.05906*%
%ADD79R,0.05906X0.05906*%
%ADD80C,0.09000*%
%ADD81R,0.09000X0.09000*%
%ADD82R,0.07874X0.09843*%
%ADD83C,0.12000*%
%ADD84R,0.07087X0.07087*%
%ADD85C,0.11000*%
%ADD86C,0.09843*%
%ADD87C,0.08500*%
%ADD88R,0.05906X0.05906*%
%ADD89C,0.05984*%
%ADD90R,0.05984X0.05984*%
%ADD91C,0.07000*%
G04:AMPARAMS|DCode=92|XSize=137.8mil|YSize=78.74mil|CornerRadius=19.68mil|HoleSize=0mil|Usage=FLASHONLY|Rotation=0.000|XOffset=0mil|YOffset=0mil|HoleType=Round|Shape=RoundedRectangle|*
%AMROUNDEDRECTD92*
21,1,0.13780,0.03937,0,0,0.0*
21,1,0.09843,0.07874,0,0,0.0*
1,1,0.03937,0.04921,-0.01968*
1,1,0.03937,-0.04921,-0.01968*
1,1,0.03937,-0.04921,0.01968*
1,1,0.03937,0.04921,0.01968*
%
%ADD92ROUNDEDRECTD92*%
%ADD93R,0.13780X0.09843*%
%ADD94R,0.09843X0.13780*%
G04:AMPARAMS|DCode=95|XSize=100mil|YSize=100mil|CornerRadius=25mil|HoleSize=0mil|Usage=FLASHONLY|Rotation=90.000|XOffset=0mil|YOffset=0mil|HoleType=Round|Shape=RoundedRectangle|*
%AMROUNDEDRECTD95*
21,1,0.10000,0.05000,0,0,90.0*
21,1,0.05000,0.10000,0,0,90.0*
1,1,0.05000,0.02500,0.02500*
1,1,0.05000,0.02500,-0.02500*
1,1,0.05000,-0.02500,-0.02500*
1,1,0.05000,-0.02500,0.02500*
%
%ADD95ROUNDEDRECTD95*%
G04:AMPARAMS|DCode=96|XSize=100mil|YSize=100mil|CornerRadius=12.5mil|HoleSize=0mil|Usage=FLASHONLY|Rotation=90.000|XOffset=0mil|YOffset=0mil|HoleType=Round|Shape=RoundedRectangle|*
%AMROUNDEDRECTD96*
21,1,0.10000,0.07500,0,0,90.0*
21,1,0.07500,0.10000,0,0,90.0*
1,1,0.02500,0.03750,0.03750*
1,1,0.02500,0.03750,-0.03750*
1,1,0.02500,-0.03750,-0.03750*
1,1,0.02500,-0.03750,0.03750*
%
%ADD96ROUNDEDRECTD96*%
%ADD97R,0.05984X0.05984*%
%ADD98C,0.03000*%
%ADD99C,0.02756*%
G04:AMPARAMS|DCode=100|XSize=50mil|YSize=100mil|CornerRadius=6.25mil|HoleSize=0mil|Usage=FLASHONLY|Rotation=270.000|XOffset=0mil|YOffset=0mil|HoleType=Round|Shape=RoundedRectangle|*
%AMROUNDEDRECTD100*
21,1,0.05000,0.08750,0,0,270.0*
21,1,0.03750,0.10000,0,0,270.0*
1,1,0.01250,-0.04375,-0.01875*
1,1,0.01250,-0.04375,0.01875*
1,1,0.01250,0.04375,0.01875*
1,1,0.01250,0.04375,-0.01875*
%
%ADD100ROUNDEDRECTD100*%
G04:AMPARAMS|DCode=101|XSize=80mil|YSize=100mil|CornerRadius=10mil|HoleSize=0mil|Usage=FLASHONLY|Rotation=270.000|XOffset=0mil|YOffset=0mil|HoleType=Round|Shape=RoundedRectangle|*
%AMROUNDEDRECTD101*
21,1,0.08000,0.08000,0,0,270.0*
21,1,0.06000,0.10000,0,0,270.0*
1,1,0.02000,-0.04000,-0.03000*
1,1,0.02000,-0.04000,0.03000*
1,1,0.02000,0.04000,0.03000*
1,1,0.02000,0.04000,-0.03000*
%
%ADD101ROUNDEDRECTD101*%
%ADD102R,0.07800X0.06100*%
G36*
X1147034Y0980072D02*
X1147034D01*
X1147709Y0979891D01*
X1148294Y0979734D01*
X1148295Y0979734D01*
X1149022Y0979433D01*
X1149022Y0979433D01*
X1149183Y097934D01*
X1149205Y0979332D01*
X1149456Y0979207D01*
X1149863Y0979029D01*
X1149759Y0978529D01*
X1141613D01*
X1141478Y0979029D01*
X1142178Y0979433D01*
X1142178Y0979433D01*
X1142178Y0979433D01*
X1142906Y0979734D01*
X1142906D01*
X1142906Y0979734D01*
X1143783Y097997D01*
X1144166Y0980072D01*
X1144947Y0980175D01*
X1146253D01*
X1147034Y0980072D01*
D02*
G37*
G36*
X1147336Y0974677D02*
X1148336Y0974241D01*
X1148634Y0974134D01*
X1149178Y0973979D01*
X1149424Y0973931D01*
X1149652Y0973902D01*
X1149863Y0973892D01*
X1150381Y0972392D01*
X1150116Y0972377D01*
X1149864Y0972332D01*
X1149623Y0972256D01*
X1149395Y0972151D01*
X114918Y0972015D01*
X1148977Y097185D01*
X1148786Y0971654D01*
X1148607Y0971428D01*
X1148441Y0971171D01*
X1148288Y0970885D01*
X1146969Y0974861D01*
X1147336Y0974677D01*
D02*
G37*
G36*
X1142694Y0974971D02*
X1142113Y0974213D01*
X1141711Y0973242D01*
X1141573Y09722D01*
X1141711Y0971158D01*
X1142113Y0970187D01*
X1142454Y0969742D01*
X1142207Y0969242D01*
X1138993D01*
X1138746Y0969742D01*
X1139087Y0970187D01*
X1139489Y0971158D01*
X1139627Y09722D01*
X1139489Y0973242D01*
X1139087Y0974213D01*
X1138506Y0974971D01*
X1138582Y0975259D01*
X1138717Y0975471D01*
X1142562D01*
X1142694Y0974971D01*
D02*
G37*
G36*
X1229155Y097242D02*
X1229343Y0972277D01*
X1229557Y0972138D01*
X1229795Y0972003D01*
X1230058Y0971874D01*
X1230659Y0971629D01*
X1230998Y0971513D01*
X1231749Y0971297D01*
X1228119Y0969207D01*
X1228197Y096953D01*
X1228247Y0969839D01*
X1228269Y0970134D01*
X1228263Y0970415D01*
X1228229Y0970682D01*
X1228166Y0970935D01*
X1228076Y0971173D01*
X1227957Y0971398D01*
X122781Y0971608D01*
X1227635Y0971805D01*
X1228992Y0972569D01*
X1229155Y097242D01*
D02*
G37*
G36*
X1128597Y0971804D02*
X1128661Y0971131D01*
X112872Y0970825D01*
X1128797Y0970539D01*
X1128891Y0970274D01*
X1129004Y0970028D01*
X1129134Y0969803D01*
X1129282Y0969598D01*
X1129448Y0969413D01*
X1128387Y0968352D01*
X1128202Y0968518D01*
X1127997Y0968666D01*
X1127772Y0968797D01*
X1127526Y0968909D01*
X1127261Y0969003D01*
X1126975Y096908D01*
X1126669Y0969139D01*
X1126343Y096918D01*
X1125996Y0969203D01*
X112563Y0969208D01*
X1128592Y097217D01*
X1128597Y0971804D01*
D02*
G37*
G36*
X1207854Y0970858D02*
X1207513Y0970413D01*
X1207111Y0969442D01*
X1206973Y09684D01*
X1206997Y0968219D01*
X1206994Y0968197D01*
X1207004Y0967866D01*
X1206997Y0967585D01*
X1206978Y0967378D01*
X1206974Y0967331D01*
X1206938Y0967103D01*
X1206889Y0966901D01*
X1206829Y0966723D01*
X1206761Y0966568D01*
X1206685Y0966434D01*
X120662Y0966343D01*
X1204761Y0964484D01*
X1191639D01*
X1188746Y0967378D01*
X1187763Y096836D01*
X1187562Y0968662D01*
X1187504Y0968719D01*
X1186925Y0969106D01*
X1186242Y0969242D01*
X1148993D01*
X1148746Y0969742D01*
X1149087Y0970187D01*
X114915Y0970339D01*
X1149167Y097038D01*
X1149186Y0970403D01*
X114932Y0970652D01*
X1149437Y0970833D01*
X1149553Y097098D01*
X1149666Y0971096D01*
X1149776Y0971186D01*
X1149883Y0971253D01*
X1149992Y0971303D01*
X1150107Y097134D01*
X1150209Y0971358D01*
X1207607D01*
X1207854Y0970858D01*
D02*
G37*
G36*
X1211112Y096541D02*
X121074Y0965388D01*
X1210059Y0965296D01*
X120975Y0965227D01*
X1209463Y0965142D01*
X1209196Y0965041D01*
X1208951Y0964925D01*
X1208727Y0964792D01*
X1208523Y0964644D01*
X1208341Y096448D01*
X1207229Y0965489D01*
X1207397Y0965677D01*
X1207545Y0965884D01*
X1207673Y096611D01*
X1207781Y0966355D01*
X120787Y0966619D01*
X1207938Y0966903D01*
X1207987Y0967206D01*
X1208015Y0967527D01*
X1208024Y0967868D01*
X1208013Y0968229D01*
X1211112Y096541D01*
D02*
G37*
G36*
X1307351Y0975353D02*
X1308961Y0974966D01*
X1310491Y0974332D01*
X1311903Y0973467D01*
X131313Y0972419D01*
X1313154Y0972383D01*
X1313283Y0972254D01*
X1313319Y097223D01*
X1314367Y0971003D01*
X1315232Y0969591D01*
X1315866Y0968061D01*
X1316253Y0966451D01*
X1316379Y0964843D01*
X1316371Y09648D01*
Y09248D01*
Y0845598D01*
X1315871Y0845447D01*
X1315695Y084571D01*
X1312142Y0849262D01*
X1312187Y08496D01*
X1312051Y0850632D01*
X1311653Y0851593D01*
X1311019Y0852419D01*
X1310193Y0853053D01*
X1309232Y0853451D01*
X13082Y0853587D01*
X1307168Y0853451D01*
X1306207Y0853053D01*
X1305381Y0852419D01*
X1304747Y0851593D01*
X1304349Y0850632D01*
X1304213Y08496D01*
X1304349Y0848568D01*
X1304747Y0847607D01*
X1305381Y0846781D01*
X1306207Y0846147D01*
X1307168Y0845749D01*
X13082Y0845613D01*
X1308538Y0845658D01*
X1311343Y0842852D01*
Y084D01*
Y0834904D01*
X1310843Y0834657D01*
X1310413Y0834987D01*
X1309442Y0835389D01*
X13084Y0835527D01*
X1307358Y0835389D01*
X1306387Y0834987D01*
X1305553Y0834347D01*
X1304913Y0833513D01*
X1304511Y0832542D01*
X1304373Y08315D01*
X1304511Y0830458D01*
X1304913Y0829487D01*
X1305553Y0828653D01*
X1306387Y0828013D01*
X1307358Y0827611D01*
X13084Y0827473D01*
X1309442Y0827611D01*
X1310413Y0828013D01*
X1310843Y0828343D01*
X1311343Y0828096D01*
Y0824904D01*
X1310843Y0824657D01*
X1310413Y0824987D01*
X1309442Y0825389D01*
X13084Y0825527D01*
X1307358Y0825389D01*
X1306387Y0824987D01*
X1305553Y0824347D01*
X1304913Y0823513D01*
X1304511Y0822542D01*
X1304373Y08215D01*
X1304511Y0820458D01*
X1304913Y0819487D01*
X1305553Y0818653D01*
X1306387Y0818013D01*
X1307358Y0817611D01*
X13084Y0817473D01*
X1309442Y0817611D01*
X1310413Y0818013D01*
X1310843Y0818343D01*
X1311343Y0818096D01*
Y0805492D01*
X1304408D01*
Y0804649D01*
X1260756D01*
X1252502Y0812902D01*
X1251675Y0813455D01*
X12507Y0813649D01*
X1244303D01*
X12438Y0813749D01*
X1243297Y0813649D01*
X1181655D01*
X1181413Y0814149D01*
X118159Y0814416D01*
X11836D01*
X1184283Y0814552D01*
X1184862Y0814938D01*
X1215662Y0845738D01*
X1215662Y0845738D01*
X1216049Y0846317D01*
X1216184Y0847D01*
X1216184Y0847D01*
Y08497D01*
X1235177D01*
X1251874Y0833002D01*
X1251617Y0832553D01*
X1251309Y0832553D01*
X1243847D01*
Y0824647D01*
X1251753D01*
Y0832074D01*
X1251753Y0832417D01*
X1252202Y0832674D01*
X1262938Y0821938D01*
X1262938Y0821938D01*
X1263517Y0821552D01*
X1263607Y0821534D01*
X1263698Y0821398D01*
X1264525Y0820845D01*
X12655Y0820651D01*
X1266475Y0820845D01*
X1267302Y0821398D01*
X1267855Y0822225D01*
X1268049Y08232D01*
X1267855Y0824175D01*
X1267302Y0825002D01*
X1266475Y0825555D01*
X12655Y0825749D01*
X1264525Y0825555D01*
X1264431Y0825492D01*
X1240685Y0849238D01*
X1240877Y08497D01*
X1263364D01*
X1263491Y0849365D01*
X1263515Y0849325D01*
X1263527Y084928D01*
X1263762Y0848795D01*
X1263884Y0848501D01*
X1263981Y0848342D01*
X1264027Y0848247D01*
X1264055Y0848209D01*
X1264071Y0848166D01*
X12644Y0847618D01*
D01*
X1264662Y0847181D01*
X1264694Y0847147D01*
X1264713Y0847105D01*
X1264876Y0846883D01*
X1265013Y0846659D01*
X1265195Y0846445D01*
X1265391Y0846178D01*
X1265425Y0846146D01*
X1265448Y0846106D01*
X1265781Y0845727D01*
X1265785Y0845719D01*
X1265823Y0845664D01*
X1265823Y0845664D01*
X1265823Y0845664D01*
X1265846Y0845632D01*
X1265874Y0845598D01*
X1265882Y0845584D01*
X1265882Y0845583D01*
X1265947Y08455D01*
X1265981Y0845462D01*
X1265986Y0845454D01*
X1265988Y0845452D01*
X1266057Y0845375D01*
X1266133Y0845291D01*
X1266134Y0845293D01*
X1266864Y0844564D01*
X1266856Y0844557D01*
X12669Y0844518D01*
X1267221Y0844218D01*
D01*
X1267221Y0844218D01*
X1267643Y0843809D01*
X1267726Y0843756D01*
X1267796Y0843688D01*
X126932Y0842697D01*
X1269411Y0842661D01*
X1269493Y0842607D01*
X1271178Y0841926D01*
X1271275Y0841907D01*
X1271366Y084187D01*
X1272511Y0841647D01*
X1272616Y0841622D01*
X1272658Y0841619D01*
X1273149Y0841523D01*
X1273248Y0841523D01*
X1273344Y0841504D01*
X1274111D01*
X1274253Y0841493D01*
Y0841503D01*
X12861D01*
X1286109Y0841504D01*
X1286123D01*
X1286139Y0841507D01*
X1286154Y0841505D01*
X1286201Y0841506D01*
X1286216Y0841509D01*
X1286231Y0841507D01*
X1286278Y084151D01*
X1286292Y0841514D01*
X1286297Y0841514D01*
X1286308Y0841512D01*
X1286314Y0841513D01*
X1286729Y0841492D01*
X1286737Y0841494D01*
X1286747Y0841493D01*
X1286804Y0841497D01*
X1286836Y0841493D01*
X1287818Y0841547D01*
X128787Y0841561D01*
X1287924Y0841559D01*
X1288247Y0841611D01*
X1288384Y0841622D01*
X1288526Y0841656D01*
X1288895Y0841716D01*
X1288946Y0841734D01*
X1288999Y0841738D01*
X1289949Y0841995D01*
X1289961Y0842D01*
X1289979Y0842005D01*
X1290023Y0842023D01*
X129005Y0842028D01*
X1290968Y0842382D01*
X1291014Y0842411D01*
X1291065Y0842425D01*
X1291367Y084258D01*
X1291496Y0842633D01*
X1291619Y0842708D01*
X1291942Y0842873D01*
X1291984Y0842907D01*
X1292033Y0842927D01*
X1292858Y0843463D01*
X1292871Y0843476D01*
X1292895Y0843491D01*
X1292924Y0843515D01*
X1292944Y0843526D01*
X1293709Y0844145D01*
X1293743Y0844187D01*
X1293788Y0844217D01*
X1294035Y0844464D01*
X1294143Y0844557D01*
X1294143Y0844557D01*
X1294351Y0844749D01*
X1294351Y0844749D01*
X1294531Y0844959D01*
D01*
X1294767Y0845196D01*
X1294794Y0845237D01*
X1294832Y0845267D01*
X1295609Y0846208D01*
X129563Y0846247D01*
X1295642Y0846261D01*
X1295667Y0846286D01*
X1295683Y0846309D01*
X1295766Y0846406D01*
X1295929Y0846671D01*
X1296352Y0847296D01*
X1296371Y0847341D01*
X1296402Y0847379D01*
X1296533Y0847618D01*
X1296737Y0847991D01*
X1296904Y0848263D01*
X129696Y0848399D01*
X1296988Y084845D01*
X1297003Y0848496D01*
X1297031Y0848537D01*
X1297512Y0849658D01*
X1297521Y08497D01*
X1297522Y0849706D01*
X1297546Y0849749D01*
X1297637Y0850033D01*
X1297738Y0850276D01*
X1297805Y0850557D01*
X1297919Y0850911D01*
X1297925Y0850959D01*
X1297944Y0851004D01*
X1298205Y0852197D01*
X1298206Y0852225D01*
X1298247Y0852395D01*
X129827Y0852691D01*
X1298368Y0853504D01*
X1298365Y0853552D01*
X1298376Y08536D01*
X1298387Y0854056D01*
X1298405Y0854121D01*
X1298409Y0854128D01*
X1298409Y0854134D01*
X1298418Y0854166D01*
X1298422Y0854213D01*
X129844Y0854257D01*
X1298466Y0854399D01*
X1298465Y0854446D01*
X1298479Y0854491D01*
X1298492Y0854635D01*
X1298487Y0854682D01*
X1298496Y0854728D01*
Y0854791D01*
X1298497Y08548D01*
Y091803D01*
X1298522D01*
X1298496Y0918295D01*
Y0918892D01*
X1298476Y091899D01*
Y091909D01*
X129836Y0919676D01*
X1298334Y091994D01*
X1298257Y0920195D01*
X129814Y092078D01*
X1298102Y0920873D01*
X1298082Y0920971D01*
X1297854Y0921523D01*
X1297777Y0921777D01*
X1297651Y0922012D01*
X1297423Y0922563D01*
X1297367Y0922647D01*
X1297329Y092274D01*
X1296997Y0923236D01*
X1296872Y092347D01*
X1296703Y0923676D01*
X1296371Y0924172D01*
X1296301Y0924243D01*
X1296245Y0924326D01*
X1295823Y0924748D01*
X129578Y09248D01*
X1295654Y0924954D01*
X1295652Y0924952D01*
X1295472Y0925099D01*
X1295074Y0925497D01*
X1294991Y0925553D01*
X1294919Y0925624D01*
X1294506Y09259D01*
X1294451Y0925937D01*
X1294272Y0926084D01*
X1294067Y0926194D01*
X1293599Y0926506D01*
X1293506Y0926545D01*
X1293423Y0926601D01*
X1292902Y0926816D01*
X1292698Y0926925D01*
D01*
X1292475Y0926993D01*
X1291955Y0927208D01*
X1291857Y0927228D01*
X1291764Y0927266D01*
X1291212Y0927376D01*
X1290989Y0927444D01*
X1290758Y0927466D01*
X1290206Y0927576D01*
X1290106D01*
X1290007Y0927596D01*
X1289444D01*
X1289213Y0927619D01*
Y0927597D01*
X1271246D01*
Y0927617D01*
X1271043Y0927597D01*
X1270487D01*
X1270478Y0927596D01*
X1270409D01*
X1270359Y0927586D01*
X1270308Y0927591D01*
X1270153Y0927575D01*
X1270104Y0927561D01*
X1270053Y0927561D01*
X12699Y092753D01*
X1269865Y0927515D01*
X1269815Y0927509D01*
X1269808Y0927506D01*
X1269802Y0927505D01*
X1269656Y092746D01*
X1269536Y0927449D01*
X1269375Y09274D01*
X1269121Y0927354D01*
X1269048Y0927326D01*
X1268971Y0927315D01*
X1267994Y0926981D01*
X1267892Y092695D01*
D01*
X1267872Y0926939D01*
X1267859Y0926935D01*
X1267807Y0926904D01*
X1267789Y0926895D01*
X1267717Y0926874D01*
X1266676Y0926329D01*
X1266615Y092628D01*
X1266544Y0926247D01*
X1266455Y0926182D01*
X1266377Y092614D01*
X1266198Y0925993D01*
X1265695Y0925624D01*
X1265597Y0925552D01*
X1265545Y0925494D01*
X126548Y0925451D01*
X1265216Y0925187D01*
X1265049Y0925051D01*
D01*
D01*
X1265049Y0925051D01*
X1264828Y0924765D01*
X1264753Y0924661D01*
X1264736Y0924622D01*
X1264707Y0924591D01*
X1264655Y0924504D01*
X1264651Y0924498D01*
X1264651Y0924498D01*
X12644Y0924232D01*
X12639Y092443D01*
Y09248D01*
X1255077D01*
X1254885Y0925262D01*
X1259595Y0929972D01*
X12597Y0929951D01*
X1260675Y0930145D01*
X1261502Y0930698D01*
X1262055Y0931525D01*
X1262249Y09325D01*
X1262055Y0933475D01*
X1261502Y0934302D01*
X1261405Y0934368D01*
X12614Y0934388D01*
X1261391Y0934437D01*
X1261384Y093451D01*
Y09374D01*
X1261248Y0938083D01*
X1260862Y0938662D01*
X1257162Y0942362D01*
X1256583Y0942749D01*
X12559Y0942884D01*
X1162539D01*
X1160941Y0944483D01*
X1160893Y0944538D01*
X1160769Y0944739D01*
X1160664Y0944982D01*
X116058Y0945275D01*
X1160522Y0945622D01*
X1160496Y0946025D01*
X1160504Y0946483D01*
X116055Y0946994D01*
X1160636Y0947557D01*
X1160768Y0948193D01*
X1160768Y0948209D01*
X1160813Y0948357D01*
X1160929Y0949533D01*
X1160813Y0950709D01*
X116047Y095184D01*
X1159913Y0952883D01*
X1159163Y0953796D01*
X1158774Y0954116D01*
X1158953Y0954616D01*
X1163361D01*
X1163618Y0954359D01*
X1163662Y0954308D01*
X1163787Y0954105D01*
X11639Y0953853D01*
X1163994Y0953545D01*
X1164066Y0953179D01*
X116411Y0952754D01*
X1164123Y0952287D01*
X1164047Y0951131D01*
X1163989Y0950716D01*
X1163987Y0950709D01*
X1163984Y0950685D01*
X1163955Y0950479D01*
X1163959Y0950423D01*
X1163871Y0949533D01*
X1163987Y0948357D01*
X116433Y0947226D01*
X1164887Y0946183D01*
X1165637Y094527D01*
X116655Y094452D01*
X1167593Y0943963D01*
X1168724Y094362D01*
X11699Y0943504D01*
X1171076Y094362D01*
X1172207Y0943963D01*
X117325Y094452D01*
X1174163Y094527D01*
X1174913Y0946183D01*
X117547Y0947226D01*
X1175813Y0948357D01*
X1175929Y0949533D01*
X1175813Y0950709D01*
X117547Y095184D01*
X1174913Y0952883D01*
X1174163Y0953796D01*
X117325Y0954546D01*
X1172207Y0955103D01*
X1171076Y0955446D01*
X1170817Y0955472D01*
X1170771Y0955489D01*
X116927Y0955737D01*
X1168649Y0955867D01*
X116756Y0956154D01*
X1167142Y0956297D01*
X1166788Y0956444D01*
X1166511Y0956584D01*
X1166315Y0956711D01*
X1166301Y0956722D01*
X1165362Y0957662D01*
X1164783Y0958049D01*
X11641Y0958184D01*
X1153982D01*
X1153845Y0958522D01*
X1153842Y0958684D01*
X1154619Y0959281D01*
X1155253Y0960107D01*
X1155651Y0961068D01*
X1155787Y09621D01*
X1155651Y0963132D01*
X1155253Y0964093D01*
X1154619Y0964919D01*
X1154288Y0965174D01*
X1154457Y0965674D01*
X1185403D01*
X1189638Y0961438D01*
X1189638Y0961438D01*
X1190217Y0961051D01*
X11909Y0960916D01*
X1201383D01*
X1201534Y0960416D01*
X1201066Y0960102D01*
X1196146Y0955183D01*
X1195277Y0955446D01*
X1194101Y0955562D01*
X1192925Y0955446D01*
X1191794Y0955103D01*
X1190751Y0954546D01*
X1189838Y0953796D01*
X1189088Y0952883D01*
X1188531Y095184D01*
X1188188Y0950709D01*
X1188072Y0949533D01*
X1188188Y0948357D01*
X1188531Y0947226D01*
X1189088Y0946183D01*
X1189838Y094527D01*
X1190751Y094452D01*
X1191794Y0943963D01*
X1192925Y094362D01*
X1194101Y0943504D01*
X1195277Y094362D01*
X1196408Y0943963D01*
X1197451Y094452D01*
X1198364Y094527D01*
X1199114Y0946183D01*
X1199671Y0947226D01*
X1200014Y0948357D01*
X120013Y0949533D01*
X1200014Y0950709D01*
X1199751Y0951578D01*
X1203924Y0955751D01*
X1222207D01*
X1222281Y0955251D01*
X1221794Y0955103D01*
X1220751Y0954546D01*
X1219838Y0953796D01*
X1219088Y0952883D01*
X1218531Y095184D01*
X1218188Y0950709D01*
X1218072Y0949533D01*
X1218188Y0948357D01*
X1218531Y0947226D01*
X1219088Y0946183D01*
X1219838Y094527D01*
X1220751Y094452D01*
X1221794Y0943963D01*
X1222925Y094362D01*
X1224101Y0943504D01*
X1225277Y094362D01*
X1226408Y0943963D01*
X122745Y094452D01*
X1228364Y094527D01*
X1229114Y0946183D01*
X1229671Y0947226D01*
X1230014Y0948357D01*
X123013Y0949533D01*
X1230014Y0950709D01*
X1229671Y095184D01*
X1229114Y0952883D01*
X1228364Y0953796D01*
X122745Y0954546D01*
X1226408Y0955103D01*
X1225921Y0955251D01*
X1225995Y0955751D01*
X1232257D01*
X1233232Y0955945D01*
X1234059Y0956498D01*
X1237713Y0960151D01*
X1259597D01*
X12601Y0960051D01*
X1265644D01*
X1286798Y0938898D01*
X1287625Y0938345D01*
X12886Y0938151D01*
X1296544D01*
X1305951Y0928744D01*
Y09248D01*
Y0923553D01*
X1304247D01*
Y0915647D01*
X1312129D01*
X1312216Y0915561D01*
Y0901541D01*
X1311716Y0901441D01*
X1311653Y0901593D01*
X1311019Y0902419D01*
X1310193Y0903053D01*
X1309232Y0903451D01*
X13082Y0903587D01*
X1307168Y0903451D01*
X1306207Y0903053D01*
X1305381Y0902419D01*
X1304747Y0901593D01*
X1304349Y0900632D01*
X1304213Y08996D01*
X1304349Y0898568D01*
X1304747Y0897607D01*
X1305381Y0896781D01*
X1306207Y0896147D01*
X1307168Y0895749D01*
X13082Y0895613D01*
X1309232Y0895749D01*
X1310193Y0896147D01*
X1311019Y0896781D01*
X1311653Y0897607D01*
X1311716Y0897759D01*
X1312216Y0897659D01*
Y0896139D01*
X1309441Y0893364D01*
X1309232Y0893451D01*
X13082Y0893587D01*
X1307168Y0893451D01*
X1306207Y0893053D01*
X1305381Y0892419D01*
X1304747Y0891593D01*
X1304349Y0890632D01*
X1304213Y08896D01*
X1304349Y0888568D01*
X1304747Y0887607D01*
X1305381Y0886781D01*
X1306207Y0886147D01*
X1307168Y0885749D01*
X13082Y0885613D01*
X1309232Y0885749D01*
X1310193Y0886147D01*
X1311019Y0886781D01*
X1311653Y0887607D01*
X1312051Y0888568D01*
X1312187Y08896D01*
X1312051Y0890632D01*
X1311964Y0890841D01*
X1315262Y0894138D01*
X1315648Y0894717D01*
X1315784Y08954D01*
X1315784Y08954D01*
Y09163D01*
X1315784Y09163D01*
X1315648Y0916983D01*
X1315262Y0917562D01*
X1313755Y0919068D01*
X1313177Y0919455D01*
X1312494Y091959D01*
X1312153D01*
Y0923553D01*
X1311049D01*
Y09248D01*
Y09298D01*
X1310855Y0930775D01*
X1310302Y0931602D01*
X1308456Y0933449D01*
D01*
X1299402Y0942502D01*
X1298575Y0943055D01*
X12976Y0943249D01*
X1289656D01*
X1268502Y0964402D01*
X1267675Y0964955D01*
X12667Y0965149D01*
X1260603D01*
X12601Y0965249D01*
X1236657D01*
X1235681Y0965055D01*
X1234854Y0964502D01*
X1231201Y0960849D01*
X120678D01*
X1206628Y0961349D01*
X1206762Y0961438D01*
X1209197Y0963873D01*
X1209287Y0963939D01*
X1209429Y0964023D01*
X1209596Y0964102D01*
X1209788Y0964175D01*
X1210007Y096424D01*
X1210239Y0964292D01*
X1210838Y0964372D01*
X1210956Y0964379D01*
X1211Y0964373D01*
X1211118Y0964389D01*
X1211172Y0964392D01*
X1211202Y09644D01*
X1212042Y0964511D01*
X1213013Y0964913D01*
X1213847Y0965553D01*
X1214487Y0966387D01*
X1214889Y0967358D01*
X1215027Y09684D01*
X1214889Y0969442D01*
X1214487Y0970413D01*
X1214146Y0970858D01*
X1214393Y0971358D01*
X1217607D01*
X1217854Y0970858D01*
X1217513Y0970413D01*
X1217111Y0969442D01*
X1216973Y09684D01*
X1217111Y0967358D01*
X1217513Y0966387D01*
X1218153Y0965553D01*
X1218987Y0964913D01*
X1219958Y0964511D01*
X1221Y0964373D01*
X1222042Y0964511D01*
X1223013Y0964913D01*
X1223606Y0965368D01*
D01*
X1223847Y0965553D01*
X1224487Y0966387D01*
X1224889Y0967358D01*
X1225027Y09684D01*
X1224889Y0969442D01*
X1224487Y0970413D01*
X1224146Y0970858D01*
X1224393Y0971358D01*
X1226619D01*
X1227024Y0970952D01*
X1227085Y0970866D01*
X1227145Y0970752D01*
X1227191Y097063D01*
X1227225Y0970494D01*
X1227245Y0970339D01*
X1227249Y0970161D01*
X1227234Y0969959D01*
X1227197Y0969732D01*
X1227149Y0969535D01*
X1227111Y0969442D01*
X1226973Y09684D01*
X1227111Y0967358D01*
X1227513Y0966387D01*
X1228153Y0965553D01*
X1228987Y0964913D01*
X1229958Y0964511D01*
X1231Y0964373D01*
X1232042Y0964511D01*
X1233013Y0964913D01*
X1233847Y0965553D01*
X1234487Y0966387D01*
X1234889Y0967358D01*
X1235027Y09684D01*
X1234889Y0969442D01*
X1234487Y0970413D01*
X1233847Y0971247D01*
X1233013Y0971887D01*
X1232042Y0972289D01*
X1231941Y0972303D01*
X1231304Y0972486D01*
X1231017Y0972584D01*
X1230476Y0972805D01*
X1230271Y0972906D01*
X1230086Y097301D01*
X1229932Y097311D01*
X1229853Y097317D01*
X1228619Y0974404D01*
X1228041Y0974791D01*
X1227358Y0974926D01*
X1149915D01*
X1149868Y0974971D01*
X1150064Y0975471D01*
X13057D01*
X1305743Y0975479D01*
X1307351Y0975353D01*
D02*
G37*
G36*
X1149126Y0965174D02*
X1149022Y0964967D01*
X1148295Y0964666D01*
X1148294D01*
X1148294Y0964666D01*
X1147417Y0964431D01*
X1147034Y0964328D01*
X1146253Y0964225D01*
X1145152D01*
X1144619Y0964919D01*
X1144287Y0965174D01*
X1144457Y0965674D01*
X1148852D01*
X1149126Y0965174D01*
D02*
G37*
G36*
X1122694Y0974971D02*
X1122113Y0974213D01*
X1121711Y0973242D01*
X1121573Y09722D01*
X1121711Y0971158D01*
X1122113Y0970187D01*
X1122753Y0969353D01*
X1123587Y0968713D01*
X1124558Y0968311D01*
X11256Y0968173D01*
X1125705Y0968187D01*
X1125955Y0968184D01*
X1126245Y0968165D01*
X1126509Y0968131D01*
X1126746Y0968086D01*
X1126957Y0968029D01*
X1127142Y0967963D01*
X1127303Y096789D01*
X1127442Y0967809D01*
X1127533Y0967744D01*
X112908Y0966196D01*
X112908Y0966196D01*
X1129478Y0965931D01*
X1129548Y0965407D01*
X112953Y096534D01*
X1128981Y0964919D01*
X1128347Y0964093D01*
X1127949Y0963132D01*
X1127813Y09621D01*
X1127949Y0961068D01*
X1128347Y0960107D01*
X1128981Y0959281D01*
X1129498Y0958884D01*
X1129328Y0958384D01*
X1128039D01*
X1125564Y0960859D01*
X1125651Y0961068D01*
X1125787Y09621D01*
X1125651Y0963132D01*
X1125253Y0964093D01*
X1124619Y0964919D01*
X1123793Y0965553D01*
X1122832Y0965951D01*
X11218Y0966087D01*
X1120768Y0965951D01*
X1119807Y0965553D01*
X1118981Y0964919D01*
X1118347Y0964093D01*
X1117949Y0963132D01*
X1117813Y09621D01*
X1117949Y0961068D01*
X1118347Y0960107D01*
X1118981Y0959281D01*
X1119807Y0958647D01*
X1120768Y0958249D01*
X11218Y0958113D01*
X1122832Y0958249D01*
X1123041Y0958336D01*
X112539Y0955987D01*
X1125176Y0955535D01*
X11249Y0955562D01*
X1123724Y0955446D01*
X1122593Y0955103D01*
X112155Y0954546D01*
X1120637Y0953796D01*
X1119887Y0952883D01*
X111933Y095184D01*
X1118987Y0950709D01*
X1118871Y0949533D01*
X1118987Y0948357D01*
X111933Y0947226D01*
X1119887Y0946183D01*
X1120637Y094527D01*
X1120711Y0945209D01*
X1121177Y0944737D01*
X1122014Y0943789D01*
X1122332Y0943373D01*
X1122598Y094298D01*
X1122807Y094262D01*
X1122959Y0942298D01*
X1123059Y0942017D01*
X1123112Y0941782D01*
X1123116Y0941734D01*
Y0937D01*
X1123252Y0936317D01*
X1123638Y0935738D01*
X1125003Y0934374D01*
Y0933826D01*
X1124538Y0933362D01*
X1124152Y0932783D01*
X1124016Y09321D01*
Y0928533D01*
X1123516Y0928348D01*
X1122849Y092886D01*
Y09329D01*
X1122655Y0933875D01*
X1122102Y0934702D01*
X1117302Y0939502D01*
X1116475Y0940055D01*
X11155Y0940249D01*
X1099656D01*
X1097449Y0942456D01*
Y0943509D01*
X1098314Y0943623D01*
X1099165Y0943976D01*
X1099896Y0944537D01*
X1100457Y0945268D01*
X110081Y0946119D01*
X110093Y0947033D01*
Y0952033D01*
X110081Y0952947D01*
X1100457Y0953798D01*
X1099896Y0954529D01*
X1099165Y095509D01*
X1098314Y0955443D01*
X10974Y0955563D01*
X10924D01*
X1091486Y0955443D01*
X1090635Y095509D01*
X1090543Y095502D01*
X1085222D01*
X108202Y0958222D01*
Y09687D01*
X1081942Y096909D01*
X1081721Y0969421D01*
X1078121Y0973021D01*
X107779Y0973242D01*
X10774Y097332D01*
X10599D01*
X105951Y0973242D01*
X1059179Y0973021D01*
X1058956Y0972798D01*
X1058491Y0972706D01*
X1057953Y0972347D01*
X1057594Y0971809D01*
X1057468Y0971175D01*
Y0967425D01*
X1057594Y0966791D01*
X1057896Y0966339D01*
X10578Y0966024D01*
X1057675Y0965839D01*
X10459D01*
X1044725Y0965684D01*
X1043631Y0965231D01*
X1042691Y0964509D01*
X1029509Y0951328D01*
X1028781D01*
X10287Y0951339D01*
X1027525Y0951184D01*
X1026431Y0950731D01*
X1026313Y0950641D01*
X1023179D01*
X1022404Y0950539D01*
X1021682Y0950239D01*
X1021062Y0949764D01*
X1020586Y0949144D01*
X1020287Y0948421D01*
X1020185Y0947647D01*
Y0943709D01*
X1020287Y0942935D01*
X1020586Y0942212D01*
X1021062Y0941592D01*
X1021682Y0941117D01*
X1022404Y0940817D01*
X1023179Y0940715D01*
X1033021D01*
X1033796Y0940817D01*
X1034518Y0941117D01*
X1035138Y0941592D01*
X1035614Y0942212D01*
X1035913Y0942935D01*
X1036015Y0943709D01*
Y0944996D01*
X104778Y0956761D01*
X1057675D01*
X10578Y0956575D01*
X1057896Y0956261D01*
X1057594Y0955809D01*
X1057468Y0955175D01*
Y0951425D01*
X1057594Y0950791D01*
X1057953Y0950253D01*
X1058491Y0949894D01*
X1059125Y0949768D01*
X1067875D01*
X1068509Y0949894D01*
X1069047Y0950253D01*
X1069406Y0950791D01*
X1069532Y0951425D01*
Y0955175D01*
X1069406Y0955809D01*
X1069056Y0956333D01*
X1068942Y0956537D01*
Y0956858D01*
X1069384Y095752D01*
X1069539Y09583D01*
Y09643D01*
X1069384Y096508D01*
X1069117Y096548D01*
X1069384Y096598D01*
X1071378D01*
X107308Y0964278D01*
Y0949399D01*
X1069291Y0945609D01*
X1068569Y0944669D01*
X1068116Y0943575D01*
X1067961Y09424D01*
Y08844D01*
X1068116Y0883225D01*
X1068569Y0882131D01*
X1068643Y0882034D01*
X1068948Y0881638D01*
X1069291Y0881191D01*
X1086161Y086432D01*
Y0853639D01*
X09865D01*
X0985325Y0853484D01*
X0984231Y0853031D01*
X0983291Y0852309D01*
X0960991Y0830009D01*
X0960269Y0829069D01*
X0959816Y0827975D01*
X0959661Y08268D01*
Y07671D01*
X0959816Y0765925D01*
X0960269Y0764831D01*
X0960991Y0763891D01*
X0964919Y0759962D01*
X0964728Y07595D01*
X0957329D01*
Y0965492D01*
X0957311Y0965586D01*
X0957495Y0967463D01*
X0958071Y0969359D01*
X0959005Y0971107D01*
X095995Y0972259D01*
X0960281Y0972618D01*
X0960281D01*
X0960607Y0972984D01*
X0961662Y097385D01*
X0963299Y0974724D01*
X0965075Y0975263D01*
X0966898Y0975443D01*
X0966922Y097542D01*
Y097542D01*
X0967176Y0975471D01*
X1019814D01*
X102021Y0975221D01*
X102021Y0974971D01*
Y0974239D01*
X09944D01*
X0993225Y0974084D01*
X0992131Y0973631D01*
X0991191Y0972909D01*
X0988891Y0970609D01*
X0988169Y0969669D01*
X0988111Y096953D01*
X0987991Y0969506D01*
X0987453Y0969147D01*
X0987094Y0968609D01*
X0986968Y0967975D01*
Y0964225D01*
X0987094Y0963591D01*
X0987453Y0963053D01*
X0987991Y0962694D01*
X0988625Y0962568D01*
X0997375D01*
X0998009Y0962694D01*
X0998547Y0963053D01*
X0998906Y0963591D01*
X0999032Y0964225D01*
Y0965161D01*
X1003675D01*
Y0962616D01*
X1003338Y0962436D01*
X1002436Y0961696D01*
X1001696Y0960795D01*
X1001146Y0959766D01*
X1000808Y095865D01*
X1000693Y0957489D01*
X1000808Y0956328D01*
X1001146Y0955212D01*
X1001696Y0954183D01*
X1002436Y0953282D01*
X1003338Y0952542D01*
X1003675Y0952362D01*
Y0949599D01*
X1015517D01*
Y0952362D01*
X1015854Y0952542D01*
X1016756Y0953282D01*
X1017496Y0954183D01*
X1018046Y0955212D01*
X1018384Y0956328D01*
X1018499Y0957489D01*
X1018384Y095865D01*
X1018046Y0959766D01*
X1017496Y0960795D01*
X1016756Y0961696D01*
X1015854Y0962436D01*
X1015517Y0962616D01*
Y0965161D01*
X102021D01*
Y0963379D01*
X103599D01*
Y0974971D01*
X103599Y0975221D01*
X1036386Y0975471D01*
X1122562D01*
X1122694Y0974971D01*
D02*
G37*
G36*
X1144758Y0961711D02*
X1144781Y0961372D01*
X1144821Y0961052D01*
X114488Y0960751D01*
X1144956Y096047D01*
X114505Y0960209D01*
X1145161Y0959967D01*
X1145291Y0959744D01*
X1145438Y0959542D01*
X1145603Y0959358D01*
X1144542Y0958298D01*
X1144358Y0958462D01*
X1144156Y0958609D01*
X1143933Y0958739D01*
X1143691Y095885D01*
X114343Y0958944D01*
X1143149Y095902D01*
X1142848Y0959079D01*
X1142528Y0959119D01*
X1142189Y0959142D01*
X1141829Y0959147D01*
X1144753Y096207D01*
X1144758Y0961711D01*
D02*
G37*
G36*
X1165706Y095589D02*
X1166003Y0955699D01*
X1166362Y0955517D01*
X1166782Y0955343D01*
X1167265Y0955178D01*
X1168415Y0954874D01*
X1169083Y0954735D01*
X1170605Y0954483D01*
X1164965Y0950337D01*
X1165062Y0951026D01*
X1165144Y0952268D01*
X1165128Y0952822D01*
X1165075Y095333D01*
X1164985Y0953793D01*
X1164856Y0954211D01*
X116469Y0954583D01*
X1164487Y0954911D01*
X1164246Y0955193D01*
X1165471Y095609D01*
X1165706Y095589D01*
D02*
G37*
G36*
X1081Y09687D02*
Y09578D01*
X10848Y0954D01*
X10934D01*
X10976Y09467D01*
X10767D01*
X10741Y09493D01*
Y09647D01*
X10718Y0967D01*
X10604D01*
X1059Y09684D01*
Y09714D01*
X10599Y09723D01*
X10774D01*
X1081Y09687D01*
D02*
G37*
G36*
X114243Y0958104D02*
X1142686Y0958071D01*
X1142918Y0958027D01*
X1143124Y0957971D01*
X1143305Y0957906D01*
X1143462Y0957833D01*
X1143599Y0957754D01*
X1143687Y095769D01*
X1146238Y0955138D01*
X1146238Y0955138D01*
X1146817Y0954751D01*
X11475Y0954616D01*
X11475Y0954616D01*
X1150847D01*
X1151026Y0954116D01*
X1150637Y0953796D01*
X1149887Y0952883D01*
X114933Y095184D01*
X1148987Y0950709D01*
X1148871Y0949533D01*
X1148987Y0948357D01*
X114933Y0947226D01*
X1149887Y0946183D01*
X1150637Y094527D01*
X115155Y094452D01*
X1152593Y0943963D01*
X1153724Y094362D01*
X1153794Y0943613D01*
X1154443Y094347D01*
X1155827Y094312D01*
X1156934Y0942776D01*
X1157363Y0942614D01*
X1157722Y0942456D01*
X1157999Y0942311D01*
X1158187Y0942189D01*
X1160192Y0940184D01*
X1159985Y0939684D01*
X1139482D01*
X1139002Y0940402D01*
X1138175Y0940955D01*
X11372Y0941149D01*
X1136225Y0940955D01*
X1135398Y0940402D01*
X1134845Y0939575D01*
X1134651Y09386D01*
X1134845Y0937625D01*
X1135045Y0937325D01*
X1134809Y0936884D01*
X11288D01*
X1128117Y0936749D01*
X1127872Y0936585D01*
X1127776Y0936656D01*
X1127717Y0936706D01*
X1126684Y0937739D01*
Y0941734D01*
X1126688Y0941782D01*
X1126741Y0942017D01*
X1126841Y0942298D01*
X1126993Y094262D01*
X1127202Y094298D01*
X1127468Y0943373D01*
X1127786Y0943789D01*
X1128623Y0944737D01*
X1129089Y0945209D01*
X1129163Y094527D01*
X1129913Y0946183D01*
X113047Y0947226D01*
X1130813Y0948357D01*
X1130929Y0949533D01*
X1130813Y0950709D01*
X113047Y095184D01*
X1129913Y0952883D01*
X1129163Y0953796D01*
X112853Y0954316D01*
X1128709Y0954816D01*
X1136091D01*
X113627Y0954316D01*
X1135637Y0953796D01*
X1134887Y0952883D01*
X113433Y095184D01*
X1133987Y0950709D01*
X1133871Y0949533D01*
X1133987Y0948357D01*
X113433Y0947226D01*
X1134887Y0946183D01*
X1135637Y094527D01*
X113655Y094452D01*
X1137593Y0943963D01*
X1138724Y094362D01*
X11399Y0943504D01*
X1141076Y094362D01*
X1142207Y0943963D01*
X114325Y094452D01*
X1144163Y094527D01*
X1144913Y0946183D01*
X114547Y0947226D01*
X1145813Y0948357D01*
X1145929Y0949533D01*
X1145813Y0950709D01*
X114547Y095184D01*
X1144913Y0952883D01*
X1144163Y0953796D01*
X114325Y0954546D01*
X1142355Y0955024D01*
X1142122Y0955576D01*
X1142155Y0955625D01*
X1142349Y09566D01*
X1142155Y0957575D01*
X1142123Y0957623D01*
X1142123Y0957624D01*
X1142402Y0958106D01*
X114243Y0958104D01*
D02*
G37*
G36*
X1159632Y0947738D02*
X1159538Y0947117D01*
X1159485Y0946538D01*
X1159476Y0946001D01*
X1159509Y0945505D01*
X1159584Y094505D01*
X1159702Y0944637D01*
X1159863Y0944266D01*
X1160067Y0943936D01*
X1160313Y0943648D01*
X1159014Y0942826D01*
X1158796Y094301D01*
X1158513Y0943193D01*
X1158163Y0943376D01*
X1157748Y0943558D01*
X1157266Y094374D01*
X1156104Y0944102D01*
X1154677Y0944462D01*
X1153865Y0944641D01*
X115977Y09484D01*
X1159632Y0947738D01*
D02*
G37*
G36*
X1127878Y0945433D02*
X1126997Y0944437D01*
X112664Y0943969D01*
X1126338Y0943521D01*
X112609Y0943094D01*
X1125898Y0942688D01*
X112576Y0942301D01*
X1125677Y0941935D01*
X112565Y094159D01*
X112415D01*
X1124123Y0941935D01*
X112404Y0942301D01*
X1123903Y0942688D01*
X112371Y0943094D01*
X1123462Y0943521D01*
X112316Y0943969D01*
X1122803Y0944437D01*
X1121922Y0945433D01*
X11214Y0945962D01*
X11284D01*
X1127878Y0945433D01*
D02*
G37*
G36*
X1138667Y0938957D02*
X1138712Y0938892D01*
X1138771Y0938836D01*
X1138846Y0938786D01*
X1138934Y0938745D01*
X1139038Y0938711D01*
X1139156Y0938684D01*
X1139289Y0938665D01*
X1139437Y0938654D01*
X1139599Y093865D01*
X1139427Y093715D01*
X1137701Y0937186D01*
X1138637Y0939029D01*
X1138667Y0938957D01*
D02*
G37*
G36*
X1249939Y093845D02*
X1248804Y0936805D01*
X1248787Y093687D01*
X1248754Y0936929D01*
X1248704Y0936981D01*
X1248638Y0937026D01*
X1248556Y0937064D01*
X1248458Y0937095D01*
X1248343Y0937119D01*
X1248212Y0937136D01*
X1248064Y0937147D01*
X12479Y093715D01*
X1248198Y093865D01*
X1249939Y093845D01*
D02*
G37*
G36*
X1257816Y0936661D02*
Y0934349D01*
X1257812Y0934294D01*
X1257802Y0934228D01*
X125779Y093417D01*
X125778Y0934132D01*
X1257778Y0934128D01*
X1257777Y0934125D01*
X1257768Y0934109D01*
X1257345Y0933475D01*
X125717Y0932593D01*
X1249377Y09248D01*
X1244627D01*
X1244623Y0924794D01*
X124444Y0924522D01*
X1244194Y0924306D01*
X1243978Y0924059D01*
X1243705Y0923877D01*
X1243459Y0923661D01*
X1242963Y092333D01*
X1242669Y0923185D01*
X1242397Y0923003D01*
X1242086Y0922898D01*
X1241792Y0922753D01*
X1241471Y0922689D01*
X1241161Y0922583D01*
X1240575Y0922467D01*
X1240506Y0922462D01*
X12405Y0922459D01*
X12405Y0922459D01*
X12405Y0922459D01*
X1240178Y0922395D01*
X1239868Y092229D01*
X1239575Y0922232D01*
X1239248Y092221D01*
X1238927Y0922146D01*
X1238763Y0922157D01*
X12386Y0922136D01*
X1237791D01*
X1237474Y0922522D01*
X1237549Y09229D01*
X1237355Y0923876D01*
X1236802Y0924702D01*
X1236705Y09248D01*
X1236502Y0925002D01*
X1235675Y0925555D01*
X123537Y0925616D01*
X1235419Y0926116D01*
X12386D01*
X1239283Y0926252D01*
X1239399Y0926329D01*
X123947Y0926377D01*
D01*
X12396Y0926351D01*
X1240575Y0926545D01*
X1241402Y0927098D01*
X1241955Y0927925D01*
X1242149Y09289D01*
X1241955Y0929875D01*
X1241402Y0930702D01*
X1240575Y0931255D01*
X12396Y0931449D01*
X1238625Y0931255D01*
X1237798Y0930702D01*
X1237245Y0929875D01*
X1237207Y0929684D01*
X1231903D01*
X12314Y0929784D01*
X1230717Y0929648D01*
X1230696Y0929634D01*
X1226721D01*
X1226439Y0930044D01*
X1226457Y0930134D01*
X1226649Y09311D01*
X1226455Y0932075D01*
X122596Y0932816D01*
X1226115Y0933316D01*
X1241961D01*
X1242283Y0932994D01*
X1242304Y0932968D01*
X1242345Y0932911D01*
X1242351Y0932901D01*
X1242351Y09329D01*
X1242545Y0931925D01*
X1243098Y0931098D01*
X1243925Y0930545D01*
X12449Y0930351D01*
X1245875Y0930545D01*
X1246702Y0931098D01*
X1247255Y0931925D01*
X1247449Y09329D01*
X1247255Y0933875D01*
X1246702Y0934702D01*
X1245875Y0935255D01*
X1245082Y0935413D01*
X124495Y0935616D01*
X1245219Y0936116D01*
X1247917D01*
X1247937Y0936017D01*
X124849Y093519D01*
X1249317Y0934637D01*
X1250292Y0934443D01*
X1251268Y0934637D01*
X1252094Y093519D01*
X1252647Y0936017D01*
X1252841Y0936992D01*
X1252647Y0937967D01*
X1252094Y0938794D01*
X125203Y0938837D01*
X1252176Y0939316D01*
X1255161D01*
X1257816Y0936661D01*
D02*
G37*
G36*
X1260353Y0934591D02*
X1260379Y0934302D01*
X1260402Y0934174D01*
X1260432Y0934057D01*
X1260467Y0933951D01*
X126051Y0933856D01*
X1260559Y0933773D01*
X1260614Y09337D01*
X1260676Y0933639D01*
X1258581Y0933499D01*
X1258632Y0933564D01*
X1258678Y0933641D01*
X1258718Y0933728D01*
X1258753Y0933825D01*
X1258783Y0933934D01*
X1258807Y0934053D01*
X1258826Y0934183D01*
X1258847Y0934474D01*
X125885Y0934636D01*
X126035Y0934752D01*
X1260353Y0934591D01*
D02*
G37*
G36*
X1126946Y0936024D02*
X112714Y0935858D01*
X1127323Y0935723D01*
X1127493Y0935618D01*
X1127652Y0935543D01*
X1127799Y0935499D01*
X1127935Y0935486D01*
X1128058Y0935504D01*
X112817Y0935552D01*
X112827Y093563D01*
X112833Y093357D01*
X1125679Y0933039D01*
X112587Y0933251D01*
X1126018Y0933464D01*
X1126124Y0933676D01*
X1126188Y0933888D01*
X1126209Y09341D01*
X1126188Y0934312D01*
X1126124Y0934524D01*
X1126018Y0934736D01*
X112587Y0934949D01*
X1125679Y0935161D01*
X1126739Y0936221D01*
X1126946Y0936024D01*
D02*
G37*
G36*
X1243992Y0934873D02*
X1244214Y0934685D01*
X124432Y0934609D01*
X1244423Y0934544D01*
X1244522Y0934492D01*
X1244618Y0934451D01*
X124471Y0934422D01*
X1244799Y0934405D01*
X1244885Y09344D01*
X12434Y0932915D01*
X1243395Y0933001D01*
X1243378Y093309D01*
X1243349Y0933182D01*
X1243308Y0933278D01*
X1243256Y0933377D01*
X1243191Y093348D01*
X1243115Y0933586D01*
X1243027Y0933696D01*
X1242815Y0933925D01*
X1243875Y0934985D01*
X1243992Y0934873D01*
D02*
G37*
G36*
X1223741Y0932556D02*
X1222613Y0930903D01*
X1222596Y0930969D01*
X1222562Y0931028D01*
X1222512Y093108D01*
X1222446Y0931125D01*
X1222364Y0931163D01*
X1222265Y0931194D01*
X122215Y0931219D01*
X1222019Y0931236D01*
X1221871Y0931246D01*
X1221708Y093125D01*
X1222Y093275D01*
X1223741Y0932556D01*
D02*
G37*
G36*
X1153792Y0932816D02*
X1148161Y0927184D01*
X1145318D01*
X1145207Y0927202D01*
X1145052Y0927244D01*
X1144886Y0927305D01*
X1144709Y092739D01*
X114452Y0927499D01*
X1144332Y0927626D01*
X1143881Y0927999D01*
X1143712Y0928163D01*
X1143647Y0928247D01*
X1142813Y0928887D01*
X1141842Y0929289D01*
X11408Y0929427D01*
X1139758Y0929289D01*
X1139408Y0929144D01*
D01*
X1138787Y0928887D01*
X1138194Y0928432D01*
D01*
X1138084Y0928348D01*
X1137953Y0928247D01*
X1137313Y0927413D01*
X1136911Y0926442D01*
X1136773Y09254D01*
X1136911Y0924358D01*
X1137313Y0923387D01*
X1137775Y0922784D01*
X1137529Y0922284D01*
X1136439D01*
X1135256Y0923467D01*
X1135191Y0923558D01*
X113511Y0923697D01*
X1135037Y0923858D01*
X1134971Y0924043D01*
X1134914Y0924254D01*
X1134871Y0924476D01*
X1134816Y0925059D01*
X1134813Y0925295D01*
X1134827Y09254D01*
X1134689Y0926442D01*
X1134287Y0927413D01*
X1133647Y0928247D01*
X1132813Y0928887D01*
X1131842Y0929289D01*
X11308Y0929427D01*
X1129758Y0929289D01*
X1128787Y0928887D01*
X1128084Y0928348D01*
X1127584Y0928533D01*
Y0931361D01*
X1129062Y0932838D01*
X1129062Y0932838D01*
X1129314Y0933091D01*
X1129539Y0933316D01*
X1153585D01*
X1153792Y0932816D01*
D02*
G37*
G36*
X123932Y0927426D02*
X1237582Y092715D01*
X1237221Y092865D01*
X1237386Y0928653D01*
X1237664Y0928679D01*
X1237778Y0928701D01*
X1237874Y092873D01*
X1237954Y0928765D01*
X1238016Y0928806D01*
X1238062Y0928854D01*
X123809Y0928908D01*
X1238102Y0928969D01*
X123932Y0927426D01*
D02*
G37*
G36*
X11432Y0927239D02*
X114372Y0926809D01*
X1143978Y0926634D01*
X1144234Y0926486D01*
X1144489Y0926365D01*
X1144742Y0926271D01*
X1144994Y0926204D01*
X1145244Y0926163D01*
X1145492Y092615D01*
Y092465D01*
X1145244Y0924637D01*
X1144994Y0924596D01*
X1144742Y0924529D01*
X1144489Y0924435D01*
X1144234Y0924314D01*
X1143978Y0924166D01*
X114372Y0923991D01*
X1143461Y092379D01*
X11432Y0923561D01*
X1142937Y0923306D01*
Y0927495D01*
X11432Y0927239D01*
D02*
G37*
G36*
X1157955Y0929716D02*
X1157617Y0929648D01*
X1157038Y0929262D01*
X1150061Y0922284D01*
X1144071D01*
X1144063Y0922293D01*
X1143863Y0922784D01*
X1143891Y0922811D01*
X114411Y0923003D01*
X114432Y0923166D01*
X114452Y0923301D01*
X1144709Y092341D01*
X1144886Y0923495D01*
X1145052Y0923557D01*
X1145207Y0923598D01*
X1145318Y0923616D01*
X11489D01*
X1149583Y0923752D01*
X1150162Y0924138D01*
X1156239Y0930216D01*
X1157906D01*
X1157955Y0929716D01*
D02*
G37*
G36*
X1222071Y0926202D02*
X1222754Y0926066D01*
X123125D01*
X1231501Y0926116D01*
X1233981D01*
X123403Y0925616D01*
X1233725Y0925555D01*
X1232898Y0925002D01*
X1232762Y09248D01*
X1232345Y0924175D01*
X1232264Y0923769D01*
X1230581Y0922085D01*
X1222754D01*
X1222591Y0922107D01*
X1222427Y0922096D01*
X1222105Y092216D01*
X1221778Y0922182D01*
X1221507Y0922235D01*
X119892D01*
Y09248D01*
Y09259D01*
X1199179Y0926216D01*
X122205D01*
X1222071Y0926202D01*
D02*
G37*
G36*
X1133797Y0925004D02*
X1133861Y0924331D01*
X113392Y0924025D01*
X1133997Y0923739D01*
X1134091Y0923474D01*
X1134204Y0923228D01*
X1134334Y0923003D01*
X1134482Y0922798D01*
X1134648Y0922613D01*
X1133587Y0921552D01*
X1133402Y0921718D01*
X1133197Y0921866D01*
X1132972Y0921996D01*
X1132726Y0922109D01*
X1132461Y0922203D01*
X1132175Y092228D01*
X1131869Y0922339D01*
X1131543Y092238D01*
X1131196Y0922403D01*
X113083Y0922408D01*
X1133792Y092537D01*
X1133797Y0925004D01*
D02*
G37*
G36*
X1239415Y0914838D02*
X1228838Y0904262D01*
X1228452Y0903683D01*
X1228316Y0903D01*
Y0892639D01*
X1221838Y0886162D01*
X1221451Y0885583D01*
X1221316Y08849D01*
Y0869717D01*
X1221312Y0869684D01*
X1221301Y0869614D01*
X1221298Y0869603D01*
X1221298Y0869602D01*
X1220745Y0868775D01*
X1220551Y08678D01*
X1220745Y0866825D01*
X1221298Y0865998D01*
X1222125Y0865445D01*
X12231Y0865251D01*
X1224075Y0865445D01*
X1224902Y0865998D01*
X1225455Y0866825D01*
X1225649Y08678D01*
X1225455Y0868775D01*
X1224902Y0869602D01*
X1224902Y0869603D01*
X1224899Y0869614D01*
X122489Y0869672D01*
X1224884Y0869738D01*
Y0884161D01*
X1231362Y0890638D01*
X1231362Y0890638D01*
X1231416Y0890719D01*
X1231916Y0890567D01*
Y0889939D01*
X1227138Y0885162D01*
X1226752Y0884583D01*
X1226616Y08839D01*
Y0859D01*
X1226752Y0858317D01*
X122683Y08582D01*
X1226563Y08577D01*
X1216184D01*
Y0884661D01*
X1224562Y0893038D01*
X1224949Y0893617D01*
X1225084Y08943D01*
Y0903483D01*
X1225088Y0903516D01*
X1225099Y0903586D01*
X1225102Y0903597D01*
X1225102Y0903598D01*
X1225655Y0904425D01*
X1225849Y09054D01*
X1225655Y0906375D01*
X1225102Y0907202D01*
X1224275Y0907755D01*
X12233Y0907949D01*
X1222325Y0907755D01*
X1221498Y0907202D01*
X1220945Y0906375D01*
X1220751Y09054D01*
X1220945Y0904425D01*
X1221498Y0903598D01*
X1221498Y0903597D01*
X1221501Y0903586D01*
X122151Y0903528D01*
X1221516Y0903462D01*
Y0895039D01*
X1213646Y088717D01*
X1213184Y0887361D01*
Y0888661D01*
X1216062Y0891538D01*
X1216062Y0891538D01*
X1216448Y0892117D01*
X1216584Y08928D01*
X1216584Y08928D01*
Y0903683D01*
X1216588Y0903716D01*
X1216599Y0903786D01*
X1216602Y0903797D01*
X1216602Y0903798D01*
X1217155Y0904625D01*
X1217349Y09056D01*
X1217155Y0906575D01*
X1216602Y0907402D01*
X1215775Y0907955D01*
X12148Y0908149D01*
X1213825Y0907955D01*
X1212998Y0907402D01*
X1212445Y0906575D01*
X1212251Y09056D01*
X1212445Y0904625D01*
X1212998Y0903798D01*
X1212998Y0903797D01*
X1213001Y0903786D01*
X121301Y0903728D01*
X1213016Y0903662D01*
Y0893539D01*
X1210138Y0890662D01*
X1209752Y0890083D01*
X1209616Y08894D01*
Y08577D01*
X1208484D01*
Y0896085D01*
X1208502Y0896098D01*
X1209055Y0896925D01*
X1209249Y08979D01*
X1209055Y0898875D01*
X1208502Y0899702D01*
X1207675Y0900255D01*
X12067Y0900449D01*
X1205725Y0900255D01*
X1204898Y0899702D01*
X1204345Y0898875D01*
X1204151Y08979D01*
X1204345Y0896925D01*
X1204898Y0896098D01*
X1204916Y0896085D01*
Y08577D01*
X1198515D01*
X1196583Y0858084D01*
X1194763Y0858838D01*
X1193125Y0859933D01*
X1191733Y0861325D01*
X1190638Y0862963D01*
X1189884Y0864783D01*
X11895Y0866715D01*
Y08677D01*
Y09069D01*
Y0907708D01*
X1189815Y0909292D01*
X1190433Y0910784D01*
X1191331Y0912127D01*
X1192473Y0913269D01*
X1193816Y0914167D01*
X1195308Y0914785D01*
X1196694Y0915061D01*
X1196892Y09151D01*
X1196892Y09151D01*
X12005D01*
X12005Y09151D01*
X1200506Y09153D01*
X1229654D01*
X12299Y0915251D01*
X1230146Y09153D01*
X1239223D01*
X1239415Y0914838D01*
D02*
G37*
G36*
X1089343Y0945268D02*
X1089904Y0944537D01*
X1090635Y0943976D01*
X1091486Y0943623D01*
X1092351Y0943509D01*
Y09414D01*
X1092545Y0940425D01*
X1093098Y0939598D01*
X1096798Y0935898D01*
X1097625Y0935345D01*
X10986Y0935151D01*
X1114444D01*
X1117751Y0931844D01*
Y0927984D01*
X1117313Y0927413D01*
X1116911Y0926442D01*
X1116773Y09254D01*
X1116911Y0924358D01*
X1117313Y0923387D01*
X1117751Y0922816D01*
Y0917245D01*
X1117113Y0916413D01*
X1116711Y0915442D01*
X1116573Y09144D01*
X1116711Y0913358D01*
X1117113Y0912387D01*
X1117753Y0911553D01*
X1118587Y0910913D01*
X1119558Y0910511D01*
X11206Y0910373D01*
X1121642Y0910511D01*
X1122613Y0910913D01*
X1123447Y0911553D01*
X1123542Y0911677D01*
X1124016Y0911516D01*
Y09062D01*
X1124152Y0905517D01*
X1124538Y0904938D01*
X1125597Y0903879D01*
X1125661Y0903794D01*
X1125751Y0903648D01*
X1125841Y0903475D01*
X1125927Y0903275D01*
X1126008Y0903047D01*
X112608Y0902804D01*
X1126213Y0902192D01*
X1126266Y090185D01*
X1126297Y0901766D01*
X1126349Y0901368D01*
X1126747Y0900407D01*
X1127381Y0899581D01*
X1128207Y0898947D01*
X1129168Y0898549D01*
X11302Y0898413D01*
X1131232Y0898549D01*
X1132193Y0898947D01*
X1133019Y0899581D01*
X1133653Y0900407D01*
X1134051Y0901368D01*
X1134187Y09024D01*
X1134051Y0903432D01*
X1133653Y0904393D01*
X1133019Y0905219D01*
X1132193Y0905853D01*
X1131232Y0906251D01*
X11302Y0906387D01*
X1129713Y0906323D01*
X1129621Y090633D01*
X1129316Y0906292D01*
X1129065Y0906277D01*
X1128839Y0906281D01*
X1128638Y0906301D01*
X112846Y0906335D01*
X1128303Y0906381D01*
X1128165Y0906439D01*
X1128042Y0906507D01*
X1127955Y0906568D01*
X1127584Y0906939D01*
Y0911052D01*
X1128084Y0911298D01*
X1128587Y0910913D01*
X1129558Y0910511D01*
X11306Y0910373D01*
X1131642Y0910511D01*
X1132613Y0910913D01*
X1133447Y0911553D01*
X1134087Y0912387D01*
X1134489Y0913358D01*
X1134627Y09144D01*
X1134489Y0915442D01*
X1134087Y0916413D01*
X1133447Y0917247D01*
X1132613Y0917887D01*
X1131642Y0918289D01*
X11306Y0918427D01*
X1129558Y0918289D01*
X1128587Y0917887D01*
X1128442Y0917776D01*
X1128084Y0917502D01*
X1127584Y0917748D01*
Y0918082D01*
Y0922267D01*
D01*
X1128084Y0922452D01*
X1128787Y0921913D01*
X1129758Y0921511D01*
X11308Y0921373D01*
X1130905Y0921387D01*
X1131155Y0921384D01*
X1131445Y0921364D01*
X1131709Y0921331D01*
X1131946Y0921286D01*
X1132157Y0921229D01*
X1132342Y0921163D01*
X1132503Y092109D01*
X1132642Y0921009D01*
X1132733Y0920944D01*
X1134438Y0919238D01*
X1134438Y0919238D01*
X1135017Y0918851D01*
X11357Y0918716D01*
X11357Y0918716D01*
X1139281D01*
X113938Y0918216D01*
D01*
X1138587Y0917887D01*
X1137753Y0917247D01*
X1137113Y0916413D01*
X1136711Y0915442D01*
X1136618Y0914736D01*
X1136573Y09144D01*
X1136711Y0913358D01*
X1137113Y0912387D01*
X1137753Y0911553D01*
X1138587Y0910913D01*
X1139558Y0910511D01*
X11406Y0910373D01*
X1141642Y0910511D01*
X1142613Y0910913D01*
X1143447Y0911553D01*
X1144087Y0912387D01*
X1144489Y0913358D01*
X1144627Y09144D01*
X1144581Y0914746D01*
X1144489Y0915442D01*
X1144087Y0916413D01*
X1143447Y0917247D01*
X1142613Y0917887D01*
X1142268Y091803D01*
X114182Y0918216D01*
D01*
D01*
X1141919Y0918716D01*
X11508D01*
X1151483Y0918851D01*
X1152062Y0919238D01*
X1159039Y0926216D01*
X1188821D01*
X118908Y09259D01*
Y092515D01*
X1189041Y0924952D01*
X1189011Y09248D01*
X1188951Y09245D01*
X118908Y0923849D01*
Y0922235D01*
X11857D01*
Y0905444D01*
X1185314Y0905126D01*
X11852Y0905149D01*
X1185199Y0905149D01*
X118519Y0905155D01*
X1185142Y0905189D01*
X1185091Y0905232D01*
X1181959Y0908364D01*
X118138Y0908751D01*
X1181306Y0908766D01*
X1181183Y0908848D01*
X11805Y0908984D01*
X1145D01*
X1145Y0908984D01*
X1144317Y0908848D01*
X1143738Y0908462D01*
X1143738Y0908462D01*
X1142087Y090681D01*
X1141999Y0906746D01*
X1141862Y0906667D01*
X1141705Y0906594D01*
X1141524Y0906529D01*
X1141318Y0906474D01*
X1141086Y0906429D01*
X114083Y0906396D01*
X1140547Y0906377D01*
X1140303Y0906373D01*
X11402Y0906387D01*
X1139168Y0906251D01*
X1138207Y0905853D01*
X1137381Y0905219D01*
X1136747Y0904393D01*
X1136349Y0903432D01*
X1136213Y09024D01*
X1136349Y0901368D01*
X1136747Y0900407D01*
X1137381Y0899581D01*
X1138207Y0898947D01*
X1139168Y0898549D01*
X11402Y0898413D01*
X1141232Y0898549D01*
X1142193Y0898947D01*
X1143019Y0899581D01*
X1143653Y0900407D01*
X1144051Y0901368D01*
X1144187Y09024D01*
X1144173Y0902503D01*
X1144177Y0902747D01*
X1144196Y090303D01*
X1144229Y0903286D01*
X1144273Y0903518D01*
X1144329Y0903724D01*
X1144394Y0903905D01*
X1144467Y0904062D01*
X1144546Y0904199D01*
X114461Y0904287D01*
X1145739Y0905416D01*
X1146902D01*
X1147148Y0904916D01*
X1146747Y0904393D01*
X1146349Y0903432D01*
X1146213Y09024D01*
X1146349Y0901368D01*
X1146747Y0900407D01*
X1147381Y0899581D01*
X1148207Y0898947D01*
X1149168Y0898549D01*
X11502Y0898413D01*
X1151232Y0898549D01*
X1152193Y0898947D01*
X1153019Y0899581D01*
X1153653Y0900407D01*
X1154051Y0901368D01*
X1154187Y09024D01*
X1154051Y0903432D01*
X1153653Y0904393D01*
X1153252Y0904916D01*
X1153498Y0905416D01*
X1179861D01*
X1182583Y0902694D01*
X1182604Y0902668D01*
X1182645Y090261D01*
X1182651Y0902601D01*
X1182651Y09026D01*
X1182845Y0901625D01*
X1183398Y0900798D01*
X1184225Y0900245D01*
X11852Y0900051D01*
X1185281Y0899851D01*
X1184891Y0899531D01*
X11848Y0899549D01*
X1183825Y0899355D01*
X1182998Y0898802D01*
X1182985Y0898784D01*
X1168123D01*
X116744Y0898648D01*
X1166862Y0898262D01*
X1165983Y0897383D01*
X1165596Y0896804D01*
X116546Y0896121D01*
Y0872281D01*
X1158058Y0864879D01*
X1149833D01*
X1149632Y0865364D01*
X1148911Y0866304D01*
X114797Y0867025D01*
X1146876Y0867479D01*
X1145701Y0867634D01*
X1144526Y0867479D01*
X1143432Y0867025D01*
X1142492Y0866304D01*
X114177Y0865364D01*
X1141317Y0864269D01*
X1141162Y0863095D01*
X1141317Y086192D01*
X114177Y0860825D01*
X1142492Y0859885D01*
X1143432Y0859164D01*
X1144526Y085871D01*
X1145701Y0858556D01*
X1146876Y085871D01*
X114797Y0859164D01*
X1148911Y0859885D01*
X1149632Y0860825D01*
X1149833Y086131D01*
X1158798D01*
X115948Y0861446D01*
X1160059Y0861833D01*
X1168506Y087028D01*
X1168506Y087028D01*
X1168893Y0870859D01*
X1169029Y0871542D01*
Y0895216D01*
X1182985D01*
X1182998Y0895198D01*
X1183825Y0894645D01*
X11848Y0894451D01*
X1185314Y0894553D01*
X11857Y0894236D01*
Y08497D01*
X1204916D01*
Y0849075D01*
X1184225Y0828384D01*
X1135585D01*
X1135433Y0828884D01*
X1135602Y0828998D01*
X1139915Y083331D01*
X1140468Y0834137D01*
X1140468Y083414D01*
X114157Y0834285D01*
X1142848Y0834814D01*
X1143944Y0835656D01*
X1144786Y0836752D01*
X1145315Y0838029D01*
X1145495Y08394D01*
X1145315Y0840771D01*
X1144786Y0842048D01*
X1143944Y0843144D01*
X1142848Y0843986D01*
X1142749Y0844027D01*
Y0846573D01*
X1142848Y0846614D01*
X1143944Y0847456D01*
X1144786Y0848552D01*
X1144827Y0848651D01*
X11698D01*
X1170775Y0848845D01*
X1171602Y0849398D01*
X1179702Y0857498D01*
X1180255Y0858325D01*
X1180449Y08593D01*
Y08901D01*
X1180255Y0891075D01*
X1179702Y0891902D01*
X1178875Y0892455D01*
X11779Y0892649D01*
X1176925Y0892455D01*
X1176098Y0891902D01*
X1175545Y0891075D01*
X1175351Y08901D01*
Y0860356D01*
X1168744Y0853749D01*
X1144827D01*
X1144786Y0853848D01*
X1143944Y0854944D01*
X1142848Y0855786D01*
X114157Y0856315D01*
X11402Y0856495D01*
X113883Y0856315D01*
X1137552Y0855786D01*
X1136456Y0854944D01*
X1135614Y0853848D01*
X1135085Y0852571D01*
X1134905Y08512D01*
X1135085Y0849829D01*
X1135614Y0848552D01*
X1136456Y0847456D01*
X1137552Y0846614D01*
X1137651Y0846573D01*
Y0844027D01*
X1137552Y0843986D01*
X1136456Y0843144D01*
X1135614Y0842048D01*
X1135085Y0840771D01*
X1134905Y08394D01*
X1135085Y0838029D01*
X1135614Y0836752D01*
X1135721Y0836613D01*
X1135649Y0836254D01*
X1132744Y0833349D01*
X10176D01*
X1016625Y0833155D01*
X1015798Y0832602D01*
X1008798Y0825602D01*
X1008245Y0824775D01*
X1008051Y08238D01*
Y0820534D01*
X1007945Y0820375D01*
X1007751Y08194D01*
X1007945Y0818425D01*
X1008498Y0817598D01*
X1010698Y0815398D01*
X1011525Y0814845D01*
X10125Y0814651D01*
X10712D01*
X1072175Y0814845D01*
X1073002Y0815398D01*
X10746Y0816995D01*
X1077748Y0813848D01*
X1078575Y0813295D01*
X107955Y0813101D01*
X114605D01*
X1147025Y0813295D01*
X1147852Y0813848D01*
X1151956Y0817951D01*
X1161644D01*
X1170298Y0809298D01*
X1171125Y0808745D01*
X11721Y0808551D01*
X1249644D01*
X1257898Y0800298D01*
X1258724Y0799745D01*
X12597Y0799551D01*
X1304408D01*
Y0797508D01*
X1311343D01*
Y0771848D01*
X1301144Y0761649D01*
X127727D01*
X1276609Y0762309D01*
X1275669Y0763031D01*
X1274575Y0763484D01*
X12734Y0763639D01*
X097408D01*
X0968739Y076898D01*
Y082492D01*
X098838Y0844561D01*
X1087841D01*
X1087926Y0844496D01*
X1089264Y0843942D01*
X10907Y0843752D01*
X1092136Y0843942D01*
X1093474Y0844496D01*
X1094623Y0845377D01*
X1095504Y0846526D01*
X1096058Y0847864D01*
X1096247Y08493D01*
X1096117Y085029D01*
X1096058Y0850736D01*
X1095504Y0852074D01*
X1095239Y085242D01*
Y0857436D01*
Y08662D01*
X1095239Y08662D01*
X1095084Y0867375D01*
X1094631Y0868469D01*
X1093909Y0869409D01*
X108298Y0880339D01*
X1077039Y088628D01*
Y094052D01*
X108198Y0945461D01*
X1089263D01*
X1089343Y0945268D01*
D02*
G37*
G36*
X1215793Y0904465D02*
X1215742Y090439D01*
X1215697Y0904304D01*
X1215658Y0904207D01*
X1215625Y09041D01*
X1215598Y0903982D01*
X1215577Y0903853D01*
X1215562Y0903713D01*
X121555Y0903401D01*
X121405D01*
X1214047Y0903562D01*
X1214023Y0903853D01*
X1214002Y0903982D01*
X1213975Y09041D01*
X1213942Y0904207D01*
X1213903Y0904304D01*
X1213858Y090439D01*
X1213807Y0904465D01*
X121375Y0904529D01*
X121585D01*
X1215793Y0904465D01*
D02*
G37*
G36*
X1224293Y0904265D02*
X1224242Y090419D01*
X1224197Y0904104D01*
X1224158Y0904007D01*
X1224125Y09039D01*
X1224098Y0903782D01*
X1224077Y0903653D01*
X1224062Y0903513D01*
X122405Y0903201D01*
X122255D01*
X1222547Y0903362D01*
X1222523Y0903653D01*
X1222502Y0903782D01*
X1222475Y09039D01*
X1222442Y0904007D01*
X1222403Y0904104D01*
X1222358Y090419D01*
X1222307Y0904265D01*
X122225Y0904329D01*
X122435D01*
X1224293Y0904265D01*
D02*
G37*
G36*
X1184292Y0904573D02*
X1184514Y0904385D01*
X118462Y0904309D01*
X1184723Y0904244D01*
X1184822Y0904192D01*
X1184918Y0904151D01*
X118501Y0904122D01*
X1185099Y0904105D01*
X1185185Y09041D01*
X11837Y0902615D01*
X1183695Y0902701D01*
X1183678Y090279D01*
X1183649Y0902882D01*
X1183608Y0902978D01*
X1183556Y0903077D01*
X1183491Y090318D01*
X1183415Y0903286D01*
X1183327Y0903396D01*
X1183115Y0903625D01*
X1184175Y0904685D01*
X1184292Y0904573D01*
D02*
G37*
G36*
X1144003Y0905142D02*
X1143838Y0904958D01*
X1143691Y0904755D01*
X1143561Y0904533D01*
X114345Y0904291D01*
X1143356Y090403D01*
X114328Y0903749D01*
X1143221Y0903448D01*
X1143181Y0903128D01*
X1143158Y0902789D01*
X1143153Y0902429D01*
X114023Y0905353D01*
X1140589Y0905358D01*
X1140928Y0905381D01*
X1141248Y0905421D01*
X1141549Y090548D01*
X114183Y0905556D01*
X1142091Y090565D01*
X1142333Y0905761D01*
X1142556Y0905891D01*
X1142758Y0906038D01*
X1142942Y0906203D01*
X1144003Y0905142D01*
D02*
G37*
G36*
X1127293Y0905788D02*
X1127499Y0905641D01*
X1127723Y0905518D01*
X1127962Y0905419D01*
X1128218Y0905343D01*
X1128491Y0905291D01*
X112878Y0905262D01*
X1129086Y0905257D01*
X1129408Y0905276D01*
X1129747Y0905318D01*
X1127274Y0902005D01*
X1127216Y0902378D01*
X1127068Y0903057D01*
X1126978Y0903364D01*
X1126876Y0903648D01*
X1126763Y090391D01*
X1126639Y090415D01*
X1126504Y0904368D01*
X1126358Y0904564D01*
X1126201Y0904738D01*
X1127102Y0905958D01*
X1127293Y0905788D01*
D02*
G37*
G36*
X1223853Y0869838D02*
X1223877Y0869547D01*
X1223898Y0869418D01*
X1223925Y08693D01*
X1223958Y0869193D01*
X1223997Y0869096D01*
X1224042Y086901D01*
X1224093Y0868935D01*
X122415Y0868871D01*
X122205D01*
X1222107Y0868935D01*
X1222158Y086901D01*
X1222203Y0869096D01*
X1222242Y0869193D01*
X1222275Y08693D01*
X1222302Y0869418D01*
X1222323Y0869547D01*
X1222338Y0869687D01*
X122235Y0869999D01*
X122385D01*
X1223853Y0869838D01*
D02*
G37*
G36*
X1258892Y0915169D02*
X1259511Y0914913D01*
X1260067Y0914541D01*
X1260541Y0914067D01*
X1260913Y0913511D01*
X1261169Y0912892D01*
X12613Y0912235D01*
Y09119D01*
Y08602D01*
Y0859703D01*
X1260919Y0858784D01*
X1260216Y0858081D01*
X1259297Y08577D01*
X1232223D01*
X1230184Y0859739D01*
Y0883161D01*
X1234962Y0887938D01*
X1235349Y0888517D01*
X1235484Y08892D01*
Y0892486D01*
X1235502Y0892498D01*
X1236055Y0893325D01*
X1236249Y08943D01*
X1236055Y0895275D01*
X1235502Y0896102D01*
X1234675Y0896655D01*
X12337Y0896849D01*
X1232725Y0896655D01*
X1232384Y0896428D01*
X1231884Y0896695D01*
Y0902261D01*
X1244923Y09153D01*
X1258235D01*
X1258892Y0915169D01*
D02*
G37*
G36*
X1148349Y0821554D02*
X1144994Y0818199D01*
X1104912D01*
X1104655Y0818611D01*
X110466Y0818699D01*
X1104849Y081965D01*
X1104655Y0820625D01*
X1104532Y0820809D01*
X1105739Y0822016D01*
X1148158D01*
X1148349Y0821554D01*
D02*
G37*
G36*
X102927Y0827751D02*
X1028898Y0827502D01*
X1028345Y0826675D01*
X1028151Y08257D01*
X1028345Y0824725D01*
X1028898Y0823898D01*
X1029725Y0823345D01*
X10307Y0823151D01*
X1031675Y0823345D01*
X1032502Y0823898D01*
X1033055Y0824725D01*
X1033073Y0824816D01*
X1102839D01*
X110303Y0824354D01*
X1101325Y0822649D01*
X1100939Y082207D01*
X1100865Y0821698D01*
X1100498Y0821452D01*
X1099945Y0820625D01*
X1099751Y081965D01*
X109994Y0818699D01*
X1099945Y0818611D01*
X1099688Y0818199D01*
X1080606D01*
X1076402Y0822402D01*
X1075576Y0822955D01*
X10746Y0823149D01*
X1073625Y0822955D01*
X1072798Y0822402D01*
X1070144Y0819749D01*
X1013556D01*
X1013149Y0820156D01*
Y0822744D01*
X1018656Y0828251D01*
X1029118D01*
X102927Y0827751D01*
D02*
G37*
G36*
X1186392Y0821516D02*
X1182861Y0817984D01*
X1180764D01*
X1180612Y0818212D01*
X1180033Y0818598D01*
X117935Y0818734D01*
X1178667Y0818598D01*
X1178088Y0818212D01*
X1177638Y0817762D01*
X1177559Y0817644D01*
X1177498Y0817602D01*
X1176945Y0816776D01*
X1176751Y08158D01*
X1176945Y0814824D01*
X1177396Y0814149D01*
X1177188Y0813649D01*
X1173156D01*
X1165251Y0821554D01*
X1165442Y0822016D01*
X1186185D01*
X1186392Y0821516D01*
D02*
G37*
G36*
X1316371Y0769102D02*
Y07595D01*
X1306858D01*
X1306667Y0759962D01*
X1315695Y076899D01*
X1315871Y0769253D01*
X1316371Y0769102D01*
D02*
G37*
G36*
X10441Y0744555D02*
X1044106Y0743881D01*
X104426Y0741755D01*
X1044331Y0741365D01*
X1044414Y0741032D01*
X104451Y0740756D01*
X1044619Y0740537D01*
X104474Y0740374D01*
X1036345Y0740654D01*
X1036489Y074082D01*
X1036617Y0741043D01*
X103673Y0741322D01*
X1036828Y0741656D01*
X1036911Y0742047D01*
X1036979Y0742494D01*
X103707Y0743556D01*
X10371Y0744842D01*
X10441Y0744555D01*
D02*
G37*
G36*
X1283607Y0743833D02*
X1283775Y0741707D01*
X1283852Y0741316D01*
X1283943Y0740981D01*
X1284048Y0740703D01*
X1284167Y0740482D01*
X12843Y0740316D01*
X12759D01*
X1276033Y0740482D01*
X1276152Y0740703D01*
X1276257Y0740981D01*
X1276348Y0741316D01*
X1276425Y0741707D01*
X1276488Y0742154D01*
X1276572Y0743217D01*
X12766Y0744505D01*
X12836D01*
X1283607Y0743833D01*
D02*
G37*
G36*
X1202607Y0743633D02*
X1202775Y0741507D01*
X1202852Y0741116D01*
X1202943Y0740781D01*
X1203048Y0740504D01*
X1203167Y0740282D01*
X12033Y0740116D01*
X11949D01*
X1195033Y0740282D01*
X1195152Y0740504D01*
X1195257Y0740781D01*
X1195348Y0741116D01*
X1195425Y0741507D01*
X1195488Y0741954D01*
X1195572Y0743017D01*
X11956Y0744305D01*
X12026D01*
X1202607Y0743633D01*
D02*
G37*
G36*
X1123408Y0743998D02*
X1123529Y0742323D01*
X1123601Y0741877D01*
X112369Y0741487D01*
X1123794Y0741153D01*
X1123915Y0740875D01*
X1124052Y0740653D01*
X1124205Y0740487D01*
X1115824Y0739927D01*
X1115933Y0740085D01*
X1116031Y07403D01*
X1116118Y0740573D01*
X1116193Y0740903D01*
X1116256Y0741291D01*
X1116348Y0742239D01*
X1116394Y0743416D01*
X11164Y0744091D01*
X11234Y0744669D01*
X1123408Y0743998D01*
D02*
G37*
G36*
X1180075Y0739812D02*
X1179996Y0739607D01*
X1179927Y0739344D01*
X1179867Y0739021D01*
X1179774Y0738198D01*
X1179718Y0737139D01*
X11797Y0735842D01*
X11727Y0734787D01*
X1172691Y0735457D01*
X117256Y0737126D01*
X1172481Y073757D01*
X1172385Y0737958D01*
X1172271Y073829D01*
X1172139Y0738565D01*
X117199Y0738784D01*
X1171824Y0738946D01*
X1180163Y0739957D01*
X1180075Y0739812D01*
D02*
G37*
G36*
X1047164Y066363D02*
X10473Y0661379D01*
X104735Y0661103D01*
X1047409Y0660886D01*
X1047475Y0660726D01*
X1047549Y0660625D01*
X1039851Y0660428D01*
X103991Y0660522D01*
X1039962Y0660674D01*
X1040009Y0660886D01*
X1040049Y0661156D01*
X104011Y0661875D01*
X1040157Y0663397D01*
X104016Y0664023D01*
X104716Y0664254D01*
X1047164Y066363D01*
D02*
G37*
G36*
X12137Y0663566D02*
X1213855Y0660084D01*
X1206201Y0660924D01*
X1206296Y0661031D01*
X1206381Y0661196D01*
X1206456Y0661417D01*
X120652Y0661696D01*
X1206575Y0662033D01*
X1206655Y0662877D01*
X1206695Y0663951D01*
X12067Y0664573D01*
X12137Y0663566D01*
D02*
G37*
G36*
X11516Y0663029D02*
X115168Y0659626D01*
X1144062Y0660746D01*
X1144164Y0660853D01*
X1144256Y0661017D01*
X1144337Y0661239D01*
X1144406Y0661517D01*
X1144466Y0661853D01*
X1144552Y0662697D01*
X1144595Y0663769D01*
X11446Y0664392D01*
X11516Y0663029D01*
D02*
G37*
G36*
X1237008Y0661858D02*
X1236574Y0661415D01*
X1235579Y066028D01*
X1235349Y0659967D01*
X1235172Y0659687D01*
X1235045Y065944D01*
X123497Y0659225D01*
X1234946Y0659043D01*
X1234973Y0658893D01*
X1227933Y0662013D01*
X1231949Y0666699D01*
X1237008Y0661858D01*
D02*
G37*
G36*
X1107307Y0664576D02*
X1107405Y0663073D01*
X1107465Y0662692D01*
X1107537Y0662371D01*
X1107623Y066211D01*
X1107721Y0661909D01*
X1107833Y0661768D01*
X1107958Y0661687D01*
X1100878Y0658662D01*
X11003Y066492D01*
X11073Y0665196D01*
X1107307Y0664576D01*
D02*
G37*
G36*
X1174Y0664511D02*
X1172829Y0658144D01*
X1166405Y0661939D01*
X1166518Y0661996D01*
X1166619Y0662116D01*
X1166709Y0662298D01*
X1166786Y0662543D01*
X1166851Y0662851D01*
X1166905Y0663222D01*
X1166976Y0664152D01*
X1167Y0665333D01*
X1174Y0664511D01*
D02*
G37*
G36*
X1019176Y0652989D02*
X1019068Y0653086D01*
X1018904Y0653173D01*
X1018682Y065325D01*
X1018403Y0653316D01*
X1018067Y0653372D01*
X1017223Y0653454D01*
X101615Y0653495D01*
X1015527Y06535D01*
X1016642Y06605D01*
X1020102Y0660633D01*
X1019176Y0652989D01*
D02*
G37*
%LPC*%
G36*
X13042Y0972317D02*
X130246Y0972146D01*
X1300788Y0971638D01*
X1299246Y0970814D01*
X1297895Y0969705D01*
X1296786Y0968354D01*
X1295962Y0966812D01*
X1295454Y096514D01*
X1295283Y09634D01*
X1295454Y096166D01*
X1295962Y0959988D01*
X1296786Y0958446D01*
X1297895Y0957095D01*
X1299246Y0955986D01*
X1300788Y0955162D01*
X130246Y0954654D01*
X13042Y0954483D01*
X130594Y0954654D01*
X1307612Y0955162D01*
X1309154Y0955986D01*
X1310505Y0957095D01*
X1311614Y0958446D01*
X1312438Y0959988D01*
X1312946Y096166D01*
X1313117Y09634D01*
X1312946Y096514D01*
X1312438Y0966812D01*
X1311614Y0968354D01*
X1310505Y0969705D01*
X1309154Y0970814D01*
X1307612Y0971638D01*
X130594Y0972146D01*
X13042Y0972317D01*
D02*
G37*
G36*
X1242851Y0955577D02*
X1235351D01*
X1234473Y0955402D01*
X1233729Y0954905D01*
X1233232Y0954161D01*
X1233057Y0953283D01*
Y0945783D01*
X1233232Y0944905D01*
X1233729Y0944161D01*
X1234473Y0943664D01*
X1235351Y0943489D01*
X1242851D01*
X1243729Y0943664D01*
X1244473Y0944161D01*
X124497Y0944905D01*
X1245145Y0945783D01*
Y0953283D01*
X124497Y0954161D01*
X1244473Y0954905D01*
X1243729Y0955402D01*
X1242851Y0955577D01*
D02*
G37*
G36*
X13082Y0883587D02*
X1307168Y0883451D01*
X1306207Y0883053D01*
X1305381Y0882419D01*
X1304747Y0881593D01*
X1304349Y0880632D01*
X1304213Y08796D01*
X1304349Y0878568D01*
X1304747Y0877607D01*
X1305381Y0876781D01*
X1306207Y0876147D01*
X1307168Y0875749D01*
X13082Y0875613D01*
X1309232Y0875749D01*
X1310193Y0876147D01*
X1311019Y0876781D01*
X1311653Y0877607D01*
X1312051Y0878568D01*
X1312187Y08796D01*
X1312051Y0880632D01*
X1311653Y0881593D01*
X1311019Y0882419D01*
X1310193Y0883053D01*
X1309232Y0883451D01*
X13082Y0883587D01*
D02*
G37*
G36*
Y0873587D02*
X1307168Y0873451D01*
X1306207Y0873053D01*
X1305381Y0872419D01*
X1304747Y0871593D01*
X1304349Y0870632D01*
X1304213Y08696D01*
X1304349Y0868568D01*
X1304747Y0867607D01*
X1305381Y0866781D01*
X1306207Y0866147D01*
X1307168Y0865749D01*
X13082Y0865613D01*
X1309232Y0865749D01*
X1310193Y0866147D01*
X1311019Y0866781D01*
X1311653Y0867607D01*
X1312051Y0868568D01*
X1312187Y08696D01*
X1312051Y0870632D01*
X1311653Y0871593D01*
X1311019Y0872419D01*
X1310193Y0873053D01*
X1309232Y0873451D01*
X13082Y0873587D01*
D02*
G37*
G36*
X12378Y0832587D02*
X1236768Y0832451D01*
X1235807Y0832053D01*
X1234981Y0831419D01*
X1234347Y0830593D01*
X1233949Y0829632D01*
X1233813Y08286D01*
X1233949Y0827568D01*
X1234347Y0826607D01*
X1234981Y0825781D01*
X1235807Y0825147D01*
X1236768Y0824749D01*
X12378Y0824613D01*
X1238832Y0824749D01*
X1239793Y0825147D01*
X1240619Y0825781D01*
X1241253Y0826607D01*
X1241651Y0827568D01*
X1241787Y08286D01*
X1241651Y0829632D01*
X1241253Y0830593D01*
X1240619Y0831419D01*
X1239793Y0832053D01*
X1238832Y0832451D01*
X12378Y0832587D01*
D02*
G37*
G36*
X12278D02*
X1226768Y0832451D01*
X1225807Y0832053D01*
X1224981Y0831419D01*
X1224347Y0830593D01*
X1223949Y0829632D01*
X1223813Y08286D01*
X1223949Y0827568D01*
X1224347Y0826607D01*
X1224981Y0825781D01*
X1225807Y0825147D01*
X1226768Y0824749D01*
X12278Y0824613D01*
X1228832Y0824749D01*
X1229793Y0825147D01*
X1230619Y0825781D01*
X1231253Y0826607D01*
X1231651Y0827568D01*
X1231787Y08286D01*
X1231651Y0829632D01*
X1231253Y0830593D01*
X1230619Y0831419D01*
X1229793Y0832053D01*
X1228832Y0832451D01*
X12278Y0832587D01*
D02*
G37*
G36*
X12178D02*
X1216768Y0832451D01*
X1215807Y0832053D01*
X1214981Y0831419D01*
X1214347Y0830593D01*
X1213949Y0829632D01*
X1213813Y08286D01*
X1213949Y0827568D01*
X1214347Y0826607D01*
X1214981Y0825781D01*
X1215807Y0825147D01*
X1216768Y0824749D01*
X12178Y0824613D01*
X1218832Y0824749D01*
X1219793Y0825147D01*
X1220619Y0825781D01*
X1221253Y0826607D01*
X1221651Y0827568D01*
X1221787Y08286D01*
X1221651Y0829632D01*
X1221253Y0830593D01*
X1220619Y0831419D01*
X1219793Y0832053D01*
X1218832Y0832451D01*
X12178Y0832587D01*
D02*
G37*
G36*
X11Y096635D02*
X1088D01*
Y095785D01*
X11D01*
Y096635D01*
D02*
G37*
G36*
X09695Y0972017D02*
X096776Y0971846D01*
X0966088Y0971338D01*
X0964546Y0970514D01*
X0963195Y0969405D01*
X0962086Y0968054D01*
X0961262Y0966512D01*
X0960754Y096484D01*
X0960583Y09631D01*
X0960754Y096136D01*
X0961262Y0959688D01*
X0962086Y0958146D01*
X0963195Y0956795D01*
X0964546Y0955686D01*
X0966088Y0954862D01*
X096776Y0954354D01*
X09695Y0954183D01*
X097124Y0954354D01*
X0972912Y0954862D01*
X0974454Y0955686D01*
X0975805Y0956795D01*
X0976914Y0958146D01*
X0977738Y0959688D01*
X0978246Y096136D01*
X0978417Y09631D01*
X0978246Y096484D01*
X0977738Y0966512D01*
X0976914Y0968054D01*
X0975805Y0969405D01*
X0974454Y0970514D01*
X0972912Y0971338D01*
X097124Y0971846D01*
X09695Y0972017D01*
D02*
G37*
G36*
X0997375Y0953632D02*
X0988625D01*
X0987991Y0953506D01*
X0987453Y0953147D01*
X0987094Y0952609D01*
X0986968Y0951975D01*
Y0948225D01*
X0987094Y0947591D01*
X0987453Y0947053D01*
X0987991Y0946694D01*
X0988625Y0946568D01*
X0997375D01*
X0998009Y0946694D01*
X0998547Y0947053D01*
X0998906Y0947591D01*
X0999032Y0948225D01*
Y0951975D01*
X0998906Y0952609D01*
X0998547Y0953147D01*
X0998009Y0953506D01*
X0997375Y0953632D01*
D02*
G37*
G36*
X10285Y093968D02*
X1028337Y0939658D01*
X1027981D01*
X1027851Y0939632D01*
X1027718Y0939623D01*
X1027374Y0939531D01*
X1027211Y093951D01*
X1027059Y0939447D01*
X1026716Y0939355D01*
X1026596Y0939296D01*
X102647Y0939253D01*
X1026163Y0939075D01*
X102601Y0939013D01*
X1025879Y0938912D01*
X1025572Y0938735D01*
X1025472Y0938647D01*
X1025361Y0938573D01*
X102511Y0938321D01*
X1024979Y0938221D01*
X1024879Y093809D01*
X1024627Y0937839D01*
X1024553Y0937728D01*
X1024465Y0937628D01*
X1024288Y0937321D01*
X1024187Y093719D01*
X1024125Y0937038D01*
X1023947Y093673D01*
X1023904Y0936604D01*
X1023845Y0936484D01*
X1023753Y0936141D01*
X102369Y0935989D01*
X1023669Y0935826D01*
X1023637Y0935708D01*
X1023137Y0935773D01*
Y0938221D01*
X1013263D01*
Y0926379D01*
X1013661D01*
Y090348D01*
X100362Y0893439D01*
X09802D01*
Y08953D01*
X09692D01*
Y0884564D01*
X09692Y088432D01*
X0969076Y088416D01*
X0968875Y0883935D01*
X0968796Y0883896D01*
X096867Y0883853D01*
X0968363Y0883675D01*
X096821Y0883613D01*
X0968079Y0883512D01*
X0967772Y0883335D01*
X0967672Y0883247D01*
X0967561Y0883173D01*
X096731Y0882921D01*
X0967179Y0882821D01*
X0967079Y088269D01*
X0966827Y0882439D01*
X0966753Y0882328D01*
X0966665Y0882228D01*
X0966488Y0881921D01*
X0966387Y088179D01*
X0966325Y0881638D01*
X0966147Y088133D01*
X0966104Y0881204D01*
X0966045Y0881084D01*
X0965953Y0880741D01*
X096589Y0880589D01*
X0965869Y0880425D01*
X0965777Y0880082D01*
X0965768Y0879949D01*
X0965742Y0879819D01*
Y0879463D01*
X096572Y08793D01*
X0965742Y0879137D01*
Y0878782D01*
X0965768Y0878651D01*
X0965777Y0878518D01*
X0965869Y0878174D01*
X096589Y0878011D01*
X0965953Y0877859D01*
X0966045Y0877516D01*
X0966104Y0877396D01*
X0966147Y087727D01*
X0966325Y0876962D01*
X0966387Y087681D01*
X0966488Y087668D01*
X0966665Y0876372D01*
X0966753Y0876272D01*
X0966827Y0876161D01*
X0967079Y087591D01*
X0967179Y0875779D01*
X096731Y0875679D01*
X0967561Y0875427D01*
X0967672Y0875353D01*
X0967772Y0875265D01*
X0968079Y0875088D01*
X096821Y0874988D01*
X0968362Y0874924D01*
X096867Y0874747D01*
X0968796Y0874704D01*
X0968916Y0874645D01*
X0969259Y0874553D01*
X0969411Y087449D01*
X0969575Y0874469D01*
X0969918Y0874377D01*
X0970051Y0874368D01*
X0970181Y0874342D01*
X0970537D01*
X09707Y087432D01*
X0970779D01*
X0970939Y0873847D01*
X0970777Y0873723D01*
X0969896Y0872574D01*
X0969342Y0871236D01*
X0969153Y08698D01*
X0969342Y0868364D01*
X0969896Y0867026D01*
X0970777Y0865877D01*
X0971926Y0864996D01*
X0973264Y0864442D01*
X09747Y0864252D01*
X0976136Y0864442D01*
X0977474Y0864996D01*
X097782Y0865261D01*
X1023016D01*
X1023125Y0865216D01*
X10243Y0865061D01*
X1025475Y0865216D01*
X1026569Y0865669D01*
X1027509Y0866391D01*
X1031416Y0870298D01*
X1041409Y0880291D01*
X1042131Y0881231D01*
X1042584Y0882325D01*
X1042739Y08835D01*
Y0926379D01*
X1043137D01*
Y0938221D01*
X1033263D01*
Y0937393D01*
X1032996Y0937272D01*
X1032763Y0937254D01*
X1032712Y0937321D01*
X1032535Y0937628D01*
X1032447Y0937728D01*
X1032373Y0937839D01*
X1032121Y093809D01*
X1032021Y0938221D01*
X103189Y0938321D01*
X1031639Y0938573D01*
X1031528Y0938647D01*
X1031428Y0938735D01*
X1031121Y0938912D01*
X103099Y0939013D01*
X1030838Y0939075D01*
X103053Y0939253D01*
X1030404Y0939296D01*
X1030284Y0939355D01*
X1029941Y0939447D01*
X1029789Y093951D01*
X1029626Y0939531D01*
X1029282Y0939623D01*
X1029149Y0939632D01*
X1029018Y0939658D01*
X1028663D01*
X10285Y093968D01*
D02*
G37*
%LPD*%
G36*
X102352Y0925937D02*
Y0893763D01*
X1014037Y088428D01*
X1007411D01*
X1007312Y088478D01*
X1007769Y0884969D01*
X1008709Y0885691D01*
X1021409Y0898391D01*
X1022131Y0899331D01*
X1022584Y0900425D01*
X1022739Y09016D01*
Y0926025D01*
X1022914Y09262D01*
X1023086Y0926255D01*
X102352Y0925937D01*
D02*
G37*
G36*
X1033661Y0889898D02*
Y088538D01*
X1022982Y0874701D01*
X1022475Y0874634D01*
X1021762Y0874339D01*
X1018385D01*
X1018286Y0874839D01*
X1018356Y0874868D01*
X1018439Y0874924D01*
X1018532Y0874962D01*
X1018538Y0874966D01*
X101859Y0874988D01*
X1018721Y0875089D01*
X1019177Y0875393D01*
X1019248Y0875464D01*
X1019332Y087552D01*
X101949Y0875679D01*
X1019621Y0875779D01*
X1025207Y0881365D01*
D01*
X1032021Y0888179D01*
X1032021Y0888179D01*
X1032121Y088831D01*
X103228Y0888468D01*
X1032336Y0888552D01*
X1032407Y0888623D01*
X1032712Y0889079D01*
X1032812Y088921D01*
X1032834Y0889262D01*
X1032838Y0889268D01*
X1032876Y0889361D01*
X1032932Y0889444D01*
X1033161Y0889997D01*
X1033661Y0889898D01*
D02*
G37*
%LPC*%
G36*
X11202Y0906387D02*
X1119168Y0906251D01*
X1118207Y0905853D01*
X1117381Y0905219D01*
X1116747Y0904393D01*
X1116349Y0903432D01*
X1116213Y09024D01*
X1116349Y0901368D01*
X1116747Y0900407D01*
X1117381Y0899581D01*
X1118207Y0898947D01*
X1119168Y0898549D01*
X11202Y0898413D01*
X1121232Y0898549D01*
X1122193Y0898947D01*
X1123019Y0899581D01*
X1123653Y0900407D01*
X1124051Y0901368D01*
X1124187Y09024D01*
X1124051Y0903432D01*
X1123653Y0904393D01*
X1123019Y0905219D01*
X1122193Y0905853D01*
X1121232Y0906251D01*
X11202Y0906387D01*
D02*
G37*
G36*
X11338Y0867634D02*
X1132625Y0867479D01*
X1131531Y0867025D01*
X1130591Y0866304D01*
X1129869Y0865364D01*
X1129416Y0864269D01*
X1129261Y0863095D01*
X1129416Y086192D01*
X1129869Y0860825D01*
X1130591Y0859885D01*
X1131531Y0859164D01*
X1132625Y085871D01*
X11338Y0858556D01*
X1134975Y085871D01*
X1136069Y0859164D01*
X113701Y0859885D01*
X1137731Y0860825D01*
X1138184Y086192D01*
X1138339Y0863095D01*
X1138184Y0864269D01*
X1137731Y0865364D01*
X113701Y0866304D01*
X1136069Y0867025D01*
X1134975Y0867479D01*
X11338Y0867634D01*
D02*
G37*
G36*
X1109998D02*
X1108823Y0867479D01*
X1107729Y0867025D01*
X1106789Y0866304D01*
X1106067Y0865364D01*
X1105614Y0864269D01*
X1105459Y0863095D01*
X1105614Y086192D01*
X1106067Y0860825D01*
X1106789Y0859885D01*
X1107729Y0859164D01*
X1108316Y0858921D01*
Y0856102D01*
X1107552Y0855786D01*
X1106831Y0855232D01*
X1106809Y0855215D01*
X1106456Y0854944D01*
X1105761Y0854039D01*
X1105614Y0853848D01*
X1105085Y0852571D01*
X1104905Y08512D01*
X1104995Y0850511D01*
X1105085Y0849829D01*
X1105614Y0848552D01*
X1106456Y0847456D01*
X1107552Y0846614D01*
X1108829Y0846085D01*
X11102Y0845905D01*
X111157Y0846085D01*
X1112848Y0846614D01*
X1113944Y0847456D01*
X1114786Y0848552D01*
X1115315Y0849829D01*
X1115495Y08512D01*
X1115315Y0852571D01*
X1114786Y0853848D01*
X1113944Y0854944D01*
X1112848Y0855786D01*
X1111884Y0856185D01*
Y0859005D01*
X1112267Y0859164D01*
X1113207Y0859885D01*
X1113929Y0860825D01*
X1114382Y086192D01*
X1114537Y0863095D01*
X1114382Y0864269D01*
X1113929Y0865364D01*
X1113207Y0866304D01*
X1112267Y0867025D01*
X1111173Y0867479D01*
X1109998Y0867634D01*
D02*
G37*
G36*
X1121899D02*
X1120724Y0867479D01*
X111963Y0867025D01*
X111923Y0866719D01*
X111869Y0866304D01*
X1117968Y0865364D01*
X1117515Y0864269D01*
X111736Y0863095D01*
X1117515Y086192D01*
X1117968Y0860825D01*
X111869Y0859885D01*
X111923Y0859471D01*
X111963Y0859164D01*
X1120115Y0858963D01*
Y0846838D01*
X1115326Y084205D01*
X1115085Y0842049D01*
X1114713Y0842143D01*
X1113944Y0843144D01*
X1112848Y0843986D01*
X111157Y0844515D01*
X11102Y0844695D01*
X1108829Y0844515D01*
X1107552Y0843986D01*
X1106456Y0843144D01*
X1105614Y0842048D01*
X1105085Y0840771D01*
X1104905Y08394D01*
X1105085Y0838029D01*
X1105614Y0836752D01*
X1106456Y0835656D01*
X1107552Y0834814D01*
X1108829Y0834285D01*
X11102Y0834105D01*
X111157Y0834285D01*
X1112848Y0834814D01*
X1113944Y0835656D01*
X1114786Y0836752D01*
X1115315Y0838029D01*
X1115339Y0838212D01*
X1115796D01*
X1116479Y0838348D01*
X1117058Y0838735D01*
X1123161Y0844837D01*
X1123547Y0845416D01*
X1123683Y0846099D01*
Y0855197D01*
Y0858963D01*
X1124168Y0859164D01*
X1125109Y0859885D01*
X112583Y0860825D01*
X1126283Y086192D01*
X1126438Y0863095D01*
X1126283Y0864269D01*
X112583Y0865364D01*
X1125109Y0866304D01*
X1124168Y0867025D01*
X1123074Y0867479D01*
X1121899Y0867634D01*
D02*
G37*
%LPD*%
D18*
X11023Y081965D02*
X1102587Y0819937D01*
Y0821387D01*
X1105Y08238D01*
X10307Y08257D02*
X1031106D01*
X1184964Y08266D02*
X12067Y0848335D01*
X1031106Y08257D02*
X1032006Y08266D01*
X1184964D01*
X11864Y08238D02*
X12114Y08488D01*
X1105Y08238D02*
X11864D01*
X12067Y0848335D02*
Y08979D01*
X11836Y08162D02*
X12144Y0847D01*
X11789Y08165D02*
X117935Y081695D01*
X11801Y08162D02*
X11836D01*
X12642Y08232D02*
X12655D01*
X12284Y0859D02*
X12642Y08232D01*
X12284Y0859D02*
Y08839D01*
X12337Y08892D01*
Y08943D01*
X12231Y08849D02*
X12301Y08919D01*
X12231Y08678D02*
Y08849D01*
X12301Y08919D02*
Y0903D01*
X12233Y08943D02*
Y09054D01*
X12144Y08854D02*
X12233Y08943D01*
X12301Y0903D02*
X12597Y09326D01*
X12144Y0847D02*
Y08854D01*
X12114Y08488D02*
Y08894D01*
X11467Y08632D02*
X1146805Y0863095D01*
X1158798D01*
X1167245Y0871542D02*
Y0896121D01*
X1168123Y0897D01*
X1158798Y0863095D02*
X1167245Y0871542D01*
X1168123Y0897D02*
X11848D01*
X1109998Y08628D02*
Y0863095D01*
X11101Y08513D02*
Y08628D01*
Y08513D02*
X11102Y08512D01*
X11106Y08393D02*
X1111296Y0839996D01*
X1115796D01*
X1121899Y0846099D01*
Y0863095D01*
X11273Y09566D02*
X11398D01*
X11218Y09621D02*
X11273Y09566D01*
X13095Y0918709D02*
X1310403Y0917806D01*
X1312494D01*
X1314Y09163D01*
Y08954D02*
Y09163D01*
X13082Y08896D02*
X1314Y08954D01*
X12055Y09627D02*
X12113Y09685D01*
X11456Y0973142D02*
X1227358D01*
X11288Y09351D02*
X12427D01*
X11249Y0937D02*
Y0949533D01*
Y0937D02*
X11278Y09341D01*
X11258Y09321D02*
X11278Y09341D01*
X11258Y09062D02*
Y09321D01*
X11278Y09341D02*
X11288Y09351D01*
X11372Y09386D02*
X11379Y09379D01*
X11489Y09254D02*
X11555Y0932D01*
X11408Y09254D02*
X11489D01*
X11508Y09205D02*
X11583Y0928D01*
X11357Y09205D02*
X11508D01*
X11308Y09254D02*
X11357Y09205D01*
X1145Y09072D02*
X11805D01*
X11402Y09024D02*
X1145Y09072D01*
X12427Y09351D02*
X12449Y09329D01*
X12495Y09379D02*
X12503Y09371D01*
X11379Y09379D02*
X12495D01*
X1222754Y092785D02*
X123125D01*
X1222604Y0928D02*
X1222754Y092785D01*
X11583Y0928D02*
X1222604D01*
X123125Y092785D02*
X12314Y0928D01*
X11456Y09722D02*
Y0973142D01*
X11909Y09627D02*
X12055D01*
X12596Y09326D02*
Y09374D01*
X12148Y08928D02*
Y09056D01*
X12114Y08894D02*
X12148Y08928D01*
X11555Y0932D02*
X12232D01*
X11618Y09411D02*
X12559D01*
X12232Y0932D02*
X12241Y09311D01*
X12559Y09411D02*
X12596Y09374D01*
X12386Y09279D02*
X12396Y09289D01*
X12314Y09279D02*
X12386D01*
X11544Y09485D02*
X11618Y09411D01*
X11307Y09254D02*
X11322Y09269D01*
X1180697Y0907103D02*
X11852Y09026D01*
X11641Y09564D02*
X11708Y09497D01*
X11475Y09564D02*
X11641D01*
X11418Y09621D02*
X11475Y09564D01*
X11258Y09062D02*
X11298Y09022D01*
X11805Y0907103D02*
X1180697D01*
X1186142Y0967458D02*
X11909Y09627D01*
X1186142Y0967458D02*
X1186242D01*
X1130342D02*
X1186142D01*
X1186242D02*
X11863Y09674D01*
X11456Y09722D02*
X1147097Y0970703D01*
X11256Y09722D02*
X1130342Y0967458D01*
X1227358Y0973142D02*
X12313Y09692D01*
D71*
X10783Y09552D02*
Y09642D01*
Y09552D02*
X10834Y09501D01*
X10732Y09693D02*
X10783Y09642D01*
X10635Y09693D02*
X10732D01*
X12438Y08111D02*
X12507D01*
X107955Y081565D02*
X114605D01*
X11721Y08111D02*
X12438D01*
X10746Y08206D02*
X107955Y081565D01*
X114605D02*
X11509Y08205D01*
X10712Y08172D02*
X10746Y08206D01*
X11402Y08394D02*
Y08512D01*
Y08387D02*
Y08394D01*
Y0837912D02*
Y08387D01*
X10103Y08194D02*
X10125Y08172D01*
X10712D01*
X10106Y08197D02*
Y08238D01*
X10176Y08308D01*
X11338D01*
X1138113Y0835113D01*
Y0835824D02*
X11402Y0837912D01*
X1138113Y0835113D02*
Y0835824D01*
X11779Y08593D02*
Y08901D01*
X11698Y08512D02*
X11779Y08593D01*
X11402Y08512D02*
X11698D01*
X12597Y08021D02*
X13085D01*
X12507Y08111D02*
X12597Y08021D01*
X13082Y08496D02*
X1313892Y0843908D01*
Y0770792D02*
Y0843908D01*
X13022Y07591D02*
X1313892Y0770792D01*
X11627Y08205D02*
X11721Y08111D01*
X11509Y08205D02*
X11627D01*
X11203Y09254D02*
X11208D01*
X11206Y09144D02*
Y09148D01*
X11203Y09151D02*
X11206Y09148D01*
X11203Y09151D02*
Y09254D01*
Y09329D01*
X11155Y09377D02*
X11203Y09329D01*
X10986Y09377D02*
X11155D01*
X10949Y09414D02*
X10986Y09377D01*
X10949Y09414D02*
Y0949533D01*
X1202868Y09583D02*
X1232257D01*
X1236657Y09627D01*
X12601D01*
Y09626D02*
X12667D01*
X13085Y09202D02*
Y09298D01*
X12667Y09626D02*
X12886Y09407D01*
X12976D01*
X13085Y09298D01*
X1194101Y0949533D02*
X1202868Y09583D01*
X12734Y07591D02*
X13022D01*
X1199Y09179D02*
X12296D01*
X1196Y09209D02*
X1199Y09179D01*
X12299Y09178D02*
X1235Y09229D01*
X12347Y09232D02*
X1235Y09229D01*
D72*
X10801Y095D02*
X10958D01*
X09722Y07591D02*
X11115D01*
X12734D01*
X10725Y08844D02*
X10907Y08662D01*
X10725Y09424D02*
X10801Y095D01*
X10725Y08844D02*
Y09424D01*
X09921Y09674D02*
X09944Y09697D01*
X10287Y09468D02*
X1028711Y0946789D01*
X1031389D01*
X10459Y09613D01*
X10635D01*
X10105Y09697D02*
X10271D01*
X09944D02*
X10105D01*
X10097Y09575D02*
X10105Y09583D01*
Y09697D01*
X10271D02*
X10273Y09695D01*
X09865Y08491D02*
X10902D01*
X09642Y08268D02*
X09865Y08491D01*
X09642Y07671D02*
Y08268D01*
X10907Y08493D02*
Y08662D01*
X10232Y08698D02*
X102365Y087025D01*
X10382Y08835D02*
Y09323D01*
X10243Y08696D02*
X10382Y08835D01*
X09747Y08698D02*
X10232D01*
X0975Y08889D02*
X10055D01*
X10182Y09016D01*
Y09323D01*
X10404Y0736232D02*
X1040431D01*
X10406Y07364D01*
X1119932Y0735931D02*
X11203D01*
X11199Y07359D02*
X1119932Y0735931D01*
X1250563Y0656562D02*
X1266078Y0672077D01*
X1266171D01*
X1275123Y0681029D02*
Y0681122D01*
X12776Y0684147D02*
X1279143Y068569D01*
X1250563Y0656562D02*
X1250563D01*
X1266171Y0672077D02*
X1275123Y0681029D01*
Y0681122D02*
X12776Y0683599D01*
Y0684147D01*
X12256Y06862D02*
X1231D01*
X12102Y06708D02*
X12256Y06862D01*
X12102Y0657D02*
Y06708D01*
X12551Y07441D02*
X12563Y07429D01*
Y06861D02*
Y07429D01*
X12309Y07112D02*
X1255D01*
X1230563Y0658063D02*
Y0660363D01*
X12563Y06861D01*
X12298Y06573D02*
X1230563Y0658063D01*
Y0656562D02*
Y0658063D01*
X12161Y07065D02*
X12166D01*
X12262D01*
X12156Y07145D02*
X1215643Y0714457D01*
Y0707457D02*
Y0714457D01*
X12262Y07065D02*
X12309Y07112D01*
X1215643Y0707457D02*
X12166Y07065D01*
X11481Y06862D02*
X11519D01*
X11492Y0687253D02*
Y06886D01*
X114879Y0686843D02*
X11492Y0687253D01*
X11481Y06564D02*
Y06862D01*
X114875Y065705D02*
X11489Y06569D01*
X1144543Y0686843D02*
X114879D01*
X11347Y0677D02*
X1144543Y0686843D01*
X11963Y06861D02*
X11999D01*
X1188262Y0678062D02*
X11963Y06861D01*
X1188262Y0656562D02*
Y0678062D01*
X11762Y07186D02*
Y07445D01*
X11705Y07117D02*
Y07129D01*
X11762Y07186D01*
X11378Y07117D02*
X11705D01*
Y06588D02*
Y07117D01*
X1168262Y0656562D02*
X11705Y06588D01*
X11352Y07143D02*
X11378Y07117D01*
X1135Y07143D02*
Y07145D01*
X10848Y0660027D02*
X1084934Y0659894D01*
X1077557Y0686943D02*
X10848Y06797D01*
Y0660027D02*
Y06797D01*
X1084934Y0657034D02*
Y0659894D01*
X10848Y06569D02*
X1084934Y0657034D01*
X10723Y06879D02*
X1073257Y0686943D01*
X10578Y06895D02*
X10703D01*
X1073257Y0686943D02*
X1077557D01*
X10703Y06895D02*
X10738Y0686D01*
X1121428Y0669468D02*
X1121776Y066912D01*
Y0660746D02*
Y066912D01*
X1121423Y0669971D02*
X1121428Y0669468D01*
X1123827Y0658696D02*
X1125961Y0656562D01*
X1121776Y0660746D02*
X1123827Y0658696D01*
X11205Y0670894D02*
X1121423Y0669971D01*
X11205Y0670894D02*
Y06862D01*
X10965Y06944D02*
Y07442D01*
Y06944D02*
X11038Y06871D01*
X10759Y07105D02*
X10947D01*
X11038Y06596D02*
X11067Y06567D01*
X11038Y06596D02*
Y06871D01*
X1059221Y0716279D02*
Y071731D01*
X10578Y0718731D02*
Y07195D01*
Y0718731D02*
X1059221Y071731D01*
X10647Y07108D02*
X10756D01*
X10759Y07105D01*
X1059221Y0716279D02*
X10647Y07108D01*
X09931Y06683D02*
X10044Y0657D01*
X0992543Y0687243D02*
X09936Y06883D01*
X10044Y0657D02*
X10233D01*
X09931Y06683D02*
Y06862D01*
X0987443Y0687243D02*
X0992543D01*
X09783Y06781D02*
X0987443Y0687243D01*
X1045517Y0685276D02*
X1063586Y0667207D01*
Y0657814D02*
Y0667207D01*
Y0657814D02*
X10638Y06576D01*
X10404Y06882D02*
X1041753D01*
X1044677Y0685276D02*
X1045517D01*
X1041753Y06882D02*
X1044677Y0685276D01*
X09783Y07081D02*
X09801Y07099D01*
X10153D01*
X10204Y0715D01*
X1021D02*
Y07393D01*
X1021078Y06807D02*
X1029678Y06721D01*
X1021Y06807D02*
X1021078D01*
X1029678Y06721D02*
X10399D01*
X1021Y06807D02*
Y0715D01*
X10158Y07445D02*
X1021Y07393D01*
X10424Y06699D02*
X104366Y066864D01*
X10399Y06721D02*
X104225Y066975D01*
X104366Y0656562D02*
Y066864D01*
X12734Y07591D02*
X12801Y07524D01*
X09642Y07671D02*
X09722Y07591D01*
X11115D02*
X11199Y07507D01*
Y07359D02*
Y07507D01*
X11913Y0759D02*
X11991Y07512D01*
Y0735831D02*
Y07512D01*
X10406Y07364D02*
Y0753D01*
X10357Y07579D02*
X10406Y0753D01*
X12801Y0736031D02*
Y07524D01*
D75*
X11399Y0949533D02*
D03*
X11249D02*
D03*
X11699D02*
D03*
X11549D02*
D03*
X11099D02*
D03*
X11399D02*
D03*
X11249D02*
D03*
X1224101D02*
D03*
X1209101D02*
D03*
X1194101D02*
D03*
D76*
X1094Y09721D02*
D03*
D77*
Y09621D02*
D03*
D78*
X12078Y08286D02*
D03*
X12178D02*
D03*
X12278D02*
D03*
X12378D02*
D03*
X13082Y09096D02*
D03*
Y08996D02*
D03*
Y08896D02*
D03*
Y08796D02*
D03*
Y08696D02*
D03*
Y08596D02*
D03*
Y08496D02*
D03*
X11518Y09621D02*
D03*
X11418D02*
D03*
X11318D02*
D03*
X11218D02*
D03*
X11202Y09024D02*
D03*
X11302D02*
D03*
X11402D02*
D03*
X11502D02*
D03*
D79*
X12478Y08286D02*
D03*
X11118Y09621D02*
D03*
X11102Y09024D02*
D03*
D80*
X10907Y09103D02*
D03*
Y08493D02*
D03*
X09747Y08698D02*
D03*
D81*
Y08898D02*
D03*
D82*
X10182Y09323D02*
D03*
X10382D02*
D03*
D83*
X12321Y0688D02*
D03*
X12801D02*
D03*
X1256478Y0743905D02*
D03*
X11511Y06878D02*
D03*
X11991D02*
D03*
X1175478Y0743706D02*
D03*
X10723Y06879D02*
D03*
X11203D02*
D03*
X1096678Y0743806D02*
D03*
X09924Y06882D02*
D03*
X10404D02*
D03*
X1016778Y0744105D02*
D03*
X1232856Y0736031D02*
D03*
X12801D02*
D03*
X1151856Y0735831D02*
D03*
X11991D02*
D03*
X1073056Y0735931D02*
D03*
X11203D02*
D03*
X0993156Y0736232D02*
D03*
X10404D02*
D03*
D84*
X12161Y06765D02*
D03*
X12156Y07445D02*
D03*
Y07145D02*
D03*
X12161Y07065D02*
D03*
X11347Y0677D02*
D03*
X11352Y07443D02*
D03*
Y07143D02*
D03*
X11347Y0707D02*
D03*
X10578Y06895D02*
D03*
X1058Y07495D02*
D03*
X09783Y06781D02*
D03*
X09786Y07457D02*
D03*
Y07157D02*
D03*
X09783Y07081D02*
D03*
D85*
X12096Y06566D02*
D03*
X1249862Y0656862D02*
D03*
X1229862D02*
D03*
X11473Y06563D02*
D03*
X1187562Y0656562D02*
D03*
X1167562D02*
D03*
X1085699Y06563D02*
D03*
X1125961Y0656562D02*
D03*
X1105961D02*
D03*
X1023538Y0656338D02*
D03*
X10638Y06566D02*
D03*
X10438D02*
D03*
D86*
X1058Y07195D02*
D03*
X10578Y07195D02*
D03*
D87*
X11402Y08512D02*
D03*
X11102D02*
D03*
X11402Y08394D02*
D03*
X11102D02*
D03*
D88*
X13082Y09196D02*
D03*
D89*
X11406Y09144D02*
D03*
X11306D02*
D03*
X11206D02*
D03*
X11408Y09254D02*
D03*
X11308D02*
D03*
X11208D02*
D03*
X1211Y09684D02*
D03*
X1221D02*
D03*
X1231D02*
D03*
X11256Y09722D02*
D03*
X11356D02*
D03*
X11456D02*
D03*
X13084Y08315D02*
D03*
Y08215D02*
D03*
Y08115D02*
D03*
D90*
X11106Y09144D02*
D03*
X11108Y09254D02*
D03*
X1201Y09684D02*
D03*
X11156Y09722D02*
D03*
D91*
X1145701Y0873095D02*
D03*
X1145701Y0863095D02*
D03*
X1109998Y0873095D02*
D03*
X1109998Y0863095D02*
D03*
X1121899Y0873095D02*
D03*
X1121899Y0863095D02*
D03*
X11338D02*
D03*
X11338Y0873095D02*
D03*
D92*
X10281Y0945678D02*
D03*
D93*
Y09693D02*
D03*
D94*
X1009596Y0957489D02*
D03*
D95*
X10949Y0949533D02*
D03*
D96*
X1239101D02*
D03*
D97*
X13084Y08015D02*
D03*
D98*
X11023Y081965D02*
D03*
X10746Y08206D02*
D03*
X11779Y08901D02*
D03*
X12438Y08112D02*
D03*
X12655Y08232D02*
D03*
X12337Y08943D02*
D03*
X12233Y09054D02*
D03*
X11949Y08451D02*
D03*
X12269Y07976D02*
D03*
X11472Y07967D02*
D03*
X10676Y07953D02*
D03*
X09933Y07972D02*
D03*
X11917Y09211D02*
D03*
X1155494Y0877094D02*
D03*
X11793Y08158D02*
D03*
X10103Y08194D02*
D03*
X11398Y09566D02*
D03*
X10307Y08257D02*
D03*
X11372Y09386D02*
D03*
X11508Y08204D02*
D03*
X1235Y09229D02*
D03*
X12241Y09311D02*
D03*
X11963Y09244D02*
D03*
X11915Y09245D02*
D03*
X11852Y09026D02*
D03*
X11848Y0897D02*
D03*
X12396Y09289D02*
D03*
X12449Y09329D02*
D03*
X12597Y09325D02*
D03*
X1250292Y0936992D02*
D03*
X12067Y08979D02*
D03*
X12231Y08678D02*
D03*
X12148Y09056D02*
D03*
X1265Y09547D02*
D03*
D99*
X1122047Y0838582D02*
D03*
X1071746Y0874016D02*
D03*
X127559Y0791338D02*
D03*
X1281496Y0779527D02*
D03*
X1263779Y0791338D02*
D03*
X1251968Y0956693D02*
D03*
Y081496D02*
D03*
Y0767716D02*
D03*
X1246063Y0968504D02*
D03*
X1234252Y0803149D02*
D03*
X1228346Y0767716D02*
D03*
X121063Y0803149D02*
D03*
X1204724Y0791338D02*
D03*
X121063Y0779527D02*
D03*
X1192913Y0791338D02*
D03*
X1198818Y0779527D02*
D03*
X1181102Y0956693D02*
D03*
X1187008Y0944882D02*
D03*
Y0803149D02*
D03*
X1181102Y0767716D02*
D03*
X1175196Y0803149D02*
D03*
X1169291Y0767716D02*
D03*
X1163385Y0944882D02*
D03*
Y092126D02*
D03*
Y0897637D02*
D03*
X115748Y0885826D02*
D03*
X1163385Y0874016D02*
D03*
X115748Y0838582D02*
D03*
Y081496D02*
D03*
X1163385Y0803149D02*
D03*
X1145669Y0885826D02*
D03*
X1151575Y0874016D02*
D03*
Y0803149D02*
D03*
X1145669Y0767716D02*
D03*
X1133858Y0909449D02*
D03*
X1139763Y0803149D02*
D03*
Y0779527D02*
D03*
X1127952Y0850393D02*
D03*
Y0803149D02*
D03*
X1122047Y0791338D02*
D03*
X1127952Y0779527D02*
D03*
X1116141Y0944882D02*
D03*
X1110236Y0933071D02*
D03*
X1116141Y092126D02*
D03*
Y0897637D02*
D03*
X1110236Y0885826D02*
D03*
X1116141Y0803149D02*
D03*
X1110236Y0791338D02*
D03*
X1116141Y0779527D02*
D03*
X1098425Y0933071D02*
D03*
X110433Y092126D02*
D03*
X1098425Y0909449D02*
D03*
X110433Y0897637D02*
D03*
X1098425Y0885826D02*
D03*
Y0862204D02*
D03*
X110433Y0803149D02*
D03*
X1098425Y0767716D02*
D03*
X1092519Y092126D02*
D03*
Y0897637D02*
D03*
Y0874016D02*
D03*
Y0803149D02*
D03*
X1086614Y0767716D02*
D03*
X1080708Y0897637D02*
D03*
X1074803Y0862204D02*
D03*
X1080708Y0803149D02*
D03*
X1068897D02*
D03*
X1062992Y0791338D02*
D03*
X1051181D02*
D03*
Y0767716D02*
D03*
X1045275Y0897637D02*
D03*
Y0874016D02*
D03*
X103937Y0862204D02*
D03*
Y0791338D02*
D03*
X1045275Y0779527D02*
D03*
X1027559Y0862204D02*
D03*
X1033464Y0803149D02*
D03*
Y0779527D02*
D03*
X1015748Y0862204D02*
D03*
X1021653Y0803149D02*
D03*
X1015748Y0767716D02*
D03*
X1003937Y0909449D02*
D03*
Y0862204D02*
D03*
Y081496D02*
D03*
X0992126Y0909449D02*
D03*
X0998031Y0897637D02*
D03*
X0992126Y0862204D02*
D03*
Y081496D02*
D03*
X0998031Y0803149D02*
D03*
X0992126Y0767716D02*
D03*
X098622Y0897637D02*
D03*
X0980315Y081496D02*
D03*
Y0791338D02*
D03*
Y0767716D02*
D03*
D100*
X10635Y09533D02*
D03*
Y09693D02*
D03*
X0993Y09501D02*
D03*
Y09661D02*
D03*
D101*
X10635Y09613D02*
D03*
X0993Y09581D02*
D03*
D102*
X1194Y092285D02*
D03*
M02*
