; Drill file
; Format: 2.4 (00.0000)
M48
INCH
T01C0.0276
T02C0.0315
T03C0.0354
T04C0.0394
T05C0.0472
T06C0.0531
T07C0.0591
T08C0.063
T09C0.0787
T10C0.1063
T11C0.1177
T12C0.1575
%
G05
G90
T01
X013500Y-030760
X013500Y-027610
X018740Y-027640
X019720Y-027610
X019720Y-030760
X018740Y-030790
X024960Y-030760
X024960Y-027610
X031530Y-018590
X031530Y-015430
X031010Y-008150
X027860Y-008150
X040690Y-010400
X040690Y-013560
X041350Y-018550
X038770Y-018550
X008240Y-011160
X008240Y-010300
X007550Y-009040
X005930Y-009040
X005660Y-010300
X005660Y-011160
X004430Y-013020
X004180Y-014000
X002550Y-014000
X001590Y-014000
X001850Y-013020
X000800Y-008300
X000800Y-005720
X002770Y-003710
X004390Y-003710
X005380Y-004100
X005930Y-004930
X007550Y-004930
X007300Y-003520
X007300Y-001890
X005380Y-001520
X005660Y-007370
X008240Y-007370
X011510Y-002450
X011510Y-001450
T02
X001780Y-011800
X001780Y-010800
X001780Y-009800
X001780Y-008800
X001780Y-007800
X001780Y-006800
X001780Y-005800
X001780Y-004800
X004780Y-004800
X004780Y-005800
X004780Y-006800
X004780Y-007800
X004780Y-008800
X004780Y-009800
X004780Y-010800
X004780Y-011800
X005960Y-006200
X007460Y-006200
X008220Y-002450
X008220Y-001450
X011220Y-001450
X011220Y-002450
X005010Y-000490
X003940Y-001550
T03
X030640Y-030410
X031640Y-030410
X032640Y-030410
X033640Y-030410
X040110Y-016710
X040110Y-015710
X040110Y-014710
X010680Y-007400
X009680Y-007400
T04
X014840Y-026800
X017390Y-026770
X021080Y-026800
X023620Y-026770
X030670Y-018590
X030670Y-016020
X039340Y-012910
X039340Y-010620
X039090Y-019870
X039090Y-021870
X041090Y-020870
X024940Y-001950
X018240Y-001940
X013520Y-001940
X011530Y-004750
X009530Y-005750
X009530Y-003750
X006220Y-002720
X006220Y-001740
X006220Y-000750
X009020Y-009720
X011600Y-009720
X004200Y-014980
X004210Y-015470
X001880Y-016550
X001880Y-017550
X004210Y-018050
X001620Y-014980
T05
X038180Y-007810
X038180Y-006560
X038180Y-005310
X032620Y-003810
X029670Y-003810
T06
X029000Y-021150
X029000Y-019190
X029000Y-017220
X029000Y-015250
X029000Y-013280
X029000Y-011310
X024100Y-009990
X024100Y-009130
X022130Y-009130
X022130Y-009990
X022130Y-017000
X020160Y-017000
X018190Y-017000
X016220Y-017000
X014250Y-017000
X014250Y-009990
X014250Y-009130
X024100Y-017000
X036870Y-017220
X036870Y-019190
X036870Y-021150
X036870Y-015250
X036870Y-013280
X036880Y-011310
T07
X014050Y-026750
X016100Y-026750
X018190Y-026770
X020280Y-026750
X022330Y-026750
X024420Y-026770
X027070Y-025660
X039500Y-025660
X008270Y-016720
X008250Y-013590
T08
X013000Y-006410
X013000Y-004060
X018710Y-004060
X020380Y-004060
X020390Y-006410
X018710Y-006410
X026100Y-006410
X026090Y-004060
T09
X034420Y-006950
X027230Y-005170
T10
X014140Y-022360
X024380Y-022320
T11
X004660Y-030420
X037080Y-001520
T12
X002920Y-022910
X010970Y-011330
M30
