%FSLAX34Y34*%
%MOMM*%
%LNSOLDERMASK_BOTTOM*%
G71*
G01*
%ADD10C, 4.60*%
%ADD11C, 2.40*%
%ADD12C, 3.60*%
%ADD13C, 0.20*%
%ADD14C, 5.60*%
%ADD15C, 1.50*%
%ADD16C, 2.60*%
%ADD17C, 3.60*%
%ADD18C, 0.42*%
%ADD19C, 0.35*%
%ADD20C, 2.20*%
%ADD21C, 2.30*%
%ADD22C, 2.20*%
%ADD23R, 10.10X10.10*%
%ADD24R, 6.20X3.20*%
%ADD25R, 5.20X4.20*%
%ADD26C, 4.10*%
%ADD27C, 2.20*%
%ADD28C, 3.60*%
%ADD29C, 3.20*%
%ADD30C, 1.80*%
%ADD31C, 0.30*%
%ADD32C, 2.30*%
%ADD33C, 2.00*%
%ADD34C, 2.20*%
%ADD35C, 1.20*%
%ADD36C, 2.60*%
%ADD37C, 1.70*%
%ADD38C, 2.40*%
%ADD39C, 2.60*%
%ADD40C, 2.40*%
%LPD*%
X359172Y-567928D02*
G54D10*
D03*
X619172Y-566928D02*
G54D10*
D03*
G36*
X1026176Y-674794D02*
X980176Y-674794D01*
X980176Y-628794D01*
X1026176Y-628794D01*
X1026176Y-674794D01*
G37*
G36*
X710676Y-674795D02*
X664676Y-674795D01*
X664676Y-628795D01*
X710676Y-628795D01*
X710676Y-674795D01*
G37*
X47856Y-420325D02*
G54D11*
D03*
X47856Y-445725D02*
G54D11*
D03*
X612066Y-431850D02*
G54D12*
D03*
X562066Y-431850D02*
G54D12*
D03*
X512066Y-431850D02*
G54D12*
D03*
X462066Y-431850D02*
G54D12*
D03*
X412066Y-431850D02*
G54D12*
D03*
X362066Y-431850D02*
G54D12*
D03*
X362066Y-253850D02*
G54D12*
D03*
X612066Y-431850D02*
G54D12*
D03*
X612066Y-253850D02*
G54D12*
D03*
X562066Y-253850D02*
G54D12*
D03*
X562066Y-231850D02*
G54D12*
D03*
X612066Y-231850D02*
G54D12*
D03*
X362066Y-231850D02*
G54D12*
D03*
G36*
X204788Y-375444D02*
X217885Y-388540D01*
X441722Y-388540D01*
X447278Y-394097D01*
X447278Y-443309D01*
X453628Y-449659D01*
X520700Y-449659D01*
X527447Y-442912D01*
X527447Y-344884D01*
X509588Y-327025D01*
X210741Y-327025D01*
X204788Y-332978D01*
X204788Y-375444D01*
G37*
G54D13*
X204788Y-375444D02*
X217885Y-388540D01*
X441722Y-388540D01*
X447278Y-394097D01*
X447278Y-443309D01*
X453628Y-449659D01*
X520700Y-449659D01*
X527447Y-442912D01*
X527447Y-344884D01*
X509588Y-327025D01*
X210741Y-327025D01*
X204788Y-332978D01*
X204788Y-375444D01*
X278610Y-287730D02*
G54D14*
D03*
G54D15*
X475060Y-162718D02*
X519906Y-162718D01*
X519510Y-216694D01*
X534194Y-231378D01*
X561975Y-231775D01*
G54D15*
X475060Y-103188D02*
X586581Y-103188D01*
X600472Y-117078D01*
X600472Y-174625D01*
X612378Y-186531D01*
X612378Y-232568D01*
X242005Y-145979D02*
G54D16*
D03*
X242005Y-95179D02*
G54D16*
D03*
X292804Y-120579D02*
G54D16*
D03*
X941788Y-38500D02*
G54D17*
D03*
X118270Y-772717D02*
G54D17*
D03*
G54D18*
X1047984Y-264258D02*
X1035540Y-258036D01*
X1047984Y-251814D01*
G54D18*
X1035540Y-247458D02*
X1047984Y-241236D01*
X1035540Y-235014D01*
G54D18*
X1040206Y-244970D02*
X1040206Y-237503D01*
G54D18*
X1035540Y-230658D02*
X1047984Y-230658D01*
X1035540Y-220703D01*
X1047984Y-220703D01*
G54D18*
X1037872Y-211368D02*
X1035540Y-205146D01*
G54D18*
X1045650Y-206391D02*
X1037872Y-206391D01*
X1036317Y-207636D01*
X1035540Y-210124D01*
X1035540Y-212613D01*
X1036317Y-215102D01*
X1037872Y-216346D01*
X1045650Y-216346D01*
X1047206Y-215102D01*
X1047984Y-212613D01*
X1047984Y-210124D01*
X1047206Y-207636D01*
X1045650Y-206391D01*
G54D18*
X1047984Y-200790D02*
X1037872Y-200790D01*
X1036317Y-199546D01*
X1035540Y-197057D01*
X1035540Y-194568D01*
X1036317Y-192080D01*
X1037872Y-190835D01*
X1047984Y-190835D01*
G54D18*
X1045650Y-176523D02*
X1037872Y-176523D01*
X1036317Y-177768D01*
X1035540Y-180256D01*
X1035540Y-182745D01*
X1036317Y-185234D01*
X1037872Y-186478D01*
X1045650Y-186478D01*
X1047206Y-185234D01*
X1047984Y-182745D01*
X1047984Y-180256D01*
X1047206Y-177768D01*
X1045650Y-176523D01*
G54D18*
X1037872Y-162211D02*
X1036317Y-163456D01*
X1035540Y-165944D01*
X1035540Y-168433D01*
X1036317Y-170922D01*
X1037872Y-172166D01*
X1045650Y-172166D01*
X1047206Y-170922D01*
X1047984Y-168433D01*
X1047984Y-165944D01*
X1047206Y-163456D01*
X1045650Y-162211D01*
G54D18*
X1037872Y-147899D02*
X1036317Y-149144D01*
X1035540Y-151632D01*
X1035540Y-154121D01*
X1036317Y-156610D01*
X1037872Y-157854D01*
X1045650Y-157854D01*
X1047206Y-156610D01*
X1047984Y-154121D01*
X1047984Y-151632D01*
X1047206Y-149144D01*
X1045650Y-147899D01*
G54D18*
X1047984Y-143542D02*
X1037872Y-143542D01*
X1036317Y-142298D01*
X1035540Y-139809D01*
X1035540Y-137320D01*
X1036317Y-134832D01*
X1037872Y-133587D01*
X1047984Y-133587D01*
G54D18*
X1045650Y-119275D02*
X1037872Y-119275D01*
X1036317Y-120520D01*
X1035540Y-123008D01*
X1035540Y-125497D01*
X1036317Y-127986D01*
X1037872Y-129230D01*
X1045650Y-129230D01*
X1047206Y-127986D01*
X1047984Y-125497D01*
X1047984Y-123008D01*
X1047206Y-120520D01*
X1045650Y-119275D01*
G54D18*
X1035540Y-114918D02*
X1047984Y-114918D01*
X1035540Y-104963D01*
X1047984Y-104963D01*
G54D18*
X1041762Y-95628D02*
X1041762Y-90651D01*
X1037872Y-90651D01*
X1036317Y-91896D01*
X1035540Y-94384D01*
X1035540Y-96873D01*
X1036317Y-99362D01*
X1037872Y-100606D01*
X1045650Y-100606D01*
X1047206Y-99362D01*
X1047984Y-96873D01*
X1047984Y-94384D01*
X1047206Y-91896D01*
X1045650Y-90651D01*
G36*
X305991Y-262334D02*
X305991Y-329803D01*
X252413Y-329803D01*
X252413Y-262334D01*
X305991Y-262334D01*
G37*
G54D19*
X305991Y-262334D02*
X305991Y-329803D01*
X252413Y-329803D01*
X252413Y-262334D01*
X305991Y-262334D01*
G54D20*
X662781Y-163116D02*
X662384Y-103584D01*
X41213Y-380369D02*
G54D21*
D03*
X106698Y-380369D02*
G54D21*
D03*
G36*
X498245Y-112791D02*
X484790Y-126246D01*
X465700Y-126246D01*
X452245Y-112791D01*
X452245Y-93701D01*
X465700Y-80246D01*
X484790Y-80246D01*
X498245Y-93701D01*
X498245Y-112791D01*
G37*
G36*
X353246Y-112791D02*
X339791Y-126246D01*
X320701Y-126246D01*
X307246Y-112791D01*
X307246Y-93701D01*
X320701Y-80246D01*
X339791Y-80246D01*
X353246Y-93701D01*
X353246Y-112791D01*
G37*
G36*
X498245Y-172322D02*
X484790Y-185777D01*
X465700Y-185777D01*
X452245Y-172322D01*
X452245Y-153232D01*
X465700Y-139777D01*
X484790Y-139777D01*
X498245Y-153232D01*
X498245Y-172322D01*
G37*
G36*
X353246Y-172322D02*
X339791Y-185777D01*
X320701Y-185777D01*
X307246Y-172322D01*
X307246Y-153232D01*
X320701Y-139777D01*
X339791Y-139777D01*
X353246Y-153232D01*
X353246Y-172322D01*
G37*
G36*
X685570Y-112791D02*
X672115Y-126246D01*
X653025Y-126246D01*
X639570Y-112791D01*
X639570Y-93701D01*
X653025Y-80246D01*
X672115Y-80246D01*
X685570Y-93701D01*
X685570Y-112791D01*
G37*
G36*
X540571Y-112791D02*
X527116Y-126246D01*
X508026Y-126246D01*
X494571Y-112791D01*
X494571Y-93701D01*
X508026Y-80246D01*
X527116Y-80246D01*
X540571Y-93701D01*
X540571Y-112791D01*
G37*
G36*
X685967Y-172322D02*
X672512Y-185777D01*
X653422Y-185777D01*
X639967Y-172322D01*
X639967Y-153232D01*
X653422Y-139777D01*
X672512Y-139777D01*
X685967Y-153232D01*
X685967Y-172322D01*
G37*
G36*
X540968Y-172322D02*
X527512Y-185777D01*
X508422Y-185777D01*
X494968Y-172322D01*
X494968Y-153232D01*
X508422Y-139777D01*
X527512Y-139777D01*
X540968Y-153232D01*
X540968Y-172322D01*
G37*
G36*
X956844Y-129594D02*
X964449Y-121989D01*
X975239Y-121989D01*
X982844Y-129594D01*
X982844Y-140384D01*
X975239Y-147989D01*
X964449Y-147989D01*
X956844Y-140384D01*
X956844Y-129594D01*
G37*
G36*
X956844Y-161344D02*
X964450Y-153740D01*
X975240Y-153740D01*
X982844Y-161344D01*
X982844Y-172134D01*
X975240Y-179740D01*
X964450Y-179740D01*
X956844Y-172134D01*
X956844Y-161344D01*
G37*
G36*
X956845Y-193094D02*
X964451Y-185490D01*
X975241Y-185490D01*
X982845Y-193096D01*
X982844Y-203886D01*
X975238Y-211490D01*
X964448Y-211490D01*
X956844Y-203884D01*
X956845Y-193094D01*
G37*
X271227Y-188014D02*
G54D22*
D03*
X245827Y-188014D02*
G54D22*
D03*
X294587Y-246832D02*
G54D21*
D03*
X229103Y-246832D02*
G54D21*
D03*
X999132Y-269676D02*
G54D16*
D03*
X999132Y-328017D02*
G54D16*
D03*
X125055Y-635944D02*
G54D23*
D03*
X243055Y-610444D02*
G54D24*
D03*
X257555Y-662444D02*
G54D25*
D03*
X125055Y-527200D02*
G54D23*
D03*
X243055Y-501700D02*
G54D24*
D03*
X257555Y-553700D02*
G54D25*
D03*
G36*
X216606Y-328281D02*
X226551Y-338226D01*
X226551Y-352336D01*
X216606Y-362281D01*
X202496Y-362281D01*
X192551Y-352336D01*
X192551Y-338226D01*
X202496Y-328281D01*
X216606Y-328281D01*
G37*
G36*
X217003Y-407657D02*
X226948Y-417602D01*
X226948Y-431712D01*
X217003Y-441657D01*
X202893Y-441657D01*
X192948Y-431712D01*
X192948Y-417602D01*
X202893Y-407657D01*
X217003Y-407657D01*
G37*
X753666Y-96838D02*
G54D26*
D03*
X828666Y-96838D02*
G54D26*
D03*
X343297Y-49212D02*
G54D16*
D03*
X463297Y-49212D02*
G54D16*
D03*
G54D20*
X736600Y-486569D02*
X736203Y-634206D01*
X717947Y-652462D01*
X690562Y-652462D01*
X984694Y-471190D02*
G54D27*
D03*
X1050178Y-471190D02*
G54D27*
D03*
X874313Y-176613D02*
G54D28*
D03*
X691748Y-131370D02*
G54D28*
D03*
G54D20*
X969566Y-166688D02*
X874316Y-166688D01*
G54D29*
X874712Y-169069D02*
X874712Y-586184D01*
X940594Y-652066D01*
X1002903Y-652066D01*
G54D20*
X735806Y-336550D02*
X735806Y-288528D01*
X769938Y-288528D01*
X794147Y-264319D01*
X794147Y-159544D01*
X828278Y-125412D01*
X828278Y-30162D01*
X462756Y-30162D01*
X462756Y-49610D01*
G54D20*
X969962Y-133747D02*
X969962Y-100012D01*
X828278Y-100012D01*
G54D20*
X753666Y-97234D02*
X665956Y-97234D01*
G36*
X710406Y-95250D02*
X710406Y-182960D01*
X654447Y-182960D01*
X654447Y-99219D01*
X704850Y-99219D01*
X710406Y-104775D01*
X710406Y-95250D01*
G37*
G54D19*
X710406Y-95250D02*
X710406Y-182960D01*
X654447Y-182960D01*
X654447Y-99219D01*
X704850Y-99219D01*
X710406Y-104775D01*
X710406Y-95250D01*
G54D20*
X330597Y-163116D02*
X330597Y-62706D01*
X343297Y-49212D01*
G36*
X175419Y-475060D02*
X175419Y-685800D01*
X75406Y-685800D01*
X75406Y-475060D01*
X175419Y-475060D01*
G37*
G54D19*
X175419Y-475060D02*
X175419Y-685800D01*
X75406Y-685800D01*
X75406Y-475060D01*
X175419Y-475060D01*
G54D29*
X209550Y-424656D02*
X284956Y-424656D01*
X304800Y-444500D01*
X304800Y-730647D01*
X315119Y-740966D01*
X639366Y-740569D01*
G36*
X217884Y-534194D02*
X291306Y-534194D01*
X291306Y-579438D01*
X217884Y-579438D01*
X217884Y-534194D01*
G37*
G54D19*
X217884Y-534194D02*
X291306Y-534194D01*
X291306Y-579438D01*
X217884Y-579438D01*
X217884Y-534194D01*
G36*
X217884Y-642938D02*
X291306Y-642938D01*
X291306Y-688181D01*
X217884Y-688181D01*
X217884Y-642938D01*
G37*
G54D19*
X217884Y-642938D02*
X291306Y-642938D01*
X291306Y-688181D01*
X217884Y-688181D01*
X217884Y-642938D01*
X74220Y-581810D02*
G54D14*
D03*
G36*
X50006Y-559197D02*
X75406Y-533797D01*
X75406Y-630238D01*
X50006Y-604838D01*
X50006Y-559197D01*
G37*
G54D19*
X50006Y-559197D02*
X75406Y-533797D01*
X75406Y-630238D01*
X50006Y-604838D01*
X50006Y-559197D01*
G36*
X480019Y-687324D02*
X469489Y-697854D01*
X454549Y-697854D01*
X444019Y-687324D01*
X444019Y-672384D01*
X454549Y-661854D01*
X469489Y-661854D01*
X480019Y-672384D01*
X480019Y-687324D01*
G37*
G36*
X426837Y-686928D02*
X416307Y-697458D01*
X401367Y-697458D01*
X390837Y-686928D01*
X390837Y-671988D01*
X401367Y-661458D01*
X416307Y-661458D01*
X426837Y-671988D01*
X426837Y-686928D01*
G37*
G36*
X374847Y-686928D02*
X364317Y-697458D01*
X349377Y-697458D01*
X338847Y-686928D01*
X338847Y-671988D01*
X349377Y-661458D01*
X364317Y-661458D01*
X374847Y-671988D01*
X374847Y-686928D01*
G37*
G36*
X364027Y-675243D02*
X371632Y-667638D01*
X382422Y-667638D01*
X390027Y-675243D01*
X390027Y-686033D01*
X382422Y-693638D01*
X371632Y-693638D01*
X364027Y-686033D01*
X364027Y-675243D01*
G37*
G36*
X428717Y-674449D02*
X436322Y-666844D01*
X447112Y-666844D01*
X454717Y-674449D01*
X454717Y-685239D01*
X447112Y-692844D01*
X436322Y-692844D01*
X428717Y-685239D01*
X428717Y-674449D01*
G37*
G36*
X638372Y-687324D02*
X627842Y-697854D01*
X612902Y-697854D01*
X602372Y-687324D01*
X602372Y-672384D01*
X612902Y-661854D01*
X627842Y-661854D01*
X638372Y-672384D01*
X638372Y-687324D01*
G37*
G36*
X585190Y-686928D02*
X574660Y-697458D01*
X559720Y-697458D01*
X549190Y-686928D01*
X549190Y-671988D01*
X559720Y-661458D01*
X574660Y-661458D01*
X585190Y-671988D01*
X585190Y-686928D01*
G37*
G36*
X533200Y-686928D02*
X522670Y-697458D01*
X507730Y-697458D01*
X497200Y-686928D01*
X497200Y-671988D01*
X507730Y-661458D01*
X522670Y-661458D01*
X533200Y-671988D01*
X533200Y-686928D01*
G37*
G36*
X522380Y-675243D02*
X529985Y-667638D01*
X540775Y-667638D01*
X548380Y-675243D01*
X548380Y-686033D01*
X540775Y-693638D01*
X529985Y-693638D01*
X522380Y-686033D01*
X522380Y-675243D01*
G37*
G36*
X587070Y-674450D02*
X594675Y-666844D01*
X605465Y-666844D01*
X613070Y-674450D01*
X613070Y-685240D01*
X605465Y-692844D01*
X594675Y-692844D01*
X587070Y-685240D01*
X587070Y-674450D01*
G37*
X342990Y-701184D02*
G54D27*
D03*
X342990Y-781352D02*
G54D27*
D03*
X475943Y-701977D02*
G54D27*
D03*
X475943Y-782146D02*
G54D27*
D03*
X500946Y-701183D02*
G54D27*
D03*
X500946Y-781352D02*
G54D27*
D03*
X633899Y-701183D02*
G54D27*
D03*
X633899Y-781352D02*
G54D27*
D03*
G54D20*
X377031Y-680640D02*
X354012Y-680640D01*
G54D20*
X441722Y-679847D02*
X462756Y-679847D01*
G54D20*
X535384Y-680640D02*
X516334Y-680640D01*
G54D20*
X600075Y-679847D02*
X621903Y-679847D01*
G54D30*
X342900Y-701278D02*
X342900Y-693738D01*
X356790Y-679847D01*
G54D30*
X500856Y-701278D02*
X500856Y-693340D01*
X514747Y-679450D01*
G54D30*
X475853Y-702072D02*
X475853Y-693738D01*
X462360Y-680244D01*
G54D30*
X633810Y-701278D02*
X633810Y-692944D01*
X620712Y-679847D01*
G54D29*
X408781Y-679450D02*
X408781Y-431800D01*
G54D29*
X567134Y-679450D02*
X567134Y-433388D01*
G36*
X393700Y-652462D02*
X389334Y-652462D01*
X389334Y-446881D01*
X347266Y-446881D01*
X347266Y-416322D01*
X427038Y-416322D01*
X427038Y-652462D01*
X389334Y-652462D01*
X393700Y-652462D01*
G37*
G54D31*
X393700Y-652462D02*
X389334Y-652462D01*
X389334Y-446881D01*
X347266Y-446881D01*
X347266Y-416322D01*
X427038Y-416322D01*
X427038Y-652462D01*
X389334Y-652462D01*
X393700Y-652462D01*
G36*
X582612Y-652066D02*
X588962Y-652066D01*
X588962Y-446881D01*
X627460Y-446881D01*
X627460Y-416322D01*
X547290Y-416322D01*
X547290Y-652066D01*
X588962Y-652066D01*
X582612Y-652066D01*
G37*
G54D31*
X582612Y-652066D02*
X588962Y-652066D01*
X588962Y-446881D01*
X627460Y-446881D01*
X627460Y-416322D01*
X547290Y-416322D01*
X547290Y-652066D01*
X588962Y-652066D01*
X582612Y-652066D01*
G36*
X178594Y-410369D02*
X178594Y-440928D01*
X271860Y-440928D01*
X282178Y-451247D01*
X282178Y-642938D01*
X215900Y-642938D01*
X215900Y-746125D01*
X226219Y-756444D01*
X655638Y-756444D01*
X655638Y-681434D01*
X639762Y-665560D01*
X604838Y-665560D01*
X604838Y-725884D01*
X481806Y-725884D01*
X481806Y-676672D01*
X470694Y-665560D01*
X446484Y-665560D01*
X446484Y-725884D01*
X333772Y-725884D01*
X321072Y-713184D01*
X321072Y-425053D01*
X306388Y-410369D01*
X178594Y-410369D01*
G37*
G54D31*
X178594Y-410369D02*
X178594Y-440928D01*
X271860Y-440928D01*
X282178Y-451247D01*
X282178Y-642938D01*
X215900Y-642938D01*
X215900Y-746125D01*
X226219Y-756444D01*
X655638Y-756444D01*
X655638Y-681434D01*
X639762Y-665560D01*
X604838Y-665560D01*
X604838Y-725884D01*
X481806Y-725884D01*
X481806Y-676672D01*
X470694Y-665560D01*
X446484Y-665560D01*
X446484Y-725884D01*
X333772Y-725884D01*
X321072Y-713184D01*
X321072Y-425053D01*
X306388Y-410369D01*
X178594Y-410369D01*
G36*
X979090Y-154384D02*
X979090Y-178990D01*
X925116Y-178990D01*
X875903Y-228203D01*
X843360Y-195660D01*
X843360Y-173831D01*
X862806Y-154384D01*
X979090Y-154384D01*
G37*
G54D19*
X979090Y-154384D02*
X979090Y-178990D01*
X925116Y-178990D01*
X875903Y-228203D01*
X843360Y-195660D01*
X843360Y-173831D01*
X862806Y-154384D01*
X979090Y-154384D01*
G36*
X133396Y-304712D02*
X126376Y-311732D01*
X116416Y-311732D01*
X109396Y-304712D01*
X109396Y-294752D01*
X116416Y-287732D01*
X126376Y-287732D01*
X133396Y-294752D01*
X133396Y-304712D01*
G37*
G36*
X133396Y-279312D02*
X126376Y-286332D01*
X116416Y-286332D01*
X109396Y-279312D01*
X109396Y-269352D01*
X116416Y-262332D01*
X126376Y-262332D01*
X133396Y-269352D01*
X133396Y-279312D01*
G37*
G36*
X133396Y-253912D02*
X126376Y-260932D01*
X116416Y-260932D01*
X109396Y-253912D01*
X109396Y-243952D01*
X116416Y-236932D01*
X126376Y-236932D01*
X133396Y-243952D01*
X133396Y-253912D01*
G37*
G36*
X133396Y-228512D02*
X126376Y-235532D01*
X116416Y-235532D01*
X109396Y-228512D01*
X109396Y-218552D01*
X116416Y-211532D01*
X126376Y-211532D01*
X133396Y-218552D01*
X133396Y-228512D01*
G37*
G36*
X57196Y-304712D02*
X50176Y-311732D01*
X40216Y-311732D01*
X33196Y-304712D01*
X33196Y-294752D01*
X40216Y-287732D01*
X50176Y-287732D01*
X57196Y-294752D01*
X57196Y-304712D01*
G37*
G36*
X57196Y-279312D02*
X50176Y-286332D01*
X40216Y-286332D01*
X33196Y-279312D01*
X33196Y-269352D01*
X40216Y-262332D01*
X50176Y-262332D01*
X57196Y-269352D01*
X57196Y-279312D01*
G37*
G36*
X57196Y-253912D02*
X50176Y-260932D01*
X40216Y-260932D01*
X33196Y-253912D01*
X33196Y-243952D01*
X40216Y-236932D01*
X50176Y-236932D01*
X57196Y-243952D01*
X57196Y-253912D01*
G37*
G36*
X57196Y-228512D02*
X50176Y-235532D01*
X40216Y-235532D01*
X33196Y-228512D01*
X33196Y-218552D01*
X40216Y-211532D01*
X50176Y-211532D01*
X57196Y-218552D01*
X57196Y-228512D01*
G37*
G36*
X133396Y-203112D02*
X126376Y-210132D01*
X116416Y-210132D01*
X109396Y-203112D01*
X109396Y-193152D01*
X116416Y-186132D01*
X126376Y-186132D01*
X133396Y-193152D01*
X133396Y-203112D01*
G37*
G36*
X57196Y-203112D02*
X50176Y-210132D01*
X40216Y-210132D01*
X33196Y-203112D01*
X33196Y-193152D01*
X40216Y-186132D01*
X50176Y-186132D01*
X57196Y-193152D01*
X57196Y-203112D01*
G37*
G36*
X133396Y-177712D02*
X126376Y-184732D01*
X116416Y-184732D01*
X109396Y-177712D01*
X109396Y-167752D01*
X116416Y-160732D01*
X126376Y-160732D01*
X133396Y-167752D01*
X133396Y-177712D01*
G37*
G36*
X133396Y-152312D02*
X126376Y-159332D01*
X116416Y-159332D01*
X109396Y-152312D01*
X109396Y-142352D01*
X116416Y-135332D01*
X126376Y-135332D01*
X133396Y-142352D01*
X133396Y-152312D01*
G37*
G36*
X57196Y-177712D02*
X50176Y-184732D01*
X40216Y-184732D01*
X33196Y-177712D01*
X33196Y-167752D01*
X40216Y-160732D01*
X50176Y-160732D01*
X57196Y-167752D01*
X57196Y-177712D01*
G37*
G36*
X57196Y-152312D02*
X50176Y-159332D01*
X40216Y-159332D01*
X33196Y-152312D01*
X33196Y-142352D01*
X40216Y-135332D01*
X50176Y-135332D01*
X57196Y-142352D01*
X57196Y-152312D01*
G37*
G36*
X133396Y-126912D02*
X126376Y-133932D01*
X116416Y-133932D01*
X109396Y-126912D01*
X109396Y-116952D01*
X116416Y-109932D01*
X126376Y-109932D01*
X133396Y-116952D01*
X133396Y-126912D01*
G37*
G36*
X57196Y-126912D02*
X50176Y-133932D01*
X40216Y-133932D01*
X33196Y-126912D01*
X33196Y-116952D01*
X40216Y-109932D01*
X50176Y-109932D01*
X57196Y-116952D01*
X57196Y-126912D01*
G37*
X150526Y-125122D02*
G54D32*
D03*
X191800Y-125122D02*
G54D32*
D03*
X150526Y-229500D02*
G54D32*
D03*
X191801Y-229500D02*
G54D32*
D03*
X46976Y-330657D02*
G54D27*
D03*
X112460Y-330657D02*
G54D27*
D03*
X20385Y-210800D02*
G54D33*
D03*
X20385Y-145316D02*
G54D33*
D03*
X143788Y-283574D02*
G54D27*
D03*
X209272Y-283574D02*
G54D27*
D03*
X70357Y-94166D02*
G54D32*
D03*
X111632Y-94166D02*
G54D32*
D03*
X158088Y-19148D02*
G54D34*
D03*
X158088Y-44148D02*
G54D34*
D03*
X158088Y-69148D02*
G54D34*
D03*
X64800Y-355706D02*
G54D32*
D03*
X106076Y-355706D02*
G54D32*
D03*
G54D35*
X106760Y-380206D02*
X106760Y-394890D01*
G54D35*
X106362Y-355600D02*
X97631Y-355600D01*
X83344Y-369888D01*
X83344Y-416719D01*
X95647Y-429022D01*
X212725Y-429022D01*
X216694Y-432990D01*
G54D35*
X105966Y-355600D02*
X146050Y-355600D01*
X208756Y-292894D01*
X208756Y-124222D01*
X143788Y-261746D02*
G54D27*
D03*
X209272Y-261746D02*
G54D27*
D03*
X143788Y-187133D02*
G54D27*
D03*
X209272Y-187133D02*
G54D27*
D03*
X151306Y-157446D02*
G54D36*
D03*
X189405Y-157446D02*
G54D36*
D03*
G54D35*
X191690Y-229394D02*
X207962Y-229394D01*
G54D35*
X191294Y-123825D02*
X208756Y-123825D01*
G54D37*
X107950Y-379810D02*
X451644Y-379810D01*
X206772Y-379810D01*
X100193Y-39438D02*
G54D36*
D03*
X127134Y-12498D02*
G54D36*
D03*
X284876Y-62240D02*
G54D38*
D03*
X284876Y-36840D02*
G54D38*
D03*
X208676Y-62240D02*
G54D38*
D03*
X208676Y-36840D02*
G54D38*
D03*
X185450Y-48128D02*
G54D32*
D03*
X185450Y-89403D02*
G54D32*
D03*
G36*
X251619Y-261540D02*
X308769Y-261540D01*
X373856Y-326628D01*
X509588Y-326628D01*
X527447Y-344488D01*
X527447Y-388540D01*
X195262Y-388540D01*
X195262Y-326628D01*
X234950Y-286940D01*
X234950Y-273844D01*
X243681Y-261540D01*
X254000Y-261540D01*
X251619Y-261540D01*
G37*
G54D13*
X251619Y-261540D02*
X308769Y-261540D01*
X373856Y-326628D01*
X509588Y-326628D01*
X527447Y-344488D01*
X527447Y-388540D01*
X195262Y-388540D01*
X195262Y-326628D01*
X234950Y-286940D01*
X234950Y-273844D01*
X243681Y-261540D01*
X254000Y-261540D01*
X251619Y-261540D01*
X136557Y-38658D02*
G54D32*
D03*
X136557Y-104142D02*
G54D32*
D03*
X106904Y-458450D02*
G54D21*
D03*
X106904Y-392966D02*
G54D21*
D03*
X800984Y-392018D02*
G54D27*
D03*
X800984Y-472186D02*
G54D27*
D03*
X707560Y-206972D02*
G54D27*
D03*
X787730Y-206972D02*
G54D27*
D03*
G36*
X548481Y-192088D02*
X577453Y-192088D01*
X577453Y-272256D01*
X545306Y-272256D01*
X545306Y-192088D01*
X554434Y-192088D01*
X548481Y-192088D01*
G37*
G54D13*
X548481Y-192088D02*
X577453Y-192088D01*
X577453Y-272256D01*
X545306Y-272256D01*
X545306Y-192088D01*
X554434Y-192088D01*
X548481Y-192088D01*
G36*
X599678Y-192088D02*
X628650Y-192088D01*
X628650Y-272256D01*
X596503Y-272256D01*
X596503Y-192088D01*
X605631Y-192088D01*
X599678Y-192088D01*
G37*
G54D13*
X599678Y-192088D02*
X628650Y-192088D01*
X628650Y-272256D01*
X596503Y-272256D01*
X596503Y-192088D01*
X605631Y-192088D01*
X599678Y-192088D01*
X40481Y-355600D02*
G54D32*
D03*
X633412Y-49610D02*
G54D16*
D03*
G54D20*
X633412Y-49610D02*
X633412Y-32147D01*
X292252Y-36886D02*
G54D39*
D03*
X292252Y-62286D02*
G54D39*
D03*
X736600Y-537314D02*
G54D12*
D03*
X736600Y-487307D02*
G54D12*
D03*
X736600Y-437301D02*
G54D12*
D03*
X736600Y-387295D02*
G54D12*
D03*
X736600Y-287282D02*
G54D12*
D03*
X736600Y-337288D02*
G54D12*
D03*
X936624Y-537314D02*
G54D12*
D03*
X936624Y-487307D02*
G54D12*
D03*
X936624Y-437301D02*
G54D12*
D03*
X936624Y-387295D02*
G54D12*
D03*
X936625Y-287282D02*
G54D12*
D03*
X936624Y-337288D02*
G54D12*
D03*
X1033552Y-264224D02*
G54D27*
D03*
X1033552Y-344393D02*
G54D27*
D03*
X992961Y-555466D02*
G54D16*
D03*
X992961Y-504666D02*
G54D16*
D03*
X1043761Y-530066D02*
G54D16*
D03*
X1018789Y-424409D02*
G54D40*
D03*
X1018789Y-399009D02*
G54D40*
D03*
X1018789Y-373609D02*
G54D40*
D03*
G36*
X867400Y-759400D02*
X867400Y-785400D01*
X841400Y-785400D01*
X841400Y-759400D01*
X867400Y-759400D01*
G37*
G36*
X842002Y-759399D02*
X842002Y-785399D01*
X816002Y-785399D01*
X816002Y-759399D01*
X842002Y-759399D01*
G37*
G36*
X816602Y-759399D02*
X816602Y-785399D01*
X790602Y-785399D01*
X790602Y-759399D01*
X816602Y-759399D01*
G37*
G36*
X791200Y-759400D02*
X791200Y-785400D01*
X765200Y-785400D01*
X765200Y-759400D01*
X791200Y-759400D01*
G37*
X779078Y-406811D02*
G54D21*
D03*
X779078Y-472295D02*
G54D21*
D03*
M02*
